<svg xmlns="http://www.w3.org/2000/svg" xmlns:xlink="http://www.w3.org/1999/xlink" width="500" zoomAndPan="magnify" viewBox="0 0 375 374.999991" height="500" preserveAspectRatio="xMidYMid meet" version="1.0"><defs><clipPath id="dd22def539"><path d="M 98.976562 103.460938 L 275.976562 103.460938 L 275.976562 280.460938 L 98.976562 280.460938 Z M 98.976562 103.460938 " clip-rule="nonzero"/></clipPath></defs><g clip-path="url(#dd22def539)"><path fill="#de0f3f" d="M 276.011719 191.980469 C 276.011719 193.429688 275.976562 194.875 275.90625 196.324219 C 275.835938 197.769531 275.730469 199.214844 275.585938 200.65625 C 275.445312 202.097656 275.269531 203.535156 275.054688 204.96875 C 274.84375 206.402344 274.59375 207.828125 274.3125 209.25 C 274.03125 210.671875 273.710938 212.082031 273.359375 213.488281 C 273.007812 214.894531 272.621094 216.289062 272.203125 217.675781 C 271.78125 219.0625 271.328125 220.4375 270.839844 221.800781 C 270.351562 223.164062 269.828125 224.515625 269.277344 225.855469 C 268.722656 227.191406 268.132812 228.515625 267.515625 229.828125 C 266.894531 231.136719 266.246094 232.429688 265.5625 233.707031 C 264.878906 234.984375 264.164062 236.246094 263.421875 237.488281 C 262.675781 238.730469 261.902344 239.953125 261.09375 241.15625 C 260.289062 242.363281 259.457031 243.546875 258.59375 244.710938 C 257.730469 245.875 256.839844 247.015625 255.921875 248.136719 C 255 249.253906 254.054688 250.351562 253.082031 251.425781 C 252.109375 252.5 251.113281 253.546875 250.085938 254.570312 C 249.0625 255.597656 248.015625 256.59375 246.941406 257.566406 C 245.867188 258.539062 244.769531 259.484375 243.652344 260.40625 C 242.53125 261.324219 241.390625 262.214844 240.226562 263.078125 C 239.0625 263.941406 237.878906 264.773438 236.671875 265.578125 C 235.46875 266.386719 234.246094 267.160156 233.003906 267.90625 C 231.761719 268.648438 230.5 269.363281 229.222656 270.046875 C 227.945312 270.730469 226.652344 271.378906 225.34375 272 C 224.03125 272.617188 222.707031 273.207031 221.371094 273.761719 C 220.03125 274.3125 218.679688 274.835938 217.316406 275.324219 C 215.953125 275.8125 214.578125 276.265625 213.191406 276.6875 C 211.804688 277.105469 210.410156 277.492188 209.003906 277.84375 C 207.597656 278.195312 206.1875 278.515625 204.765625 278.796875 C 203.34375 279.078125 201.917969 279.328125 200.484375 279.539062 C 199.050781 279.753906 197.613281 279.929688 196.171875 280.070312 C 194.730469 280.214844 193.285156 280.320312 191.839844 280.390625 C 190.390625 280.460938 188.945312 280.496094 187.496094 280.496094 C 186.046875 280.496094 184.597656 280.460938 183.152344 280.390625 C 181.707031 280.320312 180.261719 280.214844 178.820312 280.070312 C 177.378906 279.929688 175.941406 279.753906 174.507812 279.539062 C 173.074219 279.328125 171.648438 279.078125 170.226562 278.796875 C 168.804688 278.515625 167.394531 278.195312 165.988281 277.84375 C 164.582031 277.492188 163.1875 277.105469 161.800781 276.6875 C 160.414062 276.265625 159.039062 275.8125 157.675781 275.324219 C 156.3125 274.835938 154.960938 274.3125 153.621094 273.761719 C 152.285156 273.207031 150.960938 272.617188 149.648438 272 C 148.339844 271.378906 147.046875 270.730469 145.769531 270.046875 C 144.492188 269.363281 143.230469 268.648438 141.988281 267.90625 C 140.746094 267.160156 139.523438 266.386719 138.316406 265.578125 C 137.113281 264.773438 135.929688 263.941406 134.765625 263.078125 C 133.601562 262.214844 132.460938 261.324219 131.339844 260.40625 C 130.222656 259.484375 129.125 258.539062 128.050781 257.566406 C 126.976562 256.59375 125.929688 255.597656 124.90625 254.570312 C 123.878906 253.546875 122.882812 252.5 121.910156 251.425781 C 120.9375 250.351562 119.988281 249.253906 119.070312 248.136719 C 118.152344 247.015625 117.261719 245.875 116.398438 244.710938 C 115.535156 243.546875 114.699219 242.363281 113.894531 241.15625 C 113.089844 239.953125 112.316406 238.730469 111.570312 237.488281 C 110.828125 236.246094 110.113281 234.984375 109.429688 233.707031 C 108.746094 232.429688 108.097656 231.136719 107.476562 229.828125 C 106.859375 228.515625 106.269531 227.191406 105.714844 225.855469 C 105.160156 224.515625 104.640625 223.164062 104.152344 221.800781 C 103.664062 220.4375 103.210938 219.0625 102.789062 217.675781 C 102.371094 216.289062 101.984375 214.894531 101.632812 213.488281 C 101.277344 212.082031 100.960938 210.671875 100.679688 209.25 C 100.398438 207.828125 100.148438 206.402344 99.9375 204.96875 C 99.722656 203.535156 99.546875 202.097656 99.40625 200.65625 C 99.261719 199.214844 99.15625 197.769531 99.085938 196.324219 C 99.015625 194.875 98.976562 193.429688 98.976562 191.980469 C 98.976562 190.53125 99.015625 189.082031 99.085938 187.636719 C 99.15625 186.191406 99.261719 184.746094 99.40625 183.304688 C 99.546875 181.863281 99.722656 180.425781 99.9375 178.992188 C 100.148438 177.558594 100.398438 176.132812 100.679688 174.710938 C 100.960938 173.289062 101.277344 171.878906 101.632812 170.472656 C 101.984375 169.066406 102.371094 167.671875 102.789062 166.285156 C 103.210938 164.898438 103.664062 163.523438 104.152344 162.160156 C 104.640625 160.796875 105.160156 159.445312 105.714844 158.105469 C 106.269531 156.769531 106.859375 155.445312 107.476562 154.132812 C 108.097656 152.824219 108.746094 151.53125 109.429688 150.253906 C 110.113281 148.976562 110.828125 147.714844 111.570312 146.472656 C 112.316406 145.230469 113.089844 144.007812 113.894531 142.800781 C 114.699219 141.597656 115.535156 140.414062 116.398438 139.25 C 117.261719 138.085938 118.152344 136.945312 119.070312 135.824219 C 119.988281 134.707031 120.9375 133.609375 121.910156 132.535156 C 122.882812 131.460938 123.878906 130.414062 124.90625 129.390625 C 125.929688 128.363281 126.976562 127.367188 128.050781 126.394531 C 129.125 125.421875 130.222656 124.472656 131.339844 123.554688 C 132.460938 122.636719 133.601562 121.746094 134.765625 120.882812 C 135.929688 120.019531 137.113281 119.183594 138.316406 118.378906 C 139.523438 117.574219 140.746094 116.800781 141.988281 116.054688 C 143.230469 115.3125 144.492188 114.597656 145.769531 113.914062 C 147.046875 113.230469 148.339844 112.582031 149.648438 111.960938 C 150.960938 111.34375 152.285156 110.753906 153.621094 110.199219 C 154.960938 109.644531 156.3125 109.125 157.675781 108.636719 C 159.039062 108.148438 160.414062 107.695312 161.800781 107.273438 C 163.1875 106.855469 164.582031 106.46875 165.988281 106.117188 C 167.394531 105.761719 168.804688 105.445312 170.226562 105.164062 C 171.648438 104.882812 173.074219 104.632812 174.507812 104.421875 C 175.941406 104.207031 177.378906 104.03125 178.820312 103.890625 C 180.261719 103.746094 181.707031 103.640625 183.152344 103.570312 C 184.597656 103.5 186.046875 103.460938 187.496094 103.460938 C 188.945312 103.460938 190.390625 103.5 191.839844 103.570312 C 193.285156 103.640625 194.730469 103.746094 196.171875 103.890625 C 197.613281 104.03125 199.050781 104.207031 200.484375 104.421875 C 201.917969 104.632812 203.34375 104.882812 204.765625 105.164062 C 206.1875 105.445312 207.597656 105.761719 209.003906 106.117188 C 210.410156 106.46875 211.804688 106.855469 213.191406 107.273438 C 214.578125 107.695312 215.953125 108.148438 217.316406 108.636719 C 218.679688 109.125 220.03125 109.644531 221.371094 110.199219 C 222.707031 110.753906 224.03125 111.34375 225.34375 111.960938 C 226.652344 112.582031 227.945312 113.230469 229.222656 113.914062 C 230.5 114.597656 231.761719 115.3125 233.003906 116.054688 C 234.246094 116.800781 235.46875 117.574219 236.671875 118.378906 C 237.878906 119.183594 239.0625 120.019531 240.226562 120.882812 C 241.390625 121.746094 242.53125 122.636719 243.652344 123.554688 C 244.769531 124.472656 245.867188 125.421875 246.941406 126.394531 C 248.015625 127.367188 249.0625 128.363281 250.085938 129.390625 C 251.113281 130.414062 252.109375 131.460938 253.082031 132.535156 C 254.054688 133.609375 255 134.707031 255.921875 135.824219 C 256.839844 136.945312 257.730469 138.085938 258.59375 139.25 C 259.457031 140.414062 260.289062 141.597656 261.09375 142.800781 C 261.902344 144.007812 262.675781 145.230469 263.421875 146.472656 C 264.164062 147.714844 264.878906 148.976562 265.5625 150.253906 C 266.246094 151.53125 266.894531 152.824219 267.515625 154.132812 C 268.132812 155.445312 268.722656 156.769531 269.277344 158.105469 C 269.828125 159.445312 270.351562 160.796875 270.839844 162.160156 C 271.328125 163.523438 271.78125 164.898438 272.203125 166.285156 C 272.621094 167.671875 273.007812 169.066406 273.359375 170.472656 C 273.710938 171.878906 274.03125 173.289062 274.3125 174.710938 C 274.59375 176.132812 274.84375 177.558594 275.054688 178.992188 C 275.269531 180.425781 275.445312 181.863281 275.585938 183.304688 C 275.730469 184.746094 275.835938 186.191406 275.90625 187.636719 C 275.976562 189.082031 276.011719 190.53125 276.011719 191.980469 Z M 276.011719 191.980469 " fill-opacity="1" fill-rule="nonzero"/></g></svg>