<svg xmlns="http://www.w3.org/2000/svg" xmlns:xlink="http://www.w3.org/1999/xlink" width="500" zoomAndPan="magnify" viewBox="0 0 375 374.999991" height="500" preserveAspectRatio="xMidYMid meet" version="1.0"><defs><clipPath id="7b55e400c3"><path d="M 98.976562 0 L 275.976562 0 L 275.976562 177 L 98.976562 177 Z M 98.976562 0 " clip-rule="nonzero"/></clipPath><clipPath id="8baef9b5a5"><path d="M 0 197.957031 L 177 197.957031 L 177 374.957031 L 0 374.957031 Z M 0 197.957031 " clip-rule="nonzero"/></clipPath><clipPath id="fbbdb2ad92"><path d="M 197.957031 197.957031 L 374.957031 197.957031 L 374.957031 374.957031 L 197.957031 374.957031 Z M 197.957031 197.957031 " clip-rule="nonzero"/></clipPath></defs><g clip-path="url(#7b55e400c3)"><path fill="#de0f3f" d="M 276.011719 88.515625 C 276.011719 89.964844 275.976562 91.414062 275.90625 92.859375 C 275.835938 94.308594 275.730469 95.753906 275.585938 97.195312 C 275.445312 98.636719 275.269531 100.074219 275.054688 101.503906 C 274.84375 102.9375 274.59375 104.367188 274.3125 105.785156 C 274.03125 107.207031 273.710938 108.621094 273.359375 110.027344 C 273.007812 111.429688 272.621094 112.828125 272.203125 114.210938 C 271.78125 115.597656 271.328125 116.972656 270.839844 118.339844 C 270.351562 119.703125 269.828125 121.054688 269.277344 122.390625 C 268.722656 123.730469 268.132812 125.054688 267.515625 126.363281 C 266.894531 127.671875 266.246094 128.96875 265.5625 130.246094 C 264.878906 131.523438 264.164062 132.78125 263.421875 134.023438 C 262.675781 135.265625 261.902344 136.492188 261.09375 137.695312 C 260.289062 138.898438 259.457031 140.082031 258.59375 141.246094 C 257.730469 142.410156 256.839844 143.550781 255.921875 144.671875 C 255 145.792969 254.054688 146.890625 253.082031 147.960938 C 252.109375 149.035156 251.113281 150.085938 250.085938 151.109375 C 249.0625 152.132812 248.015625 153.132812 246.941406 154.105469 C 245.867188 155.078125 244.769531 156.023438 243.652344 156.941406 C 242.53125 157.863281 241.390625 158.753906 240.226562 159.617188 C 239.0625 160.476562 237.878906 161.3125 236.671875 162.117188 C 235.46875 162.921875 234.246094 163.695312 233.003906 164.441406 C 231.761719 165.1875 230.5 165.898438 229.222656 166.582031 C 227.945312 167.265625 226.652344 167.917969 225.34375 168.535156 C 224.03125 169.15625 222.707031 169.742188 221.371094 170.296875 C 220.03125 170.851562 218.679688 171.371094 217.316406 171.859375 C 215.953125 172.347656 214.578125 172.804688 213.191406 173.222656 C 211.804688 173.644531 210.410156 174.03125 209.003906 174.382812 C 207.597656 174.734375 206.1875 175.050781 204.765625 175.335938 C 203.34375 175.617188 201.917969 175.863281 200.484375 176.078125 C 199.050781 176.289062 197.613281 176.46875 196.171875 176.609375 C 194.730469 176.75 193.285156 176.859375 191.839844 176.929688 C 190.390625 177 188.945312 177.035156 187.496094 177.035156 C 186.046875 177.035156 184.597656 177 183.152344 176.929688 C 181.707031 176.859375 180.261719 176.75 178.820312 176.609375 C 177.378906 176.46875 175.941406 176.289062 174.507812 176.078125 C 173.074219 175.863281 171.648438 175.617188 170.226562 175.335938 C 168.804688 175.050781 167.394531 174.734375 165.988281 174.382812 C 164.582031 174.03125 163.1875 173.644531 161.800781 173.222656 C 160.414062 172.804688 159.039062 172.347656 157.675781 171.859375 C 156.3125 171.371094 154.960938 170.851562 153.621094 170.296875 C 152.285156 169.742188 150.960938 169.15625 149.648438 168.535156 C 148.339844 167.917969 147.046875 167.265625 145.769531 166.582031 C 144.492188 165.898438 143.230469 165.1875 141.988281 164.441406 C 140.746094 163.695312 139.523438 162.921875 138.316406 162.117188 C 137.113281 161.3125 135.929688 160.476562 134.765625 159.617188 C 133.601562 158.753906 132.460938 157.863281 131.339844 156.941406 C 130.222656 156.023438 129.125 155.078125 128.050781 154.105469 C 126.976562 153.132812 125.929688 152.132812 124.90625 151.109375 C 123.878906 150.085938 122.882812 149.035156 121.910156 147.960938 C 120.9375 146.890625 119.988281 145.792969 119.070312 144.671875 C 118.152344 143.550781 117.261719 142.410156 116.398438 141.246094 C 115.535156 140.082031 114.699219 138.898438 113.894531 137.695312 C 113.089844 136.492188 112.316406 135.265625 111.570312 134.023438 C 110.828125 132.78125 110.113281 131.523438 109.429688 130.246094 C 108.746094 128.96875 108.097656 127.671875 107.476562 126.363281 C 106.859375 125.054688 106.269531 123.730469 105.714844 122.390625 C 105.160156 121.054688 104.640625 119.703125 104.152344 118.339844 C 103.664062 116.972656 103.210938 115.597656 102.789062 114.210938 C 102.371094 112.828125 101.984375 111.429688 101.632812 110.027344 C 101.277344 108.621094 100.960938 107.207031 100.679688 105.785156 C 100.398438 104.367188 100.148438 102.9375 99.9375 101.503906 C 99.722656 100.074219 99.546875 98.636719 99.40625 97.195312 C 99.261719 95.753906 99.15625 94.308594 99.085938 92.859375 C 99.015625 91.414062 98.976562 89.964844 98.976562 88.515625 C 98.976562 87.070312 99.015625 85.621094 99.085938 84.175781 C 99.15625 82.726562 99.261719 81.28125 99.40625 79.839844 C 99.546875 78.398438 99.722656 76.960938 99.9375 75.53125 C 100.148438 74.097656 100.398438 72.667969 100.679688 71.25 C 100.960938 69.828125 101.277344 68.414062 101.632812 67.007812 C 101.984375 65.605469 102.371094 64.207031 102.789062 62.824219 C 103.210938 61.4375 103.664062 60.0625 104.152344 58.695312 C 104.640625 57.332031 105.160156 55.980469 105.714844 54.644531 C 106.269531 53.304688 106.859375 51.980469 107.476562 50.671875 C 108.097656 49.363281 108.746094 48.066406 109.429688 46.789062 C 110.113281 45.511719 110.828125 44.253906 111.570312 43.011719 C 112.316406 41.769531 113.089844 40.542969 113.894531 39.339844 C 114.699219 38.136719 115.535156 36.953125 116.398438 35.789062 C 117.261719 34.625 118.152344 33.484375 119.070312 32.363281 C 119.988281 31.242188 120.9375 30.144531 121.910156 29.074219 C 122.882812 28 123.878906 26.949219 124.90625 25.925781 C 125.929688 24.902344 126.976562 23.902344 128.050781 22.929688 C 129.125 21.957031 130.222656 21.011719 131.339844 20.09375 C 132.460938 19.171875 133.601562 18.28125 134.765625 17.417969 C 135.929688 16.554688 137.113281 15.722656 138.316406 14.917969 C 139.523438 14.113281 140.746094 13.339844 141.988281 12.59375 C 143.230469 11.847656 144.492188 11.136719 145.769531 10.453125 C 147.046875 9.769531 148.339844 9.117188 149.648438 8.5 C 150.960938 7.878906 152.285156 7.292969 153.621094 6.738281 C 154.960938 6.183594 156.3125 5.664062 157.675781 5.175781 C 159.039062 4.6875 160.414062 4.230469 161.800781 3.8125 C 163.1875 3.390625 164.582031 3.003906 165.988281 2.652344 C 167.394531 2.300781 168.804688 1.984375 170.226562 1.699219 C 171.648438 1.417969 173.074219 1.171875 174.507812 0.957031 C 175.941406 0.746094 177.378906 0.566406 178.820312 0.425781 C 180.261719 0.285156 181.707031 0.175781 183.152344 0.105469 C 184.597656 0.0351562 186.046875 0 187.496094 0 C 188.945312 0 190.390625 0.0351562 191.839844 0.105469 C 193.285156 0.175781 194.730469 0.285156 196.171875 0.425781 C 197.613281 0.566406 199.050781 0.746094 200.484375 0.957031 C 201.917969 1.171875 203.34375 1.417969 204.765625 1.699219 C 206.1875 1.984375 207.597656 2.300781 209.003906 2.652344 C 210.410156 3.003906 211.804688 3.390625 213.191406 3.8125 C 214.578125 4.230469 215.953125 4.6875 217.316406 5.175781 C 218.679688 5.664062 220.03125 6.183594 221.371094 6.738281 C 222.707031 7.292969 224.03125 7.878906 225.34375 8.5 C 226.652344 9.117188 227.945312 9.769531 229.222656 10.453125 C 230.5 11.136719 231.761719 11.847656 233.003906 12.59375 C 234.246094 13.339844 235.46875 14.113281 236.671875 14.917969 C 237.878906 15.722656 239.0625 16.554688 240.226562 17.417969 C 241.390625 18.28125 242.53125 19.171875 243.652344 20.09375 C 244.769531 21.011719 245.867188 21.957031 246.941406 22.929688 C 248.015625 23.902344 249.0625 24.902344 250.085938 25.925781 C 251.113281 26.949219 252.109375 28 253.082031 29.074219 C 254.054688 30.144531 255 31.242188 255.921875 32.363281 C 256.839844 33.484375 257.730469 34.625 258.59375 35.789062 C 259.457031 36.953125 260.289062 38.136719 261.09375 39.339844 C 261.902344 40.542969 262.675781 41.769531 263.421875 43.011719 C 264.164062 44.253906 264.878906 45.511719 265.5625 46.789062 C 266.246094 48.066406 266.894531 49.363281 267.515625 50.671875 C 268.132812 51.980469 268.722656 53.304688 269.277344 54.644531 C 269.828125 55.980469 270.351562 57.332031 270.839844 58.695312 C 271.328125 60.0625 271.78125 61.4375 272.203125 62.824219 C 272.621094 64.207031 273.007812 65.605469 273.359375 67.007812 C 273.710938 68.414062 274.03125 69.828125 274.3125 71.25 C 274.59375 72.667969 274.84375 74.097656 275.054688 75.53125 C 275.269531 76.960938 275.445312 78.398438 275.585938 79.839844 C 275.730469 81.28125 275.835938 82.726562 275.90625 84.175781 C 275.976562 85.621094 276.011719 87.070312 276.011719 88.515625 Z M 276.011719 88.515625 " fill-opacity="1" fill-rule="nonzero"/></g><g clip-path="url(#8baef9b5a5)"><path fill="#de0f3f" d="M 177.035156 286.472656 C 177.035156 287.921875 177 289.371094 176.929688 290.816406 C 176.859375 292.265625 176.75 293.707031 176.609375 295.152344 C 176.46875 296.59375 176.289062 298.03125 176.078125 299.460938 C 175.863281 300.894531 175.617188 302.324219 175.335938 303.742188 C 175.050781 305.164062 174.734375 306.578125 174.382812 307.980469 C 174.03125 309.386719 173.644531 310.785156 173.222656 312.167969 C 172.804688 313.554688 172.347656 314.929688 171.859375 316.296875 C 171.371094 317.660156 170.851562 319.011719 170.296875 320.347656 C 169.742188 321.6875 169.15625 323.011719 168.535156 324.320312 C 167.917969 325.628906 167.265625 326.921875 166.582031 328.203125 C 165.898438 329.480469 165.1875 330.738281 164.441406 331.980469 C 163.695312 333.222656 162.921875 334.449219 162.117188 335.652344 C 161.3125 336.855469 160.476562 338.039062 159.617188 339.203125 C 158.753906 340.367188 157.863281 341.507812 156.941406 342.628906 C 156.023438 343.75 155.078125 344.84375 154.105469 345.917969 C 153.132812 346.992188 152.132812 348.042969 151.109375 349.066406 C 150.085938 350.089844 149.035156 351.089844 147.960938 352.0625 C 146.890625 353.035156 145.792969 353.980469 144.671875 354.898438 C 143.550781 355.816406 142.410156 356.710938 141.246094 357.574219 C 140.082031 358.433594 138.898438 359.269531 137.695312 360.074219 C 136.492188 360.878906 135.265625 361.652344 134.023438 362.398438 C 132.78125 363.144531 131.523438 363.855469 130.246094 364.539062 C 128.96875 365.222656 127.671875 365.875 126.363281 366.492188 C 125.054688 367.113281 123.730469 367.699219 122.390625 368.253906 C 121.054688 368.808594 119.703125 369.328125 118.339844 369.816406 C 116.972656 370.304688 115.597656 370.761719 114.210938 371.179688 C 112.828125 371.601562 111.429688 371.988281 110.027344 372.339844 C 108.621094 372.691406 107.207031 373.007812 105.785156 373.292969 C 104.367188 373.574219 102.9375 373.820312 101.503906 374.035156 C 100.074219 374.246094 98.636719 374.421875 97.195312 374.566406 C 95.753906 374.707031 94.308594 374.8125 92.859375 374.886719 C 91.414062 374.957031 89.964844 374.992188 88.519531 374.992188 C 87.070312 374.992188 85.621094 374.957031 84.175781 374.886719 C 82.726562 374.8125 81.28125 374.707031 79.839844 374.566406 C 78.398438 374.421875 76.960938 374.246094 75.53125 374.035156 C 74.097656 373.820312 72.667969 373.574219 71.25 373.292969 C 69.828125 373.007812 68.414062 372.691406 67.007812 372.339844 C 65.605469 371.988281 64.207031 371.601562 62.824219 371.179688 C 61.4375 370.761719 60.0625 370.304688 58.695312 369.816406 C 57.332031 369.328125 55.980469 368.808594 54.644531 368.253906 C 53.304688 367.699219 51.980469 367.113281 50.671875 366.492188 C 49.363281 365.875 48.066406 365.222656 46.789062 364.539062 C 45.511719 363.855469 44.253906 363.144531 43.011719 362.398438 C 41.769531 361.652344 40.542969 360.878906 39.339844 360.074219 C 38.136719 359.269531 36.953125 358.433594 35.789062 357.574219 C 34.625 356.710938 33.484375 355.816406 32.363281 354.898438 C 31.242188 353.980469 30.144531 353.035156 29.074219 352.0625 C 28 351.089844 26.949219 350.089844 25.925781 349.066406 C 24.902344 348.042969 23.902344 346.992188 22.929688 345.917969 C 21.957031 344.84375 21.011719 343.75 20.09375 342.628906 C 19.171875 341.507812 18.28125 340.367188 17.417969 339.203125 C 16.554688 338.039062 15.722656 336.855469 14.917969 335.652344 C 14.113281 334.449219 13.339844 333.222656 12.59375 331.980469 C 11.847656 330.738281 11.136719 329.480469 10.453125 328.203125 C 9.769531 326.921875 9.117188 325.628906 8.5 324.320312 C 7.878906 323.011719 7.292969 321.6875 6.738281 320.347656 C 6.183594 319.011719 5.664062 317.660156 5.175781 316.296875 C 4.6875 314.929688 4.230469 313.554688 3.8125 312.167969 C 3.390625 310.785156 3.003906 309.386719 2.652344 307.980469 C 2.300781 306.578125 1.984375 305.164062 1.699219 303.742188 C 1.417969 302.324219 1.171875 300.894531 0.957031 299.460938 C 0.746094 298.03125 0.566406 296.59375 0.425781 295.152344 C 0.285156 293.707031 0.175781 292.265625 0.105469 290.816406 C 0.0351562 289.371094 0 287.921875 0 286.472656 C 0 285.027344 0.0351562 283.578125 0.105469 282.132812 C 0.175781 280.683594 0.285156 279.238281 0.425781 277.796875 C 0.566406 276.355469 0.746094 274.917969 0.957031 273.484375 C 1.171875 272.054688 1.417969 270.625 1.699219 269.207031 C 1.984375 267.785156 2.300781 266.371094 2.652344 264.964844 C 3.003906 263.5625 3.390625 262.164062 3.8125 260.777344 C 4.230469 259.394531 4.6875 258.019531 5.175781 256.652344 C 5.664062 255.289062 6.183594 253.9375 6.738281 252.601562 C 7.292969 251.261719 7.878906 249.9375 8.5 248.628906 C 9.117188 247.320312 9.769531 246.023438 10.453125 244.746094 C 11.136719 243.46875 11.847656 242.210938 12.59375 240.96875 C 13.339844 239.726562 14.113281 238.5 14.917969 237.296875 C 15.722656 236.09375 16.554688 234.90625 17.417969 233.746094 C 18.28125 232.582031 19.171875 231.4375 20.09375 230.320312 C 21.011719 229.199219 21.957031 228.101562 22.929688 227.03125 C 23.902344 225.957031 24.902344 224.90625 25.925781 223.882812 C 26.949219 222.859375 28 221.859375 29.074219 220.886719 C 30.144531 219.914062 31.242188 218.96875 32.363281 218.050781 C 33.484375 217.128906 34.625 216.238281 35.789062 215.375 C 36.953125 214.511719 38.136719 213.679688 39.339844 212.875 C 40.542969 212.070312 41.769531 211.296875 43.011719 210.550781 C 44.253906 209.804688 45.511719 209.089844 46.789062 208.410156 C 48.066406 207.726562 49.363281 207.074219 50.671875 206.457031 C 51.980469 205.835938 53.304688 205.25 54.644531 204.695312 C 55.980469 204.140625 57.332031 203.621094 58.695312 203.132812 C 60.0625 202.644531 61.4375 202.1875 62.824219 201.769531 C 64.207031 201.347656 65.605469 200.960938 67.007812 200.609375 C 68.414062 200.257812 69.828125 199.941406 71.25 199.65625 C 72.667969 199.375 74.097656 199.128906 75.53125 198.914062 C 76.960938 198.703125 78.398438 198.523438 79.839844 198.382812 C 81.28125 198.242188 82.726562 198.132812 84.175781 198.0625 C 85.621094 197.992188 87.070312 197.957031 88.519531 197.957031 C 89.964844 197.957031 91.414062 197.992188 92.859375 198.0625 C 94.308594 198.132812 95.753906 198.242188 97.195312 198.382812 C 98.636719 198.523438 100.074219 198.703125 101.503906 198.914062 C 102.9375 199.128906 104.367188 199.375 105.785156 199.65625 C 107.207031 199.941406 108.621094 200.257812 110.027344 200.609375 C 111.429688 200.960938 112.828125 201.347656 114.210938 201.769531 C 115.597656 202.1875 116.972656 202.644531 118.339844 203.132812 C 119.703125 203.621094 121.054688 204.140625 122.390625 204.695312 C 123.730469 205.25 125.054688 205.835938 126.363281 206.457031 C 127.671875 207.074219 128.96875 207.726562 130.246094 208.410156 C 131.523438 209.089844 132.78125 209.804688 134.023438 210.550781 C 135.265625 211.296875 136.492188 212.070312 137.695312 212.875 C 138.898438 213.679688 140.082031 214.511719 141.246094 215.375 C 142.410156 216.238281 143.550781 217.128906 144.671875 218.050781 C 145.792969 218.96875 146.890625 219.914062 147.960938 220.886719 C 149.035156 221.859375 150.085938 222.859375 151.109375 223.882812 C 152.132812 224.90625 153.132812 225.957031 154.105469 227.03125 C 155.078125 228.101562 156.023438 229.199219 156.941406 230.320312 C 157.863281 231.4375 158.753906 232.582031 159.617188 233.746094 C 160.476562 234.90625 161.3125 236.09375 162.117188 237.296875 C 162.921875 238.5 163.695312 239.726562 164.441406 240.96875 C 165.1875 242.210938 165.898438 243.46875 166.582031 244.746094 C 167.265625 246.023438 167.917969 247.320312 168.535156 248.628906 C 169.15625 249.9375 169.742188 251.261719 170.296875 252.601562 C 170.851562 253.9375 171.371094 255.289062 171.859375 256.652344 C 172.347656 258.019531 172.804688 259.394531 173.222656 260.777344 C 173.644531 262.164062 174.03125 263.5625 174.382812 264.964844 C 174.734375 266.371094 175.050781 267.785156 175.335938 269.207031 C 175.617188 270.625 175.863281 272.054688 176.078125 273.484375 C 176.289062 274.917969 176.46875 276.355469 176.609375 277.796875 C 176.75 279.238281 176.859375 280.683594 176.929688 282.132812 C 177 283.578125 177.035156 285.027344 177.035156 286.472656 Z M 177.035156 286.472656 " fill-opacity="1" fill-rule="nonzero"/></g><g clip-path="url(#fbbdb2ad92)"><path fill="#de0f3f" d="M 374.992188 286.472656 C 374.992188 287.921875 374.957031 289.371094 374.886719 290.816406 C 374.8125 292.265625 374.707031 293.707031 374.566406 295.152344 C 374.421875 296.59375 374.246094 298.03125 374.035156 299.460938 C 373.820312 300.894531 373.574219 302.324219 373.292969 303.742188 C 373.007812 305.164062 372.691406 306.578125 372.339844 307.980469 C 371.988281 309.386719 371.601562 310.785156 371.179688 312.167969 C 370.761719 313.554688 370.304688 314.929688 369.816406 316.296875 C 369.328125 317.660156 368.808594 319.011719 368.253906 320.347656 C 367.699219 321.6875 367.113281 323.011719 366.492188 324.320312 C 365.875 325.628906 365.222656 326.921875 364.539062 328.203125 C 363.855469 329.480469 363.144531 330.738281 362.398438 331.980469 C 361.652344 333.222656 360.878906 334.449219 360.074219 335.652344 C 359.269531 336.855469 358.433594 338.039062 357.574219 339.203125 C 356.710938 340.367188 355.820312 341.507812 354.898438 342.628906 C 353.980469 343.75 353.035156 344.84375 352.0625 345.917969 C 351.089844 346.992188 350.089844 348.042969 349.066406 349.066406 C 348.042969 350.089844 346.992188 351.089844 345.917969 352.0625 C 344.847656 353.035156 343.75 353.980469 342.628906 354.898438 C 341.507812 355.816406 340.367188 356.710938 339.203125 357.574219 C 338.039062 358.433594 336.855469 359.269531 335.652344 360.074219 C 334.449219 360.878906 333.222656 361.652344 331.980469 362.398438 C 330.738281 363.144531 329.480469 363.855469 328.203125 364.539062 C 326.921875 365.222656 325.628906 365.875 324.320312 366.492188 C 323.011719 367.113281 321.6875 367.699219 320.347656 368.253906 C 319.011719 368.808594 317.660156 369.328125 316.296875 369.816406 C 314.929688 370.304688 313.554688 370.761719 312.167969 371.179688 C 310.785156 371.601562 309.386719 371.988281 307.980469 372.339844 C 306.578125 372.691406 305.164062 373.007812 303.742188 373.292969 C 302.324219 373.574219 300.894531 373.820312 299.460938 374.035156 C 298.03125 374.246094 296.59375 374.421875 295.152344 374.566406 C 293.707031 374.707031 292.265625 374.8125 290.816406 374.886719 C 289.371094 374.957031 287.921875 374.992188 286.472656 374.992188 C 285.027344 374.992188 283.578125 374.957031 282.132812 374.886719 C 280.683594 374.8125 279.238281 374.707031 277.796875 374.566406 C 276.355469 374.421875 274.917969 374.246094 273.484375 374.035156 C 272.054688 373.820312 270.625 373.574219 269.207031 373.292969 C 267.785156 373.007812 266.371094 372.691406 264.964844 372.339844 C 263.5625 371.988281 262.164062 371.601562 260.777344 371.179688 C 259.394531 370.761719 258.019531 370.304688 256.652344 369.816406 C 255.289062 369.328125 253.9375 368.808594 252.601562 368.253906 C 251.261719 367.699219 249.9375 367.113281 248.628906 366.492188 C 247.320312 365.875 246.023438 365.222656 244.746094 364.539062 C 243.46875 363.855469 242.210938 363.144531 240.96875 362.398438 C 239.726562 361.652344 238.5 360.878906 237.296875 360.074219 C 236.09375 359.269531 234.90625 358.433594 233.746094 357.574219 C 232.582031 356.710938 231.4375 355.816406 230.320312 354.898438 C 229.199219 353.980469 228.101562 353.035156 227.03125 352.0625 C 225.957031 351.089844 224.90625 350.089844 223.882812 349.066406 C 222.859375 348.042969 221.859375 346.992188 220.886719 345.917969 C 219.914062 344.84375 218.96875 343.75 218.050781 342.628906 C 217.128906 341.507812 216.238281 340.367188 215.375 339.203125 C 214.511719 338.039062 213.679688 336.855469 212.875 335.652344 C 212.070312 334.449219 211.296875 333.222656 210.550781 331.980469 C 209.804688 330.738281 209.089844 329.480469 208.410156 328.203125 C 207.726562 326.921875 207.074219 325.628906 206.457031 324.320312 C 205.835938 323.011719 205.25 321.6875 204.695312 320.347656 C 204.140625 319.011719 203.621094 317.660156 203.132812 316.296875 C 202.644531 314.929688 202.1875 313.554688 201.769531 312.167969 C 201.347656 310.785156 200.960938 309.386719 200.609375 307.980469 C 200.257812 306.578125 199.941406 305.164062 199.65625 303.742188 C 199.375 302.324219 199.128906 300.894531 198.914062 299.460938 C 198.703125 298.03125 198.523438 296.59375 198.382812 295.152344 C 198.242188 293.707031 198.132812 292.265625 198.0625 290.816406 C 197.992188 289.371094 197.957031 287.921875 197.957031 286.472656 C 197.957031 285.027344 197.992188 283.578125 198.0625 282.132812 C 198.132812 280.683594 198.242188 279.238281 198.382812 277.796875 C 198.523438 276.355469 198.703125 274.917969 198.914062 273.484375 C 199.128906 272.054688 199.375 270.625 199.65625 269.207031 C 199.941406 267.785156 200.257812 266.371094 200.609375 264.964844 C 200.960938 263.5625 201.347656 262.164062 201.769531 260.777344 C 202.1875 259.394531 202.644531 258.019531 203.132812 256.652344 C 203.621094 255.289062 204.140625 253.9375 204.695312 252.601562 C 205.25 251.261719 205.835938 249.9375 206.457031 248.628906 C 207.074219 247.320312 207.726562 246.023438 208.410156 244.746094 C 209.089844 243.46875 209.804688 242.210938 210.550781 240.96875 C 211.296875 239.726562 212.070312 238.5 212.875 237.296875 C 213.679688 236.09375 214.511719 234.90625 215.375 233.746094 C 216.238281 232.582031 217.128906 231.4375 218.050781 230.320312 C 218.96875 229.199219 219.914062 228.101562 220.886719 227.03125 C 221.859375 225.957031 222.859375 224.90625 223.882812 223.882812 C 224.90625 222.859375 225.957031 221.859375 227.03125 220.886719 C 228.101562 219.914062 229.199219 218.96875 230.320312 218.050781 C 231.4375 217.128906 232.582031 216.238281 233.746094 215.375 C 234.90625 214.511719 236.09375 213.679688 237.296875 212.875 C 238.5 212.070312 239.726562 211.296875 240.96875 210.550781 C 242.210938 209.804688 243.46875 209.089844 244.746094 208.410156 C 246.023438 207.726562 247.320312 207.074219 248.628906 206.457031 C 249.9375 205.835938 251.261719 205.25 252.601562 204.695312 C 253.9375 204.140625 255.289062 203.621094 256.652344 203.132812 C 258.019531 202.644531 259.394531 202.1875 260.777344 201.769531 C 262.164062 201.347656 263.5625 200.960938 264.964844 200.609375 C 266.371094 200.257812 267.785156 199.941406 269.207031 199.65625 C 270.625 199.375 272.054688 199.128906 273.484375 198.914062 C 274.917969 198.703125 276.355469 198.523438 277.796875 198.382812 C 279.238281 198.242188 280.683594 198.132812 282.132812 198.0625 C 283.578125 197.992188 285.027344 197.957031 286.472656 197.957031 C 287.921875 197.957031 289.371094 197.992188 290.816406 198.0625 C 292.265625 198.132812 293.707031 198.242188 295.152344 198.382812 C 296.59375 198.523438 298.03125 198.703125 299.460938 198.914062 C 300.894531 199.128906 302.324219 199.375 303.742188 199.65625 C 305.164062 199.941406 306.578125 200.257812 307.980469 200.609375 C 309.386719 200.960938 310.785156 201.347656 312.167969 201.769531 C 313.554688 202.1875 314.929688 202.644531 316.296875 203.132812 C 317.660156 203.621094 319.011719 204.140625 320.347656 204.695312 C 321.6875 205.25 323.011719 205.835938 324.320312 206.457031 C 325.628906 207.074219 326.921875 207.726562 328.203125 208.410156 C 329.480469 209.089844 330.738281 209.804688 331.980469 210.550781 C 333.222656 211.296875 334.449219 212.070312 335.652344 212.875 C 336.855469 213.679688 338.039062 214.511719 339.203125 215.375 C 340.367188 216.238281 341.507812 217.128906 342.628906 218.050781 C 343.75 218.96875 344.847656 219.914062 345.917969 220.886719 C 346.992188 221.859375 348.042969 222.859375 349.066406 223.882812 C 350.089844 224.90625 351.089844 225.957031 352.0625 227.03125 C 353.035156 228.101562 353.980469 229.199219 354.898438 230.320312 C 355.820312 231.4375 356.710938 232.582031 357.574219 233.746094 C 358.433594 234.90625 359.269531 236.09375 360.074219 237.296875 C 360.878906 238.5 361.652344 239.726562 362.398438 240.96875 C 363.144531 242.210938 363.855469 243.46875 364.539062 244.746094 C 365.222656 246.023438 365.875 247.320312 366.492188 248.628906 C 367.113281 249.9375 367.699219 251.261719 368.253906 252.601562 C 368.808594 253.9375 369.328125 255.289062 369.816406 256.652344 C 370.304688 258.019531 370.761719 259.394531 371.179688 260.777344 C 371.601562 262.164062 371.988281 263.5625 372.339844 264.964844 C 372.691406 266.371094 373.007812 267.785156 373.292969 269.207031 C 373.574219 270.625 373.820312 272.054688 374.035156 273.484375 C 374.246094 274.917969 374.421875 276.355469 374.566406 277.796875 C 374.707031 279.238281 374.8125 280.683594 374.886719 282.132812 C 374.957031 283.578125 374.992188 285.027344 374.992188 286.472656 Z M 374.992188 286.472656 " fill-opacity="1" fill-rule="nonzero"/></g></svg>