<svg xmlns="http://www.w3.org/2000/svg" xmlns:xlink="http://www.w3.org/1999/xlink" width="500" zoomAndPan="magnify" viewBox="0 0 375 374.999991" height="500" preserveAspectRatio="xMidYMid meet" version="1.0"><defs><clipPath id="75d838672a"><path d="M 0 98.976562 L 177 98.976562 L 177 275.976562 L 0 275.976562 Z M 0 98.976562 " clip-rule="nonzero"/></clipPath><clipPath id="95681ecf33"><path d="M 197.957031 98.976562 L 374.957031 98.976562 L 374.957031 275.976562 L 197.957031 275.976562 Z M 197.957031 98.976562 " clip-rule="nonzero"/></clipPath></defs><g clip-path="url(#75d838672a)"><path fill="#fbe906" d="M 177.035156 187.496094 C 177.035156 188.945312 177 190.390625 176.929688 191.839844 C 176.859375 193.285156 176.75 194.730469 176.609375 196.171875 C 176.46875 197.613281 176.289062 199.050781 176.078125 200.484375 C 175.863281 201.917969 175.617188 203.34375 175.335938 204.765625 C 175.050781 206.1875 174.734375 207.597656 174.382812 209.003906 C 174.03125 210.410156 173.644531 211.804688 173.222656 213.191406 C 172.804688 214.578125 172.347656 215.953125 171.859375 217.316406 C 171.371094 218.679688 170.851562 220.03125 170.296875 221.371094 C 169.742188 222.707031 169.15625 224.03125 168.535156 225.34375 C 167.917969 226.652344 167.265625 227.945312 166.582031 229.222656 C 165.898438 230.5 165.1875 231.761719 164.441406 233.003906 C 163.695312 234.246094 162.921875 235.46875 162.117188 236.671875 C 161.3125 237.878906 160.476562 239.0625 159.617188 240.226562 C 158.753906 241.390625 157.863281 242.53125 156.941406 243.652344 C 156.023438 244.769531 155.078125 245.867188 154.105469 246.941406 C 153.132812 248.015625 152.132812 249.0625 151.109375 250.085938 C 150.085938 251.113281 149.035156 252.109375 147.960938 253.082031 C 146.890625 254.054688 145.792969 255 144.671875 255.921875 C 143.550781 256.839844 142.410156 257.730469 141.246094 258.59375 C 140.082031 259.457031 138.898438 260.289062 137.695312 261.09375 C 136.492188 261.902344 135.265625 262.675781 134.023438 263.421875 C 132.78125 264.164062 131.523438 264.878906 130.246094 265.5625 C 128.96875 266.246094 127.671875 266.894531 126.363281 267.515625 C 125.054688 268.132812 123.730469 268.722656 122.390625 269.277344 C 121.054688 269.828125 119.703125 270.351562 118.339844 270.839844 C 116.972656 271.328125 115.597656 271.78125 114.210938 272.203125 C 112.828125 272.621094 111.429688 273.007812 110.027344 273.359375 C 108.621094 273.710938 107.207031 274.03125 105.785156 274.3125 C 104.367188 274.59375 102.9375 274.84375 101.503906 275.054688 C 100.074219 275.269531 98.636719 275.445312 97.195312 275.585938 C 95.753906 275.730469 94.308594 275.835938 92.859375 275.90625 C 91.414062 275.976562 89.964844 276.011719 88.519531 276.011719 C 87.070312 276.011719 85.621094 275.976562 84.175781 275.90625 C 82.726562 275.835938 81.28125 275.730469 79.839844 275.585938 C 78.398438 275.445312 76.960938 275.269531 75.53125 275.054688 C 74.097656 274.84375 72.667969 274.59375 71.25 274.3125 C 69.828125 274.03125 68.414062 273.710938 67.007812 273.359375 C 65.605469 273.007812 64.207031 272.621094 62.824219 272.203125 C 61.4375 271.78125 60.0625 271.328125 58.695312 270.839844 C 57.332031 270.351562 55.980469 269.828125 54.644531 269.277344 C 53.304688 268.722656 51.980469 268.132812 50.671875 267.515625 C 49.363281 266.894531 48.066406 266.246094 46.789062 265.5625 C 45.511719 264.878906 44.253906 264.164062 43.011719 263.421875 C 41.769531 262.675781 40.542969 261.902344 39.339844 261.09375 C 38.136719 260.289062 36.953125 259.457031 35.789062 258.59375 C 34.625 257.730469 33.484375 256.839844 32.363281 255.921875 C 31.242188 255 30.144531 254.054688 29.074219 253.082031 C 28 252.109375 26.949219 251.113281 25.925781 250.085938 C 24.902344 249.0625 23.902344 248.015625 22.929688 246.941406 C 21.957031 245.867188 21.011719 244.769531 20.09375 243.652344 C 19.171875 242.53125 18.28125 241.390625 17.417969 240.226562 C 16.554688 239.0625 15.722656 237.878906 14.917969 236.671875 C 14.113281 235.46875 13.339844 234.246094 12.59375 233.003906 C 11.847656 231.761719 11.136719 230.5 10.453125 229.222656 C 9.769531 227.945312 9.117188 226.652344 8.5 225.34375 C 7.878906 224.03125 7.292969 222.707031 6.738281 221.371094 C 6.183594 220.03125 5.664062 218.679688 5.175781 217.316406 C 4.6875 215.953125 4.230469 214.578125 3.8125 213.191406 C 3.390625 211.804688 3.003906 210.410156 2.652344 209.003906 C 2.300781 207.597656 1.984375 206.1875 1.699219 204.765625 C 1.417969 203.34375 1.171875 201.917969 0.957031 200.484375 C 0.746094 199.050781 0.566406 197.613281 0.425781 196.171875 C 0.285156 194.730469 0.175781 193.285156 0.105469 191.839844 C 0.0351562 190.390625 0 188.945312 0 187.496094 C 0 186.046875 0.0351562 184.597656 0.105469 183.152344 C 0.175781 181.707031 0.285156 180.261719 0.425781 178.820312 C 0.566406 177.378906 0.746094 175.941406 0.957031 174.507812 C 1.171875 173.074219 1.417969 171.648438 1.699219 170.226562 C 1.984375 168.804688 2.300781 167.394531 2.652344 165.988281 C 3.003906 164.582031 3.390625 163.1875 3.8125 161.800781 C 4.230469 160.414062 4.6875 159.039062 5.175781 157.675781 C 5.664062 156.3125 6.183594 154.960938 6.738281 153.621094 C 7.292969 152.285156 7.878906 150.960938 8.5 149.648438 C 9.117188 148.339844 9.769531 147.046875 10.453125 145.769531 C 11.136719 144.492188 11.847656 143.230469 12.59375 141.988281 C 13.339844 140.746094 14.113281 139.523438 14.917969 138.316406 C 15.722656 137.113281 16.554688 135.929688 17.417969 134.765625 C 18.28125 133.601562 19.171875 132.460938 20.09375 131.339844 C 21.011719 130.222656 21.957031 129.125 22.929688 128.050781 C 23.902344 126.976562 24.902344 125.929688 25.925781 124.90625 C 26.949219 123.878906 28 122.882812 29.074219 121.910156 C 30.144531 120.9375 31.242188 119.988281 32.363281 119.070312 C 33.484375 118.152344 34.625 117.261719 35.789062 116.398438 C 36.953125 115.535156 38.136719 114.699219 39.339844 113.894531 C 40.542969 113.089844 41.769531 112.316406 43.011719 111.570312 C 44.253906 110.828125 45.511719 110.113281 46.789062 109.429688 C 48.066406 108.746094 49.363281 108.097656 50.671875 107.476562 C 51.980469 106.859375 53.304688 106.269531 54.644531 105.714844 C 55.980469 105.160156 57.332031 104.640625 58.695312 104.152344 C 60.0625 103.664062 61.4375 103.210938 62.824219 102.789062 C 64.207031 102.371094 65.605469 101.984375 67.007812 101.632812 C 68.414062 101.277344 69.828125 100.960938 71.25 100.679688 C 72.667969 100.398438 74.097656 100.148438 75.53125 99.9375 C 76.960938 99.722656 78.398438 99.546875 79.839844 99.40625 C 81.28125 99.261719 82.726562 99.15625 84.175781 99.085938 C 85.621094 99.015625 87.070312 98.976562 88.519531 98.976562 C 89.964844 98.976562 91.414062 99.015625 92.859375 99.085938 C 94.308594 99.15625 95.753906 99.261719 97.195312 99.40625 C 98.636719 99.546875 100.074219 99.722656 101.503906 99.9375 C 102.9375 100.148438 104.367188 100.398438 105.785156 100.679688 C 107.207031 100.960938 108.621094 101.277344 110.027344 101.632812 C 111.429688 101.984375 112.828125 102.371094 114.210938 102.789062 C 115.597656 103.210938 116.972656 103.664062 118.339844 104.152344 C 119.703125 104.640625 121.054688 105.160156 122.390625 105.714844 C 123.730469 106.269531 125.054688 106.859375 126.363281 107.476562 C 127.671875 108.097656 128.96875 108.746094 130.246094 109.429688 C 131.523438 110.113281 132.78125 110.828125 134.023438 111.570312 C 135.265625 112.316406 136.492188 113.089844 137.695312 113.894531 C 138.898438 114.699219 140.082031 115.535156 141.246094 116.398438 C 142.410156 117.261719 143.550781 118.152344 144.671875 119.070312 C 145.792969 119.988281 146.890625 120.9375 147.960938 121.910156 C 149.035156 122.882812 150.085938 123.878906 151.109375 124.90625 C 152.132812 125.929688 153.132812 126.976562 154.105469 128.050781 C 155.078125 129.125 156.023438 130.222656 156.941406 131.339844 C 157.863281 132.460938 158.753906 133.601562 159.617188 134.765625 C 160.476562 135.929688 161.3125 137.113281 162.117188 138.316406 C 162.921875 139.523438 163.695312 140.746094 164.441406 141.988281 C 165.1875 143.230469 165.898438 144.492188 166.582031 145.769531 C 167.265625 147.046875 167.917969 148.339844 168.535156 149.648438 C 169.15625 150.960938 169.742188 152.285156 170.296875 153.621094 C 170.851562 154.960938 171.371094 156.3125 171.859375 157.675781 C 172.347656 159.039062 172.804688 160.414062 173.222656 161.800781 C 173.644531 163.1875 174.03125 164.582031 174.382812 165.988281 C 174.734375 167.394531 175.050781 168.804688 175.335938 170.226562 C 175.617188 171.648438 175.863281 173.074219 176.078125 174.507812 C 176.289062 175.941406 176.46875 177.378906 176.609375 178.820312 C 176.75 180.261719 176.859375 181.707031 176.929688 183.152344 C 177 184.597656 177.035156 186.046875 177.035156 187.496094 Z M 177.035156 187.496094 " fill-opacity="1" fill-rule="nonzero"/></g><g clip-path="url(#95681ecf33)"><path fill="#fbe906" d="M 374.992188 187.496094 C 374.992188 188.945312 374.957031 190.390625 374.886719 191.839844 C 374.8125 193.285156 374.707031 194.730469 374.566406 196.171875 C 374.421875 197.613281 374.246094 199.050781 374.035156 200.484375 C 373.820312 201.917969 373.574219 203.34375 373.292969 204.765625 C 373.007812 206.1875 372.691406 207.597656 372.339844 209.003906 C 371.988281 210.410156 371.601562 211.804688 371.179688 213.191406 C 370.761719 214.578125 370.304688 215.953125 369.816406 217.316406 C 369.328125 218.679688 368.808594 220.03125 368.253906 221.371094 C 367.699219 222.707031 367.113281 224.03125 366.492188 225.34375 C 365.875 226.652344 365.222656 227.945312 364.539062 229.222656 C 363.855469 230.5 363.144531 231.761719 362.398438 233.003906 C 361.652344 234.246094 360.878906 235.46875 360.074219 236.671875 C 359.269531 237.878906 358.433594 239.0625 357.574219 240.226562 C 356.710938 241.390625 355.820312 242.53125 354.898438 243.652344 C 353.980469 244.769531 353.035156 245.867188 352.0625 246.941406 C 351.089844 248.015625 350.089844 249.0625 349.066406 250.085938 C 348.042969 251.113281 346.992188 252.109375 345.917969 253.082031 C 344.847656 254.054688 343.75 255 342.628906 255.921875 C 341.507812 256.839844 340.367188 257.730469 339.203125 258.59375 C 338.039062 259.457031 336.855469 260.289062 335.652344 261.09375 C 334.449219 261.902344 333.222656 262.675781 331.980469 263.421875 C 330.738281 264.164062 329.480469 264.878906 328.203125 265.5625 C 326.921875 266.246094 325.628906 266.894531 324.320312 267.515625 C 323.011719 268.132812 321.6875 268.722656 320.347656 269.277344 C 319.011719 269.828125 317.660156 270.351562 316.296875 270.839844 C 314.929688 271.328125 313.554688 271.78125 312.167969 272.203125 C 310.785156 272.621094 309.386719 273.007812 307.980469 273.359375 C 306.578125 273.710938 305.164062 274.03125 303.742188 274.3125 C 302.324219 274.59375 300.894531 274.84375 299.460938 275.054688 C 298.03125 275.269531 296.59375 275.445312 295.152344 275.585938 C 293.707031 275.730469 292.265625 275.835938 290.816406 275.90625 C 289.371094 275.976562 287.921875 276.011719 286.472656 276.011719 C 285.027344 276.011719 283.578125 275.976562 282.132812 275.90625 C 280.683594 275.835938 279.238281 275.730469 277.796875 275.585938 C 276.355469 275.445312 274.917969 275.269531 273.484375 275.054688 C 272.054688 274.84375 270.625 274.59375 269.207031 274.3125 C 267.785156 274.03125 266.371094 273.710938 264.964844 273.359375 C 263.5625 273.007812 262.164062 272.621094 260.777344 272.203125 C 259.394531 271.78125 258.019531 271.328125 256.652344 270.839844 C 255.289062 270.351562 253.9375 269.828125 252.601562 269.277344 C 251.261719 268.722656 249.9375 268.132812 248.628906 267.515625 C 247.320312 266.894531 246.023438 266.246094 244.746094 265.5625 C 243.46875 264.878906 242.210938 264.164062 240.96875 263.421875 C 239.726562 262.675781 238.5 261.902344 237.296875 261.09375 C 236.09375 260.289062 234.90625 259.457031 233.746094 258.59375 C 232.582031 257.730469 231.4375 256.839844 230.320312 255.921875 C 229.199219 255 228.101562 254.054688 227.03125 253.082031 C 225.957031 252.109375 224.90625 251.113281 223.882812 250.085938 C 222.859375 249.0625 221.859375 248.015625 220.886719 246.941406 C 219.914062 245.867188 218.96875 244.769531 218.050781 243.652344 C 217.128906 242.53125 216.238281 241.390625 215.375 240.226562 C 214.511719 239.0625 213.679688 237.878906 212.875 236.671875 C 212.070312 235.46875 211.296875 234.246094 210.550781 233.003906 C 209.804688 231.761719 209.089844 230.5 208.410156 229.222656 C 207.726562 227.945312 207.074219 226.652344 206.457031 225.34375 C 205.835938 224.03125 205.25 222.707031 204.695312 221.371094 C 204.140625 220.03125 203.621094 218.679688 203.132812 217.316406 C 202.644531 215.953125 202.1875 214.578125 201.769531 213.191406 C 201.347656 211.804688 200.960938 210.410156 200.609375 209.003906 C 200.257812 207.597656 199.941406 206.1875 199.65625 204.765625 C 199.375 203.34375 199.128906 201.917969 198.914062 200.484375 C 198.703125 199.050781 198.523438 197.613281 198.382812 196.171875 C 198.242188 194.730469 198.132812 193.285156 198.0625 191.839844 C 197.992188 190.390625 197.957031 188.945312 197.957031 187.496094 C 197.957031 186.046875 197.992188 184.597656 198.0625 183.152344 C 198.132812 181.707031 198.242188 180.261719 198.382812 178.820312 C 198.523438 177.378906 198.703125 175.941406 198.914062 174.507812 C 199.128906 173.074219 199.375 171.648438 199.65625 170.226562 C 199.941406 168.804688 200.257812 167.394531 200.609375 165.988281 C 200.960938 164.582031 201.347656 163.1875 201.769531 161.800781 C 202.1875 160.414062 202.644531 159.039062 203.132812 157.675781 C 203.621094 156.3125 204.140625 154.960938 204.695312 153.621094 C 205.25 152.285156 205.835938 150.960938 206.457031 149.648438 C 207.074219 148.339844 207.726562 147.046875 208.410156 145.769531 C 209.089844 144.492188 209.804688 143.230469 210.550781 141.988281 C 211.296875 140.746094 212.070312 139.523438 212.875 138.316406 C 213.679688 137.113281 214.511719 135.929688 215.375 134.765625 C 216.238281 133.601562 217.128906 132.460938 218.050781 131.339844 C 218.96875 130.222656 219.914062 129.125 220.886719 128.050781 C 221.859375 126.976562 222.859375 125.929688 223.882812 124.90625 C 224.90625 123.878906 225.957031 122.882812 227.03125 121.910156 C 228.101562 120.9375 229.199219 119.988281 230.320312 119.070312 C 231.4375 118.152344 232.582031 117.261719 233.746094 116.398438 C 234.90625 115.535156 236.09375 114.699219 237.296875 113.894531 C 238.5 113.089844 239.726562 112.316406 240.96875 111.570312 C 242.210938 110.828125 243.46875 110.113281 244.746094 109.429688 C 246.023438 108.746094 247.320312 108.097656 248.628906 107.476562 C 249.9375 106.859375 251.261719 106.269531 252.601562 105.714844 C 253.9375 105.160156 255.289062 104.640625 256.652344 104.152344 C 258.019531 103.664062 259.394531 103.210938 260.777344 102.789062 C 262.164062 102.371094 263.5625 101.984375 264.964844 101.632812 C 266.371094 101.277344 267.785156 100.960938 269.207031 100.679688 C 270.625 100.398438 272.054688 100.148438 273.484375 99.9375 C 274.917969 99.722656 276.355469 99.546875 277.796875 99.40625 C 279.238281 99.261719 280.683594 99.15625 282.132812 99.085938 C 283.578125 99.015625 285.027344 98.976562 286.472656 98.976562 C 287.921875 98.976562 289.371094 99.015625 290.816406 99.085938 C 292.265625 99.15625 293.707031 99.261719 295.152344 99.40625 C 296.59375 99.546875 298.03125 99.722656 299.460938 99.9375 C 300.894531 100.148438 302.324219 100.398438 303.742188 100.679688 C 305.164062 100.960938 306.578125 101.277344 307.980469 101.632812 C 309.386719 101.984375 310.785156 102.371094 312.167969 102.789062 C 313.554688 103.210938 314.929688 103.664062 316.296875 104.152344 C 317.660156 104.640625 319.011719 105.160156 320.347656 105.714844 C 321.6875 106.269531 323.011719 106.859375 324.320312 107.476562 C 325.628906 108.097656 326.921875 108.746094 328.203125 109.429688 C 329.480469 110.113281 330.738281 110.828125 331.980469 111.570312 C 333.222656 112.316406 334.449219 113.089844 335.652344 113.894531 C 336.855469 114.699219 338.039062 115.535156 339.203125 116.398438 C 340.367188 117.261719 341.507812 118.152344 342.628906 119.070312 C 343.75 119.988281 344.847656 120.9375 345.917969 121.910156 C 346.992188 122.882812 348.042969 123.878906 349.066406 124.90625 C 350.089844 125.929688 351.089844 126.976562 352.0625 128.050781 C 353.035156 129.125 353.980469 130.222656 354.898438 131.339844 C 355.820312 132.460938 356.710938 133.601562 357.574219 134.765625 C 358.433594 135.929688 359.269531 137.113281 360.074219 138.316406 C 360.878906 139.523438 361.652344 140.746094 362.398438 141.988281 C 363.144531 143.230469 363.855469 144.492188 364.539062 145.769531 C 365.222656 147.046875 365.875 148.339844 366.492188 149.648438 C 367.113281 150.960938 367.699219 152.285156 368.253906 153.621094 C 368.808594 154.960938 369.328125 156.3125 369.816406 157.675781 C 370.304688 159.039062 370.761719 160.414062 371.179688 161.800781 C 371.601562 163.1875 371.988281 164.582031 372.339844 165.988281 C 372.691406 167.394531 373.007812 168.804688 373.292969 170.226562 C 373.574219 171.648438 373.820312 173.074219 374.035156 174.507812 C 374.246094 175.941406 374.421875 177.378906 374.566406 178.820312 C 374.707031 180.261719 374.8125 181.707031 374.886719 183.152344 C 374.957031 184.597656 374.992188 186.046875 374.992188 187.496094 Z M 374.992188 187.496094 " fill-opacity="1" fill-rule="nonzero"/></g></svg>