<svg xmlns="http://www.w3.org/2000/svg" xmlns:xlink="http://www.w3.org/1999/xlink" width="500" zoomAndPan="magnify" viewBox="0 0 375 374.999991" height="500" preserveAspectRatio="xMidYMid meet" version="1.0"><defs><clipPath id="edd6e4f093"><path d="M 0 0 L 177 0 L 177 177 L 0 177 Z M 0 0 " clip-rule="nonzero"/></clipPath><clipPath id="07ae1bfb5d"><path d="M 197.957031 0 L 374.957031 0 L 374.957031 177 L 197.957031 177 Z M 197.957031 0 " clip-rule="nonzero"/></clipPath><clipPath id="1f596c70f4"><path d="M 0 197.957031 L 177 197.957031 L 177 374.957031 L 0 374.957031 Z M 0 197.957031 " clip-rule="nonzero"/></clipPath><clipPath id="7fc3b2c157"><path d="M 197.957031 197.957031 L 374.957031 197.957031 L 374.957031 374.957031 L 197.957031 374.957031 Z M 197.957031 197.957031 " clip-rule="nonzero"/></clipPath></defs><g clip-path="url(#edd6e4f093)"><path fill="#fbe906" d="M 177.035156 88.515625 C 177.035156 89.964844 177 91.414062 176.929688 92.859375 C 176.859375 94.308594 176.75 95.753906 176.609375 97.195312 C 176.46875 98.636719 176.289062 100.074219 176.078125 101.503906 C 175.863281 102.9375 175.617188 104.367188 175.335938 105.785156 C 175.050781 107.207031 174.734375 108.621094 174.382812 110.027344 C 174.03125 111.429688 173.644531 112.828125 173.222656 114.210938 C 172.804688 115.597656 172.347656 116.972656 171.859375 118.339844 C 171.371094 119.703125 170.851562 121.054688 170.296875 122.390625 C 169.742188 123.730469 169.15625 125.054688 168.535156 126.363281 C 167.917969 127.671875 167.265625 128.96875 166.582031 130.246094 C 165.898438 131.523438 165.1875 132.78125 164.441406 134.023438 C 163.695312 135.265625 162.921875 136.492188 162.117188 137.695312 C 161.3125 138.898438 160.476562 140.082031 159.617188 141.246094 C 158.753906 142.410156 157.863281 143.550781 156.941406 144.671875 C 156.023438 145.792969 155.078125 146.890625 154.105469 147.960938 C 153.132812 149.035156 152.132812 150.085938 151.109375 151.109375 C 150.085938 152.132812 149.035156 153.132812 147.960938 154.105469 C 146.890625 155.078125 145.792969 156.023438 144.671875 156.941406 C 143.550781 157.863281 142.410156 158.753906 141.246094 159.617188 C 140.082031 160.476562 138.898438 161.3125 137.695312 162.117188 C 136.492188 162.921875 135.265625 163.695312 134.023438 164.441406 C 132.78125 165.1875 131.523438 165.898438 130.246094 166.582031 C 128.96875 167.265625 127.671875 167.917969 126.363281 168.535156 C 125.054688 169.15625 123.730469 169.742188 122.390625 170.296875 C 121.054688 170.851562 119.703125 171.371094 118.339844 171.859375 C 116.972656 172.347656 115.597656 172.804688 114.210938 173.222656 C 112.828125 173.644531 111.429688 174.03125 110.027344 174.382812 C 108.621094 174.734375 107.207031 175.050781 105.785156 175.335938 C 104.367188 175.617188 102.9375 175.863281 101.503906 176.078125 C 100.074219 176.289062 98.636719 176.46875 97.195312 176.609375 C 95.753906 176.75 94.308594 176.859375 92.859375 176.929688 C 91.414062 177 89.964844 177.035156 88.519531 177.035156 C 87.070312 177.035156 85.621094 177 84.175781 176.929688 C 82.726562 176.859375 81.28125 176.75 79.839844 176.609375 C 78.398438 176.46875 76.960938 176.289062 75.53125 176.078125 C 74.097656 175.863281 72.667969 175.617188 71.25 175.335938 C 69.828125 175.050781 68.414062 174.734375 67.007812 174.382812 C 65.605469 174.03125 64.207031 173.644531 62.824219 173.222656 C 61.4375 172.804688 60.0625 172.347656 58.695312 171.859375 C 57.332031 171.371094 55.980469 170.851562 54.644531 170.296875 C 53.304688 169.742188 51.980469 169.15625 50.671875 168.535156 C 49.363281 167.917969 48.066406 167.265625 46.789062 166.582031 C 45.511719 165.898438 44.253906 165.1875 43.011719 164.441406 C 41.769531 163.695312 40.542969 162.921875 39.339844 162.117188 C 38.136719 161.3125 36.953125 160.476562 35.789062 159.617188 C 34.625 158.753906 33.484375 157.863281 32.363281 156.941406 C 31.242188 156.023438 30.144531 155.078125 29.074219 154.105469 C 28 153.132812 26.949219 152.132812 25.925781 151.109375 C 24.902344 150.085938 23.902344 149.035156 22.929688 147.960938 C 21.957031 146.890625 21.011719 145.792969 20.09375 144.671875 C 19.171875 143.550781 18.28125 142.410156 17.417969 141.246094 C 16.554688 140.082031 15.722656 138.898438 14.917969 137.695312 C 14.113281 136.492188 13.339844 135.265625 12.59375 134.023438 C 11.847656 132.78125 11.136719 131.523438 10.453125 130.246094 C 9.769531 128.96875 9.117188 127.671875 8.5 126.363281 C 7.878906 125.054688 7.292969 123.730469 6.738281 122.390625 C 6.183594 121.054688 5.664062 119.703125 5.175781 118.339844 C 4.6875 116.972656 4.230469 115.597656 3.8125 114.210938 C 3.390625 112.828125 3.003906 111.429688 2.652344 110.027344 C 2.300781 108.621094 1.984375 107.207031 1.699219 105.785156 C 1.417969 104.367188 1.171875 102.9375 0.957031 101.503906 C 0.746094 100.074219 0.566406 98.636719 0.425781 97.195312 C 0.285156 95.753906 0.175781 94.308594 0.105469 92.859375 C 0.0351562 91.414062 0 89.964844 0 88.515625 C 0 87.070312 0.0351562 85.621094 0.105469 84.175781 C 0.175781 82.726562 0.285156 81.28125 0.425781 79.839844 C 0.566406 78.398438 0.746094 76.960938 0.957031 75.53125 C 1.171875 74.097656 1.417969 72.667969 1.699219 71.25 C 1.984375 69.828125 2.300781 68.414062 2.652344 67.007812 C 3.003906 65.605469 3.390625 64.207031 3.8125 62.824219 C 4.230469 61.4375 4.6875 60.0625 5.175781 58.695312 C 5.664062 57.332031 6.183594 55.980469 6.738281 54.644531 C 7.292969 53.304688 7.878906 51.980469 8.5 50.671875 C 9.117188 49.363281 9.769531 48.066406 10.453125 46.789062 C 11.136719 45.511719 11.847656 44.253906 12.59375 43.011719 C 13.339844 41.769531 14.113281 40.542969 14.917969 39.339844 C 15.722656 38.136719 16.554688 36.953125 17.417969 35.789062 C 18.28125 34.625 19.171875 33.484375 20.09375 32.363281 C 21.011719 31.242188 21.957031 30.144531 22.929688 29.074219 C 23.902344 28 24.902344 26.949219 25.925781 25.925781 C 26.949219 24.902344 28 23.902344 29.074219 22.929688 C 30.144531 21.957031 31.242188 21.011719 32.363281 20.09375 C 33.484375 19.171875 34.625 18.28125 35.789062 17.417969 C 36.953125 16.554688 38.136719 15.722656 39.339844 14.917969 C 40.542969 14.113281 41.769531 13.339844 43.011719 12.59375 C 44.253906 11.847656 45.511719 11.136719 46.789062 10.453125 C 48.066406 9.769531 49.363281 9.117188 50.671875 8.5 C 51.980469 7.878906 53.304688 7.292969 54.644531 6.738281 C 55.980469 6.183594 57.332031 5.664062 58.695312 5.175781 C 60.0625 4.6875 61.4375 4.230469 62.824219 3.8125 C 64.207031 3.390625 65.605469 3.003906 67.007812 2.652344 C 68.414062 2.300781 69.828125 1.984375 71.25 1.699219 C 72.667969 1.417969 74.097656 1.171875 75.53125 0.957031 C 76.960938 0.746094 78.398438 0.566406 79.839844 0.425781 C 81.28125 0.285156 82.726562 0.175781 84.175781 0.105469 C 85.621094 0.0351562 87.070312 0 88.519531 0 C 89.964844 0 91.414062 0.0351562 92.859375 0.105469 C 94.308594 0.175781 95.753906 0.285156 97.195312 0.425781 C 98.636719 0.566406 100.074219 0.746094 101.503906 0.957031 C 102.9375 1.171875 104.367188 1.417969 105.785156 1.699219 C 107.207031 1.984375 108.621094 2.300781 110.027344 2.652344 C 111.429688 3.003906 112.828125 3.390625 114.210938 3.8125 C 115.597656 4.230469 116.972656 4.6875 118.339844 5.175781 C 119.703125 5.664062 121.054688 6.183594 122.390625 6.738281 C 123.730469 7.292969 125.054688 7.878906 126.363281 8.5 C 127.671875 9.117188 128.96875 9.769531 130.246094 10.453125 C 131.523438 11.136719 132.78125 11.847656 134.023438 12.59375 C 135.265625 13.339844 136.492188 14.113281 137.695312 14.917969 C 138.898438 15.722656 140.082031 16.554688 141.246094 17.417969 C 142.410156 18.28125 143.550781 19.171875 144.671875 20.09375 C 145.792969 21.011719 146.890625 21.957031 147.960938 22.929688 C 149.035156 23.902344 150.085938 24.902344 151.109375 25.925781 C 152.132812 26.949219 153.132812 28 154.105469 29.074219 C 155.078125 30.144531 156.023438 31.242188 156.941406 32.363281 C 157.863281 33.484375 158.753906 34.625 159.617188 35.789062 C 160.476562 36.953125 161.3125 38.136719 162.117188 39.339844 C 162.921875 40.542969 163.695312 41.769531 164.441406 43.011719 C 165.1875 44.253906 165.898438 45.511719 166.582031 46.789062 C 167.265625 48.066406 167.917969 49.363281 168.535156 50.671875 C 169.15625 51.980469 169.742188 53.304688 170.296875 54.644531 C 170.851562 55.980469 171.371094 57.332031 171.859375 58.695312 C 172.347656 60.0625 172.804688 61.4375 173.222656 62.824219 C 173.644531 64.207031 174.03125 65.605469 174.382812 67.007812 C 174.734375 68.414062 175.050781 69.828125 175.335938 71.25 C 175.617188 72.667969 175.863281 74.097656 176.078125 75.53125 C 176.289062 76.960938 176.46875 78.398438 176.609375 79.839844 C 176.75 81.28125 176.859375 82.726562 176.929688 84.175781 C 177 85.621094 177.035156 87.070312 177.035156 88.515625 Z M 177.035156 88.515625 " fill-opacity="1" fill-rule="nonzero"/></g><g clip-path="url(#07ae1bfb5d)"><path fill="#fbe906" d="M 374.992188 88.515625 C 374.992188 89.964844 374.957031 91.414062 374.886719 92.859375 C 374.8125 94.308594 374.707031 95.753906 374.566406 97.195312 C 374.421875 98.636719 374.246094 100.074219 374.035156 101.503906 C 373.820312 102.9375 373.574219 104.367188 373.292969 105.785156 C 373.007812 107.207031 372.691406 108.621094 372.339844 110.027344 C 371.988281 111.429688 371.601562 112.828125 371.179688 114.210938 C 370.761719 115.597656 370.304688 116.972656 369.816406 118.339844 C 369.328125 119.703125 368.808594 121.054688 368.253906 122.390625 C 367.699219 123.730469 367.113281 125.054688 366.492188 126.363281 C 365.875 127.671875 365.222656 128.96875 364.539062 130.246094 C 363.855469 131.523438 363.144531 132.78125 362.398438 134.023438 C 361.652344 135.265625 360.878906 136.492188 360.074219 137.695312 C 359.269531 138.898438 358.433594 140.082031 357.574219 141.246094 C 356.710938 142.410156 355.820312 143.550781 354.898438 144.671875 C 353.980469 145.792969 353.035156 146.890625 352.0625 147.960938 C 351.089844 149.035156 350.089844 150.085938 349.066406 151.109375 C 348.042969 152.132812 346.992188 153.132812 345.917969 154.105469 C 344.847656 155.078125 343.75 156.023438 342.628906 156.941406 C 341.507812 157.863281 340.367188 158.753906 339.203125 159.617188 C 338.039062 160.476562 336.855469 161.3125 335.652344 162.117188 C 334.449219 162.921875 333.222656 163.695312 331.980469 164.441406 C 330.738281 165.1875 329.480469 165.898438 328.203125 166.582031 C 326.921875 167.265625 325.628906 167.917969 324.320312 168.535156 C 323.011719 169.15625 321.6875 169.742188 320.347656 170.296875 C 319.011719 170.851562 317.660156 171.371094 316.296875 171.859375 C 314.929688 172.347656 313.554688 172.804688 312.167969 173.222656 C 310.785156 173.644531 309.386719 174.03125 307.980469 174.382812 C 306.578125 174.734375 305.164062 175.050781 303.742188 175.335938 C 302.324219 175.617188 300.894531 175.863281 299.460938 176.078125 C 298.03125 176.289062 296.59375 176.46875 295.152344 176.609375 C 293.707031 176.75 292.265625 176.859375 290.816406 176.929688 C 289.371094 177 287.921875 177.035156 286.472656 177.035156 C 285.027344 177.035156 283.578125 177 282.132812 176.929688 C 280.683594 176.859375 279.238281 176.75 277.796875 176.609375 C 276.355469 176.46875 274.917969 176.289062 273.484375 176.078125 C 272.054688 175.863281 270.625 175.617188 269.207031 175.335938 C 267.785156 175.050781 266.371094 174.734375 264.964844 174.382812 C 263.5625 174.03125 262.164062 173.644531 260.777344 173.222656 C 259.394531 172.804688 258.019531 172.347656 256.652344 171.859375 C 255.289062 171.371094 253.9375 170.851562 252.601562 170.296875 C 251.261719 169.742188 249.9375 169.15625 248.628906 168.535156 C 247.320312 167.917969 246.023438 167.265625 244.746094 166.582031 C 243.46875 165.898438 242.210938 165.1875 240.96875 164.441406 C 239.726562 163.695312 238.5 162.921875 237.296875 162.117188 C 236.09375 161.3125 234.90625 160.476562 233.746094 159.617188 C 232.582031 158.753906 231.4375 157.863281 230.320312 156.941406 C 229.199219 156.023438 228.101562 155.078125 227.03125 154.105469 C 225.957031 153.132812 224.90625 152.132812 223.882812 151.109375 C 222.859375 150.085938 221.859375 149.035156 220.886719 147.960938 C 219.914062 146.890625 218.96875 145.792969 218.050781 144.671875 C 217.128906 143.550781 216.238281 142.410156 215.375 141.246094 C 214.511719 140.082031 213.679688 138.898438 212.875 137.695312 C 212.070312 136.492188 211.296875 135.265625 210.550781 134.023438 C 209.804688 132.78125 209.089844 131.523438 208.410156 130.246094 C 207.726562 128.96875 207.074219 127.671875 206.457031 126.363281 C 205.835938 125.054688 205.25 123.730469 204.695312 122.390625 C 204.140625 121.054688 203.621094 119.703125 203.132812 118.339844 C 202.644531 116.972656 202.1875 115.597656 201.769531 114.210938 C 201.347656 112.828125 200.960938 111.429688 200.609375 110.027344 C 200.257812 108.621094 199.941406 107.207031 199.65625 105.785156 C 199.375 104.367188 199.128906 102.9375 198.914062 101.503906 C 198.703125 100.074219 198.523438 98.636719 198.382812 97.195312 C 198.242188 95.753906 198.132812 94.308594 198.0625 92.859375 C 197.992188 91.414062 197.957031 89.964844 197.957031 88.515625 C 197.957031 87.070312 197.992188 85.621094 198.0625 84.175781 C 198.132812 82.726562 198.242188 81.28125 198.382812 79.839844 C 198.523438 78.398438 198.703125 76.960938 198.914062 75.53125 C 199.128906 74.097656 199.375 72.667969 199.65625 71.25 C 199.941406 69.828125 200.257812 68.414062 200.609375 67.007812 C 200.960938 65.605469 201.347656 64.207031 201.769531 62.824219 C 202.1875 61.4375 202.644531 60.0625 203.132812 58.695312 C 203.621094 57.332031 204.140625 55.980469 204.695312 54.644531 C 205.25 53.304688 205.835938 51.980469 206.457031 50.671875 C 207.074219 49.363281 207.726562 48.066406 208.410156 46.789062 C 209.089844 45.511719 209.804688 44.253906 210.550781 43.011719 C 211.296875 41.769531 212.070312 40.542969 212.875 39.339844 C 213.679688 38.136719 214.511719 36.953125 215.375 35.789062 C 216.238281 34.625 217.128906 33.484375 218.050781 32.363281 C 218.96875 31.242188 219.914062 30.144531 220.886719 29.074219 C 221.859375 28 222.859375 26.949219 223.882812 25.925781 C 224.90625 24.902344 225.957031 23.902344 227.03125 22.929688 C 228.101562 21.957031 229.199219 21.011719 230.320312 20.09375 C 231.4375 19.171875 232.582031 18.28125 233.746094 17.417969 C 234.90625 16.554688 236.09375 15.722656 237.296875 14.917969 C 238.5 14.113281 239.726562 13.339844 240.96875 12.59375 C 242.210938 11.847656 243.46875 11.136719 244.746094 10.453125 C 246.023438 9.769531 247.320312 9.117188 248.628906 8.5 C 249.9375 7.878906 251.261719 7.292969 252.601562 6.738281 C 253.9375 6.183594 255.289062 5.664062 256.652344 5.175781 C 258.019531 4.6875 259.394531 4.230469 260.777344 3.8125 C 262.164062 3.390625 263.5625 3.003906 264.964844 2.652344 C 266.371094 2.300781 267.785156 1.984375 269.207031 1.699219 C 270.625 1.417969 272.054688 1.171875 273.484375 0.957031 C 274.917969 0.746094 276.355469 0.566406 277.796875 0.425781 C 279.238281 0.285156 280.683594 0.175781 282.132812 0.105469 C 283.578125 0.0351562 285.027344 0 286.472656 0 C 287.921875 0 289.371094 0.0351562 290.816406 0.105469 C 292.265625 0.175781 293.707031 0.285156 295.152344 0.425781 C 296.59375 0.566406 298.03125 0.746094 299.460938 0.957031 C 300.894531 1.171875 302.324219 1.417969 303.742188 1.699219 C 305.164062 1.984375 306.578125 2.300781 307.980469 2.652344 C 309.386719 3.003906 310.785156 3.390625 312.167969 3.8125 C 313.554688 4.230469 314.929688 4.6875 316.296875 5.175781 C 317.660156 5.664062 319.011719 6.183594 320.347656 6.738281 C 321.6875 7.292969 323.011719 7.878906 324.320312 8.5 C 325.628906 9.117188 326.921875 9.769531 328.203125 10.453125 C 329.480469 11.136719 330.738281 11.847656 331.980469 12.59375 C 333.222656 13.339844 334.449219 14.113281 335.652344 14.917969 C 336.855469 15.722656 338.039062 16.554688 339.203125 17.417969 C 340.367188 18.28125 341.507812 19.171875 342.628906 20.09375 C 343.75 21.011719 344.847656 21.957031 345.917969 22.929688 C 346.992188 23.902344 348.042969 24.902344 349.066406 25.925781 C 350.089844 26.949219 351.089844 28 352.0625 29.074219 C 353.035156 30.144531 353.980469 31.242188 354.898438 32.363281 C 355.820312 33.484375 356.710938 34.625 357.574219 35.789062 C 358.433594 36.953125 359.269531 38.136719 360.074219 39.339844 C 360.878906 40.542969 361.652344 41.769531 362.398438 43.011719 C 363.144531 44.253906 363.855469 45.511719 364.539062 46.789062 C 365.222656 48.066406 365.875 49.363281 366.492188 50.671875 C 367.113281 51.980469 367.699219 53.304688 368.253906 54.644531 C 368.808594 55.980469 369.328125 57.332031 369.816406 58.695312 C 370.304688 60.0625 370.761719 61.4375 371.179688 62.824219 C 371.601562 64.207031 371.988281 65.605469 372.339844 67.007812 C 372.691406 68.414062 373.007812 69.828125 373.292969 71.25 C 373.574219 72.667969 373.820312 74.097656 374.035156 75.53125 C 374.246094 76.960938 374.421875 78.398438 374.566406 79.839844 C 374.707031 81.28125 374.8125 82.726562 374.886719 84.175781 C 374.957031 85.621094 374.992188 87.070312 374.992188 88.515625 Z M 374.992188 88.515625 " fill-opacity="1" fill-rule="nonzero"/></g><g clip-path="url(#1f596c70f4)"><path fill="#fbe906" d="M 177.035156 286.472656 C 177.035156 287.921875 177 289.371094 176.929688 290.816406 C 176.859375 292.265625 176.75 293.707031 176.609375 295.152344 C 176.46875 296.59375 176.289062 298.03125 176.078125 299.460938 C 175.863281 300.894531 175.617188 302.324219 175.335938 303.742188 C 175.050781 305.164062 174.734375 306.578125 174.382812 307.980469 C 174.03125 309.386719 173.644531 310.785156 173.222656 312.167969 C 172.804688 313.554688 172.347656 314.929688 171.859375 316.296875 C 171.371094 317.660156 170.851562 319.011719 170.296875 320.347656 C 169.742188 321.6875 169.15625 323.011719 168.535156 324.320312 C 167.917969 325.628906 167.265625 326.921875 166.582031 328.203125 C 165.898438 329.480469 165.1875 330.738281 164.441406 331.980469 C 163.695312 333.222656 162.921875 334.449219 162.117188 335.652344 C 161.3125 336.855469 160.476562 338.039062 159.617188 339.203125 C 158.753906 340.367188 157.863281 341.507812 156.941406 342.628906 C 156.023438 343.75 155.078125 344.847656 154.105469 345.917969 C 153.132812 346.992188 152.132812 348.042969 151.109375 349.066406 C 150.085938 350.089844 149.035156 351.089844 147.960938 352.0625 C 146.890625 353.035156 145.792969 353.980469 144.671875 354.898438 C 143.550781 355.820312 142.410156 356.710938 141.246094 357.574219 C 140.082031 358.433594 138.898438 359.269531 137.695312 360.074219 C 136.492188 360.878906 135.265625 361.652344 134.023438 362.398438 C 132.78125 363.144531 131.523438 363.855469 130.246094 364.539062 C 128.96875 365.222656 127.671875 365.875 126.363281 366.492188 C 125.054688 367.113281 123.730469 367.699219 122.390625 368.253906 C 121.054688 368.808594 119.703125 369.328125 118.339844 369.816406 C 116.972656 370.304688 115.597656 370.761719 114.210938 371.179688 C 112.828125 371.601562 111.429688 371.988281 110.027344 372.339844 C 108.621094 372.691406 107.207031 373.007812 105.785156 373.292969 C 104.367188 373.574219 102.9375 373.820312 101.503906 374.035156 C 100.074219 374.246094 98.636719 374.421875 97.195312 374.566406 C 95.753906 374.707031 94.308594 374.8125 92.859375 374.886719 C 91.414062 374.957031 89.964844 374.992188 88.519531 374.992188 C 87.070312 374.992188 85.621094 374.957031 84.175781 374.886719 C 82.726562 374.8125 81.28125 374.707031 79.839844 374.566406 C 78.398438 374.421875 76.960938 374.246094 75.53125 374.035156 C 74.097656 373.820312 72.667969 373.574219 71.25 373.292969 C 69.828125 373.007812 68.414062 372.691406 67.007812 372.339844 C 65.605469 371.988281 64.207031 371.601562 62.824219 371.179688 C 61.4375 370.761719 60.0625 370.304688 58.695312 369.816406 C 57.332031 369.328125 55.980469 368.808594 54.644531 368.253906 C 53.304688 367.699219 51.980469 367.113281 50.671875 366.492188 C 49.363281 365.875 48.066406 365.222656 46.789062 364.539062 C 45.511719 363.855469 44.253906 363.144531 43.011719 362.398438 C 41.769531 361.652344 40.542969 360.878906 39.339844 360.074219 C 38.136719 359.269531 36.953125 358.433594 35.789062 357.574219 C 34.625 356.710938 33.484375 355.820312 32.363281 354.898438 C 31.242188 353.980469 30.144531 353.035156 29.074219 352.0625 C 28 351.089844 26.949219 350.089844 25.925781 349.066406 C 24.902344 348.042969 23.902344 346.992188 22.929688 345.917969 C 21.957031 344.847656 21.011719 343.75 20.09375 342.628906 C 19.171875 341.507812 18.28125 340.367188 17.417969 339.203125 C 16.554688 338.039062 15.722656 336.855469 14.917969 335.652344 C 14.113281 334.449219 13.339844 333.222656 12.59375 331.980469 C 11.847656 330.738281 11.136719 329.480469 10.453125 328.203125 C 9.769531 326.921875 9.117188 325.628906 8.5 324.320312 C 7.878906 323.011719 7.292969 321.6875 6.738281 320.347656 C 6.183594 319.011719 5.664062 317.660156 5.175781 316.296875 C 4.6875 314.929688 4.230469 313.554688 3.8125 312.167969 C 3.390625 310.785156 3.003906 309.386719 2.652344 307.980469 C 2.300781 306.578125 1.984375 305.164062 1.699219 303.742188 C 1.417969 302.324219 1.171875 300.894531 0.957031 299.460938 C 0.746094 298.03125 0.566406 296.59375 0.425781 295.152344 C 0.285156 293.707031 0.175781 292.265625 0.105469 290.816406 C 0.0351562 289.371094 0 287.921875 0 286.472656 C 0 285.027344 0.0351562 283.578125 0.105469 282.132812 C 0.175781 280.683594 0.285156 279.238281 0.425781 277.796875 C 0.566406 276.355469 0.746094 274.917969 0.957031 273.484375 C 1.171875 272.054688 1.417969 270.625 1.699219 269.207031 C 1.984375 267.785156 2.300781 266.371094 2.652344 264.964844 C 3.003906 263.5625 3.390625 262.164062 3.8125 260.777344 C 4.230469 259.394531 4.6875 258.019531 5.175781 256.652344 C 5.664062 255.289062 6.183594 253.9375 6.738281 252.601562 C 7.292969 251.261719 7.878906 249.9375 8.5 248.628906 C 9.117188 247.320312 9.769531 246.023438 10.453125 244.746094 C 11.136719 243.46875 11.847656 242.210938 12.59375 240.96875 C 13.339844 239.726562 14.113281 238.5 14.917969 237.296875 C 15.722656 236.09375 16.554688 234.90625 17.417969 233.746094 C 18.28125 232.582031 19.171875 231.4375 20.09375 230.320312 C 21.011719 229.199219 21.957031 228.101562 22.929688 227.03125 C 23.902344 225.957031 24.902344 224.90625 25.925781 223.882812 C 26.949219 222.859375 28 221.859375 29.074219 220.886719 C 30.144531 219.914062 31.242188 218.96875 32.363281 218.050781 C 33.484375 217.128906 34.625 216.238281 35.789062 215.375 C 36.953125 214.511719 38.136719 213.679688 39.339844 212.875 C 40.542969 212.070312 41.769531 211.296875 43.011719 210.550781 C 44.253906 209.804688 45.511719 209.089844 46.789062 208.410156 C 48.066406 207.726562 49.363281 207.074219 50.671875 206.457031 C 51.980469 205.835938 53.304688 205.25 54.644531 204.695312 C 55.980469 204.140625 57.332031 203.621094 58.695312 203.132812 C 60.0625 202.644531 61.4375 202.1875 62.824219 201.769531 C 64.207031 201.347656 65.605469 200.960938 67.007812 200.609375 C 68.414062 200.257812 69.828125 199.941406 71.25 199.65625 C 72.667969 199.375 74.097656 199.128906 75.53125 198.914062 C 76.960938 198.703125 78.398438 198.523438 79.839844 198.382812 C 81.28125 198.242188 82.726562 198.132812 84.175781 198.0625 C 85.621094 197.992188 87.070312 197.957031 88.519531 197.957031 C 89.964844 197.957031 91.414062 197.992188 92.859375 198.0625 C 94.308594 198.132812 95.753906 198.242188 97.195312 198.382812 C 98.636719 198.523438 100.074219 198.703125 101.503906 198.914062 C 102.9375 199.128906 104.367188 199.375 105.785156 199.65625 C 107.207031 199.941406 108.621094 200.257812 110.027344 200.609375 C 111.429688 200.960938 112.828125 201.347656 114.210938 201.769531 C 115.597656 202.1875 116.972656 202.644531 118.339844 203.132812 C 119.703125 203.621094 121.054688 204.140625 122.390625 204.695312 C 123.730469 205.25 125.054688 205.835938 126.363281 206.457031 C 127.671875 207.074219 128.96875 207.726562 130.246094 208.410156 C 131.523438 209.089844 132.78125 209.804688 134.023438 210.550781 C 135.265625 211.296875 136.492188 212.070312 137.695312 212.875 C 138.898438 213.679688 140.082031 214.511719 141.246094 215.375 C 142.410156 216.238281 143.550781 217.128906 144.671875 218.050781 C 145.792969 218.96875 146.890625 219.914062 147.960938 220.886719 C 149.035156 221.859375 150.085938 222.859375 151.109375 223.882812 C 152.132812 224.90625 153.132812 225.957031 154.105469 227.03125 C 155.078125 228.101562 156.023438 229.199219 156.941406 230.320312 C 157.863281 231.4375 158.753906 232.582031 159.617188 233.746094 C 160.476562 234.90625 161.3125 236.09375 162.117188 237.296875 C 162.921875 238.5 163.695312 239.726562 164.441406 240.96875 C 165.1875 242.210938 165.898438 243.46875 166.582031 244.746094 C 167.265625 246.023438 167.917969 247.320312 168.535156 248.628906 C 169.15625 249.9375 169.742188 251.261719 170.296875 252.601562 C 170.851562 253.9375 171.371094 255.289062 171.859375 256.652344 C 172.347656 258.019531 172.804688 259.394531 173.222656 260.777344 C 173.644531 262.164062 174.03125 263.5625 174.382812 264.964844 C 174.734375 266.371094 175.050781 267.785156 175.335938 269.207031 C 175.617188 270.625 175.863281 272.054688 176.078125 273.484375 C 176.289062 274.917969 176.46875 276.355469 176.609375 277.796875 C 176.75 279.238281 176.859375 280.683594 176.929688 282.132812 C 177 283.578125 177.035156 285.027344 177.035156 286.472656 Z M 177.035156 286.472656 " fill-opacity="1" fill-rule="nonzero"/></g><g clip-path="url(#7fc3b2c157)"><path fill="#fbe906" d="M 374.992188 286.472656 C 374.992188 287.921875 374.957031 289.371094 374.886719 290.816406 C 374.8125 292.265625 374.707031 293.707031 374.566406 295.152344 C 374.421875 296.59375 374.246094 298.03125 374.035156 299.460938 C 373.820312 300.894531 373.574219 302.324219 373.292969 303.742188 C 373.007812 305.164062 372.691406 306.578125 372.339844 307.980469 C 371.988281 309.386719 371.601562 310.785156 371.179688 312.167969 C 370.761719 313.554688 370.304688 314.929688 369.816406 316.296875 C 369.328125 317.660156 368.808594 319.011719 368.253906 320.347656 C 367.699219 321.6875 367.113281 323.011719 366.492188 324.320312 C 365.875 325.628906 365.222656 326.921875 364.539062 328.203125 C 363.855469 329.480469 363.144531 330.738281 362.398438 331.980469 C 361.652344 333.222656 360.878906 334.449219 360.074219 335.652344 C 359.269531 336.855469 358.433594 338.039062 357.574219 339.203125 C 356.710938 340.367188 355.820312 341.507812 354.898438 342.628906 C 353.980469 343.75 353.035156 344.847656 352.0625 345.917969 C 351.089844 346.992188 350.089844 348.042969 349.066406 349.066406 C 348.042969 350.089844 346.992188 351.089844 345.917969 352.0625 C 344.847656 353.035156 343.75 353.980469 342.628906 354.898438 C 341.507812 355.820312 340.367188 356.710938 339.203125 357.574219 C 338.039062 358.433594 336.855469 359.269531 335.652344 360.074219 C 334.449219 360.878906 333.222656 361.652344 331.980469 362.398438 C 330.738281 363.144531 329.480469 363.855469 328.203125 364.539062 C 326.921875 365.222656 325.628906 365.875 324.320312 366.492188 C 323.011719 367.113281 321.6875 367.699219 320.347656 368.253906 C 319.011719 368.808594 317.660156 369.328125 316.296875 369.816406 C 314.929688 370.304688 313.554688 370.761719 312.167969 371.179688 C 310.785156 371.601562 309.386719 371.988281 307.980469 372.339844 C 306.578125 372.691406 305.164062 373.007812 303.742188 373.292969 C 302.324219 373.574219 300.894531 373.820312 299.460938 374.035156 C 298.03125 374.246094 296.59375 374.421875 295.152344 374.566406 C 293.707031 374.707031 292.265625 374.8125 290.816406 374.886719 C 289.371094 374.957031 287.921875 374.992188 286.472656 374.992188 C 285.027344 374.992188 283.578125 374.957031 282.132812 374.886719 C 280.683594 374.8125 279.238281 374.707031 277.796875 374.566406 C 276.355469 374.421875 274.917969 374.246094 273.484375 374.035156 C 272.054688 373.820312 270.625 373.574219 269.207031 373.292969 C 267.785156 373.007812 266.371094 372.691406 264.964844 372.339844 C 263.5625 371.988281 262.164062 371.601562 260.777344 371.179688 C 259.394531 370.761719 258.019531 370.304688 256.652344 369.816406 C 255.289062 369.328125 253.9375 368.808594 252.601562 368.253906 C 251.261719 367.699219 249.9375 367.113281 248.628906 366.492188 C 247.320312 365.875 246.023438 365.222656 244.746094 364.539062 C 243.46875 363.855469 242.210938 363.144531 240.96875 362.398438 C 239.726562 361.652344 238.5 360.878906 237.296875 360.074219 C 236.09375 359.269531 234.90625 358.433594 233.746094 357.574219 C 232.582031 356.710938 231.4375 355.820312 230.320312 354.898438 C 229.199219 353.980469 228.101562 353.035156 227.03125 352.0625 C 225.957031 351.089844 224.90625 350.089844 223.882812 349.066406 C 222.859375 348.042969 221.859375 346.992188 220.886719 345.917969 C 219.914062 344.847656 218.96875 343.75 218.050781 342.628906 C 217.128906 341.507812 216.238281 340.367188 215.375 339.203125 C 214.511719 338.039062 213.679688 336.855469 212.875 335.652344 C 212.070312 334.449219 211.296875 333.222656 210.550781 331.980469 C 209.804688 330.738281 209.089844 329.480469 208.410156 328.203125 C 207.726562 326.921875 207.074219 325.628906 206.457031 324.320312 C 205.835938 323.011719 205.25 321.6875 204.695312 320.347656 C 204.140625 319.011719 203.621094 317.660156 203.132812 316.296875 C 202.644531 314.929688 202.1875 313.554688 201.769531 312.167969 C 201.347656 310.785156 200.960938 309.386719 200.609375 307.980469 C 200.257812 306.578125 199.941406 305.164062 199.65625 303.742188 C 199.375 302.324219 199.128906 300.894531 198.914062 299.460938 C 198.703125 298.03125 198.523438 296.59375 198.382812 295.152344 C 198.242188 293.707031 198.132812 292.265625 198.0625 290.816406 C 197.992188 289.371094 197.957031 287.921875 197.957031 286.472656 C 197.957031 285.027344 197.992188 283.578125 198.0625 282.132812 C 198.132812 280.683594 198.242188 279.238281 198.382812 277.796875 C 198.523438 276.355469 198.703125 274.917969 198.914062 273.484375 C 199.128906 272.054688 199.375 270.625 199.65625 269.207031 C 199.941406 267.785156 200.257812 266.371094 200.609375 264.964844 C 200.960938 263.5625 201.347656 262.164062 201.769531 260.777344 C 202.1875 259.394531 202.644531 258.019531 203.132812 256.652344 C 203.621094 255.289062 204.140625 253.9375 204.695312 252.601562 C 205.25 251.261719 205.835938 249.9375 206.457031 248.628906 C 207.074219 247.320312 207.726562 246.023438 208.410156 244.746094 C 209.089844 243.46875 209.804688 242.210938 210.550781 240.96875 C 211.296875 239.726562 212.070312 238.5 212.875 237.296875 C 213.679688 236.09375 214.511719 234.90625 215.375 233.746094 C 216.238281 232.582031 217.128906 231.4375 218.050781 230.320312 C 218.96875 229.199219 219.914062 228.101562 220.886719 227.03125 C 221.859375 225.957031 222.859375 224.90625 223.882812 223.882812 C 224.90625 222.859375 225.957031 221.859375 227.03125 220.886719 C 228.101562 219.914062 229.199219 218.96875 230.320312 218.050781 C 231.4375 217.128906 232.582031 216.238281 233.746094 215.375 C 234.90625 214.511719 236.09375 213.679688 237.296875 212.875 C 238.5 212.070312 239.726562 211.296875 240.96875 210.550781 C 242.210938 209.804688 243.46875 209.089844 244.746094 208.410156 C 246.023438 207.726562 247.320312 207.074219 248.628906 206.457031 C 249.9375 205.835938 251.261719 205.25 252.601562 204.695312 C 253.9375 204.140625 255.289062 203.621094 256.652344 203.132812 C 258.019531 202.644531 259.394531 202.1875 260.777344 201.769531 C 262.164062 201.347656 263.5625 200.960938 264.964844 200.609375 C 266.371094 200.257812 267.785156 199.941406 269.207031 199.65625 C 270.625 199.375 272.054688 199.128906 273.484375 198.914062 C 274.917969 198.703125 276.355469 198.523438 277.796875 198.382812 C 279.238281 198.242188 280.683594 198.132812 282.132812 198.0625 C 283.578125 197.992188 285.027344 197.957031 286.472656 197.957031 C 287.921875 197.957031 289.371094 197.992188 290.816406 198.0625 C 292.265625 198.132812 293.707031 198.242188 295.152344 198.382812 C 296.59375 198.523438 298.03125 198.703125 299.460938 198.914062 C 300.894531 199.128906 302.324219 199.375 303.742188 199.65625 C 305.164062 199.941406 306.578125 200.257812 307.980469 200.609375 C 309.386719 200.960938 310.785156 201.347656 312.167969 201.769531 C 313.554688 202.1875 314.929688 202.644531 316.296875 203.132812 C 317.660156 203.621094 319.011719 204.140625 320.347656 204.695312 C 321.6875 205.25 323.011719 205.835938 324.320312 206.457031 C 325.628906 207.074219 326.921875 207.726562 328.203125 208.410156 C 329.480469 209.089844 330.738281 209.804688 331.980469 210.550781 C 333.222656 211.296875 334.449219 212.070312 335.652344 212.875 C 336.855469 213.679688 338.039062 214.511719 339.203125 215.375 C 340.367188 216.238281 341.507812 217.128906 342.628906 218.050781 C 343.75 218.96875 344.847656 219.914062 345.917969 220.886719 C 346.992188 221.859375 348.042969 222.859375 349.066406 223.882812 C 350.089844 224.90625 351.089844 225.957031 352.0625 227.03125 C 353.035156 228.101562 353.980469 229.199219 354.898438 230.320312 C 355.820312 231.4375 356.710938 232.582031 357.574219 233.746094 C 358.433594 234.90625 359.269531 236.09375 360.074219 237.296875 C 360.878906 238.5 361.652344 239.726562 362.398438 240.96875 C 363.144531 242.210938 363.855469 243.46875 364.539062 244.746094 C 365.222656 246.023438 365.875 247.320312 366.492188 248.628906 C 367.113281 249.9375 367.699219 251.261719 368.253906 252.601562 C 368.808594 253.9375 369.328125 255.289062 369.816406 256.652344 C 370.304688 258.019531 370.761719 259.394531 371.179688 260.777344 C 371.601562 262.164062 371.988281 263.5625 372.339844 264.964844 C 372.691406 266.371094 373.007812 267.785156 373.292969 269.207031 C 373.574219 270.625 373.820312 272.054688 374.035156 273.484375 C 374.246094 274.917969 374.421875 276.355469 374.566406 277.796875 C 374.707031 279.238281 374.8125 280.683594 374.886719 282.132812 C 374.957031 283.578125 374.992188 285.027344 374.992188 286.472656 Z M 374.992188 286.472656 " fill-opacity="1" fill-rule="nonzero"/></g></svg>