<svg xmlns="http://www.w3.org/2000/svg" xmlns:xlink="http://www.w3.org/1999/xlink" width="500" zoomAndPan="magnify" viewBox="0 0 375 374.999991" height="500" preserveAspectRatio="xMidYMid meet" version="1.0"><defs><clipPath id="ebdfcc7326"><path d="M 98.976562 98.976562 L 275.976562 98.976562 L 275.976562 275.976562 L 98.976562 275.976562 Z M 98.976562 98.976562 " clip-rule="nonzero"/></clipPath></defs><g clip-path="url(#ebdfcc7326)"><path fill="#4e7943" d="M 276.011719 187.496094 C 276.011719 188.945312 275.976562 190.390625 275.90625 191.839844 C 275.835938 193.285156 275.730469 194.730469 275.585938 196.171875 C 275.445312 197.613281 275.269531 199.050781 275.054688 200.484375 C 274.84375 201.917969 274.59375 203.34375 274.3125 204.765625 C 274.03125 206.1875 273.710938 207.597656 273.359375 209.003906 C 273.007812 210.410156 272.621094 211.804688 272.203125 213.191406 C 271.78125 214.578125 271.328125 215.953125 270.839844 217.316406 C 270.351562 218.679688 269.828125 220.03125 269.277344 221.371094 C 268.722656 222.707031 268.132812 224.03125 267.515625 225.34375 C 266.894531 226.652344 266.246094 227.945312 265.5625 229.222656 C 264.878906 230.5 264.164062 231.761719 263.421875 233.003906 C 262.675781 234.246094 261.902344 235.46875 261.09375 236.671875 C 260.289062 237.878906 259.457031 239.0625 258.59375 240.226562 C 257.730469 241.390625 256.839844 242.53125 255.921875 243.652344 C 255 244.769531 254.054688 245.867188 253.082031 246.941406 C 252.109375 248.015625 251.113281 249.0625 250.085938 250.085938 C 249.0625 251.113281 248.015625 252.109375 246.941406 253.082031 C 245.867188 254.054688 244.769531 255.003906 243.652344 255.921875 C 242.53125 256.839844 241.390625 257.730469 240.226562 258.59375 C 239.0625 259.457031 237.878906 260.289062 236.671875 261.09375 C 235.46875 261.902344 234.246094 262.675781 233.003906 263.421875 C 231.761719 264.164062 230.5 264.878906 229.222656 265.5625 C 227.945312 266.246094 226.652344 266.894531 225.34375 267.515625 C 224.03125 268.132812 222.707031 268.722656 221.371094 269.277344 C 220.03125 269.828125 218.679688 270.351562 217.316406 270.839844 C 215.953125 271.328125 214.578125 271.78125 213.191406 272.203125 C 211.804688 272.621094 210.410156 273.007812 209.003906 273.359375 C 207.597656 273.710938 206.1875 274.03125 204.765625 274.3125 C 203.34375 274.59375 201.917969 274.84375 200.484375 275.054688 C 199.050781 275.269531 197.613281 275.445312 196.171875 275.585938 C 194.730469 275.730469 193.285156 275.835938 191.839844 275.90625 C 190.390625 275.976562 188.945312 276.011719 187.496094 276.011719 C 186.046875 276.011719 184.597656 275.976562 183.152344 275.90625 C 181.707031 275.835938 180.261719 275.730469 178.820312 275.585938 C 177.378906 275.445312 175.941406 275.269531 174.507812 275.054688 C 173.074219 274.84375 171.648438 274.59375 170.226562 274.3125 C 168.804688 274.03125 167.394531 273.710938 165.988281 273.359375 C 164.582031 273.007812 163.1875 272.621094 161.800781 272.203125 C 160.414062 271.78125 159.039062 271.328125 157.675781 270.839844 C 156.3125 270.351562 154.960938 269.828125 153.621094 269.277344 C 152.285156 268.722656 150.960938 268.132812 149.648438 267.515625 C 148.339844 266.894531 147.046875 266.246094 145.769531 265.5625 C 144.492188 264.878906 143.230469 264.164062 141.988281 263.421875 C 140.746094 262.675781 139.523438 261.902344 138.316406 261.09375 C 137.113281 260.289062 135.929688 259.457031 134.765625 258.59375 C 133.601562 257.730469 132.460938 256.839844 131.339844 255.921875 C 130.222656 255.003906 129.125 254.054688 128.050781 253.082031 C 126.976562 252.109375 125.929688 251.113281 124.90625 250.085938 C 123.878906 249.0625 122.882812 248.015625 121.910156 246.941406 C 120.9375 245.867188 119.988281 244.769531 119.070312 243.652344 C 118.152344 242.53125 117.261719 241.390625 116.398438 240.226562 C 115.535156 239.0625 114.699219 237.878906 113.894531 236.671875 C 113.089844 235.46875 112.316406 234.246094 111.570312 233.003906 C 110.828125 231.761719 110.113281 230.5 109.429688 229.222656 C 108.746094 227.945312 108.097656 226.652344 107.476562 225.34375 C 106.859375 224.03125 106.269531 222.707031 105.714844 221.371094 C 105.160156 220.03125 104.640625 218.679688 104.152344 217.316406 C 103.664062 215.953125 103.210938 214.578125 102.789062 213.191406 C 102.371094 211.804688 101.984375 210.410156 101.632812 209.003906 C 101.277344 207.597656 100.960938 206.1875 100.679688 204.765625 C 100.398438 203.34375 100.148438 201.917969 99.9375 200.484375 C 99.722656 199.050781 99.546875 197.613281 99.40625 196.171875 C 99.261719 194.730469 99.15625 193.285156 99.085938 191.839844 C 99.015625 190.390625 98.976562 188.945312 98.976562 187.496094 C 98.976562 186.046875 99.015625 184.597656 99.085938 183.152344 C 99.15625 181.707031 99.261719 180.261719 99.40625 178.820312 C 99.546875 177.378906 99.722656 175.941406 99.9375 174.507812 C 100.148438 173.074219 100.398438 171.648438 100.679688 170.226562 C 100.960938 168.804688 101.277344 167.394531 101.632812 165.988281 C 101.984375 164.582031 102.371094 163.1875 102.789062 161.800781 C 103.210938 160.414062 103.664062 159.039062 104.152344 157.675781 C 104.640625 156.3125 105.160156 154.960938 105.714844 153.621094 C 106.269531 152.285156 106.859375 150.960938 107.476562 149.648438 C 108.097656 148.339844 108.746094 147.046875 109.429688 145.769531 C 110.113281 144.492188 110.828125 143.230469 111.570312 141.988281 C 112.316406 140.746094 113.089844 139.523438 113.894531 138.316406 C 114.699219 137.113281 115.535156 135.929688 116.398438 134.765625 C 117.261719 133.601562 118.152344 132.460938 119.070312 131.339844 C 119.988281 130.222656 120.9375 129.125 121.910156 128.050781 C 122.882812 126.976562 123.878906 125.929688 124.90625 124.90625 C 125.929688 123.878906 126.976562 122.882812 128.050781 121.910156 C 129.125 120.9375 130.222656 119.988281 131.339844 119.070312 C 132.460938 118.152344 133.601562 117.261719 134.765625 116.398438 C 135.929688 115.535156 137.113281 114.699219 138.316406 113.894531 C 139.523438 113.089844 140.746094 112.316406 141.988281 111.570312 C 143.230469 110.828125 144.492188 110.113281 145.769531 109.429688 C 147.046875 108.746094 148.339844 108.097656 149.648438 107.476562 C 150.960938 106.859375 152.285156 106.269531 153.621094 105.714844 C 154.960938 105.160156 156.3125 104.640625 157.675781 104.152344 C 159.039062 103.664062 160.414062 103.210938 161.800781 102.789062 C 163.1875 102.371094 164.582031 101.984375 165.988281 101.632812 C 167.394531 101.277344 168.804688 100.960938 170.226562 100.679688 C 171.648438 100.398438 173.074219 100.148438 174.507812 99.9375 C 175.941406 99.722656 177.378906 99.546875 178.820312 99.40625 C 180.261719 99.261719 181.707031 99.15625 183.152344 99.085938 C 184.597656 99.015625 186.046875 98.976562 187.496094 98.976562 C 188.945312 98.976562 190.390625 99.015625 191.839844 99.085938 C 193.285156 99.15625 194.730469 99.261719 196.171875 99.40625 C 197.613281 99.546875 199.050781 99.722656 200.484375 99.9375 C 201.917969 100.148438 203.34375 100.398438 204.765625 100.679688 C 206.1875 100.960938 207.597656 101.277344 209.003906 101.632812 C 210.410156 101.984375 211.804688 102.371094 213.191406 102.789062 C 214.578125 103.210938 215.953125 103.664062 217.316406 104.152344 C 218.679688 104.640625 220.03125 105.160156 221.371094 105.714844 C 222.707031 106.269531 224.03125 106.859375 225.34375 107.476562 C 226.652344 108.097656 227.945312 108.746094 229.222656 109.429688 C 230.5 110.113281 231.761719 110.828125 233.003906 111.570312 C 234.246094 112.316406 235.46875 113.089844 236.671875 113.894531 C 237.878906 114.699219 239.0625 115.535156 240.226562 116.398438 C 241.390625 117.261719 242.53125 118.152344 243.652344 119.070312 C 244.769531 119.988281 245.867188 120.9375 246.941406 121.910156 C 248.015625 122.882812 249.0625 123.878906 250.085938 124.90625 C 251.113281 125.929688 252.109375 126.976562 253.082031 128.050781 C 254.054688 129.125 255 130.222656 255.921875 131.339844 C 256.839844 132.460938 257.730469 133.601562 258.59375 134.765625 C 259.457031 135.929688 260.289062 137.113281 261.09375 138.316406 C 261.902344 139.523438 262.675781 140.746094 263.421875 141.988281 C 264.164062 143.230469 264.878906 144.492188 265.5625 145.769531 C 266.246094 147.046875 266.894531 148.339844 267.515625 149.648438 C 268.132812 150.960938 268.722656 152.285156 269.277344 153.621094 C 269.828125 154.960938 270.351562 156.3125 270.839844 157.675781 C 271.328125 159.039062 271.78125 160.414062 272.203125 161.800781 C 272.621094 163.1875 273.007812 164.582031 273.359375 165.988281 C 273.710938 167.394531 274.03125 168.804688 274.3125 170.226562 C 274.59375 171.648438 274.84375 173.074219 275.054688 174.507812 C 275.269531 175.941406 275.445312 177.378906 275.585938 178.820312 C 275.730469 180.261719 275.835938 181.707031 275.90625 183.152344 C 275.976562 184.597656 276.011719 186.046875 276.011719 187.496094 Z M 276.011719 187.496094 " fill-opacity="1" fill-rule="nonzero"/></g></svg>