<svg xmlns="http://www.w3.org/2000/svg" xmlns:xlink="http://www.w3.org/1999/xlink" width="500" zoomAndPan="magnify" viewBox="0 0 375 374.999991" height="500" preserveAspectRatio="xMidYMid meet" version="1.0"><defs><g/><clipPath id="add4a95c52"><path d="M 0 77.8125 L 375 77.8125 L 375 266 L 0 266 Z M 0 77.8125 " clip-rule="nonzero"/></clipPath></defs><g clip-path="url(#add4a95c52)"><path fill="#e8e7ec" d="M 187.5 77.796875 C 290.84375 77.796875 374.617188 161.714844 374.617188 265.234375 L 0.382812 265.234375 C 0.382812 161.714844 84.15625 77.796875 187.5 77.796875 " fill-opacity="1" fill-rule="nonzero"/></g><path fill="#ee2533" d="M 273.425781 116.152344 C 324.773438 145.914062 359.324219 201.53125 359.324219 265.234375 L 187.5 265.234375 L 273.425781 116.152344 " fill-opacity="1" fill-rule="nonzero"/><path fill="#fcda34" d="M 101.574219 116.152344 C 126.851562 101.5 156.199219 93.113281 187.5 93.113281 C 218.800781 93.113281 248.148438 101.5 273.425781 116.152344 L 187.5 265.234375 L 101.574219 116.152344 " fill-opacity="1" fill-rule="nonzero"/><path fill="#46b753" d="M 101.574219 116.152344 L 187.5 265.234375 L 15.675781 265.234375 C 15.675781 201.53125 50.226562 145.914062 101.574219 116.152344 " fill-opacity="1" fill-rule="nonzero"/><path fill="#ffffff" d="M 187.5 219.613281 C 212.652344 219.613281 233.039062 240.039062 233.039062 265.234375 L 141.960938 265.234375 C 141.960938 240.039062 162.347656 219.613281 187.5 219.613281 " fill-opacity="1" fill-rule="nonzero"/><path fill="#696867" d="M 159.261719 264.527344 L 90.53125 215.714844 C 88.085938 213.980469 90.132812 210.183594 92.921875 211.273438 L 171.394531 241.984375 C 179.859375 236.109375 191.226562 235.09375 200.910156 240.324219 C 214.640625 247.742188 219.769531 264.90625 212.367188 278.664062 C 204.960938 292.417969 187.824219 297.558594 174.089844 290.140625 C 164.410156 284.910156 159.011719 274.835938 159.261719 264.527344 " fill-opacity="1" fill-rule="nonzero"/><g fill="#545454" fill-opacity="1"><g transform="translate(120.011715, 354.438961)"><g><path d="M 4.800781 -42.894531 L 4.800781 0 L 26.996094 0 L 26.996094 -8.578125 L 13.378906 -8.578125 L 13.378906 -42.894531 Z M 4.800781 -42.894531 "/></g></g></g><g fill="#545454" fill-opacity="1"><g transform="translate(149.585959, 354.438961)"><g><path d="M 25.4375 0.601562 C 54.953125 0.601562 54.953125 -43.613281 25.4375 -43.613281 C -4.078125 -43.613281 -4.078125 0.601562 25.4375 0.601562 Z M 25.4375 -8.277344 C 8.277344 -8.277344 8.277344 -34.796875 25.4375 -34.796875 C 42.59375 -34.796875 42.59375 -8.277344 25.4375 -8.277344 Z M 25.4375 -8.277344 "/></g></g></g><g fill="#545454" fill-opacity="1"><g transform="translate(200.396064, 354.438961)"><g><path d="M 17.9375 0.898438 L 19.4375 0.898438 L 27.238281 -18.296875 L 35.09375 0.71875 L 36.65625 0.71875 L 54.171875 -42.894531 L 44.515625 -42.894531 L 35.875 -20.996094 L 27.476562 -42.476562 L 27.054688 -42.476562 L 18.65625 -20.996094 L 10.019531 -42.894531 L 0.359375 -42.894531 Z M 17.9375 0.898438 "/></g></g></g><g fill="#545454" fill-opacity="1"><g transform="translate(30.802737, 52.124997)"><g><path d="M 17.578125 -42.894531 L 4.800781 -42.894531 L 4.800781 0 L 17.578125 0 C 46.132812 0 46.132812 -42.894531 17.578125 -42.894531 Z M 17.578125 -34.316406 C 34.253906 -34.316406 34.253906 -8.578125 17.578125 -8.578125 L 13.378906 -8.578125 L 13.378906 -34.316406 Z M 17.578125 -34.316406 "/></g></g></g><g fill="#545454" fill-opacity="1"><g transform="translate(73.034511, 52.124997)"><g><path d="M 13.378906 0 L 13.378906 -42.894531 L 4.800781 -42.894531 L 4.800781 0 Z M 13.378906 0 "/></g></g></g><g fill="#545454" fill-opacity="1"><g transform="translate(91.270956, 52.124997)"><g><path d="M 26.214844 -34.316406 L 26.214844 -42.894531 L 4.800781 -42.894531 L 4.800781 0 L 13.378906 0 L 13.378906 -17.15625 L 24.296875 -17.15625 L 24.296875 -25.738281 L 13.378906 -25.738281 L 13.378906 -34.316406 Z M 26.214844 -34.316406 "/></g></g></g><g fill="#545454" fill-opacity="1"><g transform="translate(119.765404, 52.124997)"><g><path d="M 26.214844 -34.316406 L 26.214844 -42.894531 L 4.800781 -42.894531 L 4.800781 0 L 13.378906 0 L 13.378906 -17.15625 L 24.296875 -17.15625 L 24.296875 -25.738281 L 13.378906 -25.738281 L 13.378906 -34.316406 Z M 26.214844 -34.316406 "/></g></g></g><g fill="#545454" fill-opacity="1"><g transform="translate(148.259851, 52.124997)"><g><path d="M 13.378906 0 L 13.378906 -42.894531 L 4.800781 -42.894531 L 4.800781 0 Z M 13.378906 0 "/></g></g></g><g fill="#545454" fill-opacity="1"><g transform="translate(166.496296, 52.124997)"><g><path d="M 32.097656 -32.9375 L 33.117188 -41.753906 C 30.535156 -42.894531 27.65625 -43.433594 24.65625 -43.433594 C -4.378906 -43.433594 -4.4375 0.121094 24.65625 0.121094 C 27.65625 0.121094 31.4375 -0.601562 34.074219 -1.679688 L 32.9375 -10.558594 C 31.316406 -9.71875 28.375 -8.640625 24.65625 -8.640625 C 7.679688 -8.640625 7.679688 -34.796875 24.65625 -34.796875 C 28.375 -34.796875 30.476562 -33.777344 32.097656 -32.9375 Z M 32.097656 -32.9375 "/></g></g></g><g fill="#545454" fill-opacity="1"><g transform="translate(202.609259, 52.124997)"><g><path d="M 35.574219 -14.9375 L 35.574219 -42.894531 L 27.054688 -42.894531 L 27.054688 -15 C 27.054688 -6 13.136719 -6 13.136719 -15 L 13.136719 -42.894531 L 4.558594 -42.894531 L 4.558594 -14.9375 C 4.558594 5.460938 35.574219 5.460938 35.574219 -14.9375 Z M 35.574219 -14.9375 "/></g></g></g><g fill="#545454" fill-opacity="1"><g transform="translate(242.861423, 52.124997)"><g><path d="M 4.800781 -42.894531 L 4.800781 0 L 26.996094 0 L 26.996094 -8.578125 L 13.378906 -8.578125 L 13.378906 -42.894531 Z M 4.800781 -42.894531 "/></g></g></g><g fill="#545454" fill-opacity="1"><g transform="translate(272.435655, 52.124997)"><g><path d="M 20.457031 0 L 20.457031 -34.316406 L 31.136719 -34.316406 L 31.136719 -42.835938 L 1.199219 -42.835938 L 1.199219 -34.316406 L 11.878906 -34.316406 L 11.878906 0 Z M 20.457031 0 "/></g></g></g><g fill="#545454" fill-opacity="1"><g transform="translate(305.249252, 52.124997)"><g><path d="M 15.296875 0 L 23.816406 0 L 23.816406 -19.316406 L 38.816406 -42.894531 L 28.316406 -42.894531 L 19.558594 -28.136719 L 10.796875 -42.894531 L 0.359375 -42.894531 L 15.296875 -19.316406 Z M 15.296875 0 "/></g></g></g></svg>