<svg xmlns="http://www.w3.org/2000/svg" xmlns:xlink="http://www.w3.org/1999/xlink" width="500" zoomAndPan="magnify" viewBox="0 0 375 374.999991" height="500" preserveAspectRatio="xMidYMid meet" version="1.0"><defs><g/><clipPath id="f6733be56e"><path d="M 0 77.8125 L 375 77.8125 L 375 266 L 0 266 Z M 0 77.8125 " clip-rule="nonzero"/></clipPath><clipPath id="369bb88c2a"><path d="M 159 154 L 216 154 L 216 293.8125 L 159 293.8125 Z M 159 154 " clip-rule="nonzero"/></clipPath></defs><g fill="#545454" fill-opacity="1"><g transform="translate(73.072266, 353.999742)"><g><path d="M 24.476562 -24.71875 L 7.558594 -43.554688 L 4.800781 -43.554688 L 4.800781 0 L 13.5 0 L 13.5 -23.9375 L 24.476562 -12.417969 L 35.457031 -23.9375 L 35.394531 0 L 44.09375 0 L 44.09375 -43.554688 L 41.394531 -43.554688 Z M 24.476562 -24.71875 "/></g></g></g><g fill="#545454" fill-opacity="1"><g transform="translate(122.022729, 353.999742)"><g><path d="M 26.996094 0 L 26.996094 -8.578125 L 13.378906 -8.578125 L 13.378906 -17.15625 L 24.65625 -17.15625 L 24.65625 -25.738281 L 13.378906 -25.738281 L 13.378906 -34.316406 L 26.277344 -34.316406 L 26.277344 -42.894531 L 4.800781 -42.894531 L 4.800781 0 Z M 26.996094 0 "/></g></g></g><g fill="#545454" fill-opacity="1"><g transform="translate(152.256839, 353.999742)"><g><path d="M 17.578125 -42.894531 L 4.800781 -42.894531 L 4.800781 0 L 17.578125 0 C 46.132812 0 46.132812 -42.894531 17.578125 -42.894531 Z M 17.578125 -34.316406 C 34.253906 -34.316406 34.253906 -8.578125 17.578125 -8.578125 L 13.378906 -8.578125 L 13.378906 -34.316406 Z M 17.578125 -34.316406 "/></g></g></g><g fill="#545454" fill-opacity="1"><g transform="translate(194.488613, 353.999742)"><g><path d="M 13.378906 0 L 13.378906 -42.894531 L 4.800781 -42.894531 L 4.800781 0 Z M 13.378906 0 "/></g></g></g><g fill="#545454" fill-opacity="1"><g transform="translate(212.725058, 353.999742)"><g><path d="M 35.574219 -14.9375 L 35.574219 -42.894531 L 27.054688 -42.894531 L 27.054688 -15 C 27.054688 -6 13.136719 -6 13.136719 -15 L 13.136719 -42.894531 L 4.558594 -42.894531 L 4.558594 -14.9375 C 4.558594 5.460938 35.574219 5.460938 35.574219 -14.9375 Z M 35.574219 -14.9375 "/></g></g></g><g fill="#545454" fill-opacity="1"><g transform="translate(252.977222, 353.999742)"><g><path d="M 24.476562 -24.71875 L 7.558594 -43.554688 L 4.800781 -43.554688 L 4.800781 0 L 13.5 0 L 13.5 -23.9375 L 24.476562 -12.417969 L 35.457031 -23.9375 L 35.394531 0 L 44.09375 0 L 44.09375 -43.554688 L 41.394531 -43.554688 Z M 24.476562 -24.71875 "/></g></g></g><g clip-path="url(#f6733be56e)"><path fill="#e8e7ec" d="M 187.5 77.796875 C 290.964844 77.796875 374.835938 161.816406 374.835938 265.460938 L 0.164062 265.460938 C 0.164062 161.816406 84.035156 77.796875 187.5 77.796875 " fill-opacity="1" fill-rule="nonzero"/></g><path fill="#ee2533" d="M 273.527344 116.195312 C 324.9375 145.996094 359.527344 201.679688 359.527344 265.460938 L 187.5 265.460938 L 273.527344 116.195312 " fill-opacity="1" fill-rule="nonzero"/><path fill="#fcda34" d="M 101.472656 116.195312 C 126.78125 101.53125 156.160156 93.132812 187.5 93.132812 C 218.839844 93.132812 248.21875 101.53125 273.527344 116.195312 L 187.5 265.460938 L 101.472656 116.195312 " fill-opacity="1" fill-rule="nonzero"/><path fill="#46b753" d="M 101.472656 116.195312 L 187.5 265.460938 L 15.472656 265.460938 C 15.472656 201.679688 50.0625 145.996094 101.472656 116.195312 " fill-opacity="1" fill-rule="nonzero"/><path fill="#ffffff" d="M 187.5 219.785156 C 212.683594 219.785156 233.09375 240.234375 233.09375 265.460938 L 141.90625 265.460938 C 141.90625 240.234375 162.316406 219.785156 187.5 219.785156 " fill-opacity="1" fill-rule="nonzero"/><g clip-path="url(#369bb88c2a)"><path fill="#696867" d="M 174.699219 240.195312 L 184.976562 156.328125 C 185.34375 153.347656 189.65625 153.347656 190.023438 156.328125 L 200.300781 240.195312 C 209.484375 244.875 215.785156 254.425781 215.785156 265.460938 C 215.785156 281.105469 203.121094 293.792969 187.5 293.792969 C 171.878906 293.792969 159.214844 281.105469 159.214844 265.460938 C 159.214844 254.425781 165.515625 244.875 174.699219 240.195312 " fill-opacity="1" fill-rule="nonzero"/></g><g fill="#545454" fill-opacity="1"><g transform="translate(30.802737, 52.124997)"><g><path d="M 17.578125 -42.894531 L 4.800781 -42.894531 L 4.800781 0 L 17.578125 0 C 46.132812 0 46.132812 -42.894531 17.578125 -42.894531 Z M 17.578125 -34.316406 C 34.253906 -34.316406 34.253906 -8.578125 17.578125 -8.578125 L 13.378906 -8.578125 L 13.378906 -34.316406 Z M 17.578125 -34.316406 "/></g></g></g><g fill="#545454" fill-opacity="1"><g transform="translate(73.034511, 52.124997)"><g><path d="M 13.378906 0 L 13.378906 -42.894531 L 4.800781 -42.894531 L 4.800781 0 Z M 13.378906 0 "/></g></g></g><g fill="#545454" fill-opacity="1"><g transform="translate(91.270956, 52.124997)"><g><path d="M 26.214844 -34.316406 L 26.214844 -42.894531 L 4.800781 -42.894531 L 4.800781 0 L 13.378906 0 L 13.378906 -17.15625 L 24.296875 -17.15625 L 24.296875 -25.738281 L 13.378906 -25.738281 L 13.378906 -34.316406 Z M 26.214844 -34.316406 "/></g></g></g><g fill="#545454" fill-opacity="1"><g transform="translate(119.765404, 52.124997)"><g><path d="M 26.214844 -34.316406 L 26.214844 -42.894531 L 4.800781 -42.894531 L 4.800781 0 L 13.378906 0 L 13.378906 -17.15625 L 24.296875 -17.15625 L 24.296875 -25.738281 L 13.378906 -25.738281 L 13.378906 -34.316406 Z M 26.214844 -34.316406 "/></g></g></g><g fill="#545454" fill-opacity="1"><g transform="translate(148.259851, 52.124997)"><g><path d="M 13.378906 0 L 13.378906 -42.894531 L 4.800781 -42.894531 L 4.800781 0 Z M 13.378906 0 "/></g></g></g><g fill="#545454" fill-opacity="1"><g transform="translate(166.496296, 52.124997)"><g><path d="M 32.097656 -32.9375 L 33.117188 -41.753906 C 30.535156 -42.894531 27.65625 -43.433594 24.65625 -43.433594 C -4.378906 -43.433594 -4.4375 0.121094 24.65625 0.121094 C 27.65625 0.121094 31.4375 -0.601562 34.074219 -1.679688 L 32.9375 -10.558594 C 31.316406 -9.71875 28.375 -8.640625 24.65625 -8.640625 C 7.679688 -8.640625 7.679688 -34.796875 24.65625 -34.796875 C 28.375 -34.796875 30.476562 -33.777344 32.097656 -32.9375 Z M 32.097656 -32.9375 "/></g></g></g><g fill="#545454" fill-opacity="1"><g transform="translate(202.609259, 52.124997)"><g><path d="M 35.574219 -14.9375 L 35.574219 -42.894531 L 27.054688 -42.894531 L 27.054688 -15 C 27.054688 -6 13.136719 -6 13.136719 -15 L 13.136719 -42.894531 L 4.558594 -42.894531 L 4.558594 -14.9375 C 4.558594 5.460938 35.574219 5.460938 35.574219 -14.9375 Z M 35.574219 -14.9375 "/></g></g></g><g fill="#545454" fill-opacity="1"><g transform="translate(242.861423, 52.124997)"><g><path d="M 4.800781 -42.894531 L 4.800781 0 L 26.996094 0 L 26.996094 -8.578125 L 13.378906 -8.578125 L 13.378906 -42.894531 Z M 4.800781 -42.894531 "/></g></g></g><g fill="#545454" fill-opacity="1"><g transform="translate(272.435655, 52.124997)"><g><path d="M 20.457031 0 L 20.457031 -34.316406 L 31.136719 -34.316406 L 31.136719 -42.835938 L 1.199219 -42.835938 L 1.199219 -34.316406 L 11.878906 -34.316406 L 11.878906 0 Z M 20.457031 0 "/></g></g></g><g fill="#545454" fill-opacity="1"><g transform="translate(305.249252, 52.124997)"><g><path d="M 15.296875 0 L 23.816406 0 L 23.816406 -19.316406 L 38.816406 -42.894531 L 28.316406 -42.894531 L 19.558594 -28.136719 L 10.796875 -42.894531 L 0.359375 -42.894531 L 15.296875 -19.316406 Z M 15.296875 0 "/></g></g></g></svg>