<svg xmlns="http://www.w3.org/2000/svg" xmlns:xlink="http://www.w3.org/1999/xlink" width="500" zoomAndPan="magnify" viewBox="0 0 375 374.999991" height="500" preserveAspectRatio="xMidYMid meet" version="1.0"><defs><clipPath id="fe3917d901"><path d="M 102 69 L 275.746094 69 L 275.746094 123 L 102 123 Z M 102 69 " clip-rule="nonzero"/></clipPath></defs><path fill="#5271ff" d="M 64.0625 355.609375 C 64.0625 355.609375 83.941406 374.390625 85.277344 374.679688 C 86.617188 374.96875 115.0625 374.679688 116.128906 372.277344 C 117.191406 369.875 116.714844 228.148438 114.5625 220.457031 C 112.410156 212.761719 95.921875 202.246094 93.699219 201.824219 C 91.476562 201.398438 64.0625 355.609375 64.0625 355.609375 Z M 64.0625 355.609375 " fill-opacity="1" fill-rule="nonzero"/><path fill="#5271ff" d="M 156.621094 268.484375 C 156.621094 268.484375 175.402344 288.359375 175.691406 289.691406 C 175.980469 291.023438 175.691406 319.476562 173.289062 320.550781 C 170.886719 321.621094 29.160156 321.128906 21.464844 318.984375 C 13.773438 316.839844 3.253906 300.296875 2.832031 298.074219 C 2.410156 295.851562 156.621094 268.484375 156.621094 268.484375 Z M 156.621094 268.484375 " fill-opacity="1" fill-rule="nonzero"/><path fill="#5271ff" d="M 3.96875 268.484375 C 3.96875 268.484375 -0.03125 298.855469 3.96875 299.652344 C 7.964844 300.453125 155.007812 303.644531 156.621094 299.652344 C 158.230469 295.664062 159.820312 272.472656 156.621094 268.484375 C 153.417969 264.492188 25.144531 267.316406 18.773438 267.316406 C 13.816406 267.425781 8.882812 267.816406 3.96875 268.484375 Z M 3.96875 268.484375 " fill-opacity="1" fill-rule="nonzero"/><path fill="#5271ff" d="M 64.0625 202.957031 C 64.0625 202.957031 94.433594 198.957031 95.234375 202.957031 C 96.03125 206.957031 99.230469 353.996094 95.234375 355.609375 C 91.234375 357.222656 68.0625 358.808594 64.0625 355.609375 C 60.0625 352.40625 62.898438 224.132812 62.898438 217.765625 C 63.007812 212.804688 63.394531 207.871094 64.0625 202.957031 Z M 64.0625 202.957031 " fill-opacity="1" fill-rule="nonzero"/><path fill="#5271ff" d="M 66.292969 211.730469 C 66.410156 212.246094 66.503906 212.769531 66.582031 213.296875 L 66.511719 212.769531 C 66.6875 214.121094 66.710938 215.476562 66.574219 216.832031 C 66.582031 217.363281 66.769531 217.816406 67.144531 218.195312 C 67.53125 218.570312 67.992188 218.761719 68.53125 218.765625 C 69.070312 218.765625 69.53125 218.574219 69.917969 218.195312 C 70.265625 217.808594 70.457031 217.351562 70.488281 216.832031 C 70.675781 214.769531 70.535156 212.730469 70.066406 210.710938 C 69.996094 210.464844 69.878906 210.238281 69.71875 210.035156 C 69.5625 209.832031 69.367188 209.664062 69.144531 209.539062 C 68.917969 209.410156 68.679688 209.332031 68.421875 209.296875 C 68.164062 209.265625 67.910156 209.285156 67.664062 209.351562 C 67.414062 209.425781 67.191406 209.539062 66.988281 209.699219 C 66.785156 209.859375 66.621094 210.050781 66.492188 210.277344 C 66.367188 210.5 66.285156 210.738281 66.25 210.996094 C 66.214844 211.25 66.230469 211.503906 66.292969 211.753906 Z M 66.292969 211.730469 " fill-opacity="1" fill-rule="nonzero"/><path fill="#5271ff" d="M 65.535156 228 L 65.125 260.375 C 65.125 262.886719 69.039062 262.894531 69.039062 260.375 L 69.445312 228 C 69.445312 225.480469 65.535156 225.480469 65.535156 228 Z M 65.535156 228 " fill-opacity="1" fill-rule="nonzero"/><path fill="#5271ff" d="M 13.40625 276.308594 C 16.878906 276.496094 20.34375 276.378906 23.796875 275.957031 C 24.054688 275.949219 24.300781 275.894531 24.539062 275.792969 C 24.777344 275.691406 24.984375 275.550781 25.167969 275.367188 C 25.347656 275.1875 25.492188 274.976562 25.59375 274.742188 C 25.695312 274.503906 25.746094 274.257812 25.753906 274 C 25.707031 273.046875 24.886719 271.910156 23.796875 272.042969 C 20.34375 272.46875 16.878906 272.585938 13.40625 272.394531 C 13.148438 272.398438 12.898438 272.449219 12.660156 272.546875 C 12.417969 272.648438 12.207031 272.789062 12.023438 272.972656 C 11.839844 273.15625 11.699219 273.367188 11.601562 273.605469 C 11.5 273.84375 11.449219 274.09375 11.449219 274.351562 C 11.453125 274.609375 11.507812 274.859375 11.609375 275.09375 C 11.710938 275.332031 11.851562 275.542969 12.035156 275.726562 C 12.214844 275.90625 12.425781 276.050781 12.664062 276.148438 C 12.898438 276.25 13.148438 276.304688 13.40625 276.308594 Z M 13.40625 276.308594 " fill-opacity="1" fill-rule="nonzero"/><path fill="#5271ff" d="M 263.050781 355.609375 C 263.050781 355.609375 282.929688 374.390625 284.269531 374.679688 C 285.605469 374.96875 314.054688 374.679688 315.117188 372.277344 C 316.183594 369.875 315.703125 228.148438 313.550781 220.457031 C 311.402344 212.761719 294.910156 202.246094 292.6875 201.824219 C 290.464844 201.398438 263.050781 355.609375 263.050781 355.609375 Z M 263.050781 355.609375 " fill-opacity="1" fill-rule="nonzero"/><path fill="#5271ff" d="M 355.609375 268.484375 C 355.609375 268.484375 374.390625 288.359375 374.679688 289.691406 C 374.96875 291.023438 374.679688 319.476562 372.277344 320.550781 C 369.875 321.621094 228.148438 321.128906 220.457031 318.984375 C 212.761719 316.839844 202.246094 300.296875 201.824219 298.074219 C 201.398438 295.851562 355.609375 268.484375 355.609375 268.484375 Z M 355.609375 268.484375 " fill-opacity="1" fill-rule="nonzero"/><path fill="#5271ff" d="M 202.957031 268.484375 C 202.957031 268.484375 198.957031 298.855469 202.957031 299.652344 C 206.957031 300.453125 353.996094 303.644531 355.609375 299.652344 C 357.222656 295.664062 358.808594 272.472656 355.609375 268.484375 C 352.40625 264.492188 224.132812 267.316406 217.765625 267.316406 C 212.804688 267.425781 207.871094 267.816406 202.957031 268.484375 Z M 202.957031 268.484375 " fill-opacity="1" fill-rule="nonzero"/><path fill="#5271ff" d="M 263.050781 202.957031 C 263.050781 202.957031 293.425781 198.957031 294.222656 202.957031 C 295.019531 206.957031 298.222656 353.996094 294.222656 355.609375 C 290.222656 357.222656 267.050781 358.808594 263.050781 355.609375 C 259.054688 352.40625 261.886719 224.132812 261.886719 217.765625 C 261.996094 212.804688 262.382812 207.871094 263.050781 202.957031 Z M 263.050781 202.957031 " fill-opacity="1" fill-rule="nonzero"/><path fill="#5271ff" d="M 265.28125 211.730469 C 265.398438 212.246094 265.492188 212.769531 265.570312 213.296875 L 265.5 212.769531 C 265.679688 214.121094 265.699219 215.476562 265.5625 216.832031 C 265.570312 217.363281 265.761719 217.816406 266.136719 218.195312 C 266.519531 218.570312 266.984375 218.761719 267.519531 218.765625 C 268.058594 218.765625 268.523438 218.574219 268.90625 218.195312 C 269.253906 217.808594 269.445312 217.351562 269.476562 216.832031 C 269.667969 214.769531 269.527344 212.730469 269.054688 210.710938 C 268.984375 210.464844 268.871094 210.238281 268.710938 210.035156 C 268.550781 209.832031 268.359375 209.664062 268.132812 209.539062 C 267.90625 209.410156 267.667969 209.332031 267.410156 209.296875 C 267.15625 209.265625 266.902344 209.285156 266.652344 209.351562 C 266.40625 209.425781 266.179688 209.539062 265.976562 209.699219 C 265.777344 209.859375 265.609375 210.050781 265.484375 210.277344 C 265.355469 210.5 265.273438 210.738281 265.238281 210.996094 C 265.207031 211.25 265.21875 211.503906 265.28125 211.753906 Z M 265.28125 211.730469 " fill-opacity="1" fill-rule="nonzero"/><path fill="#5271ff" d="M 264.523438 228 L 264.117188 260.375 C 264.117188 262.886719 268.03125 262.894531 268.03125 260.375 L 268.4375 228 C 268.4375 225.480469 264.523438 225.480469 264.523438 228 Z M 264.523438 228 " fill-opacity="1" fill-rule="nonzero"/><path fill="#5271ff" d="M 212.394531 276.308594 C 215.871094 276.496094 219.335938 276.378906 222.789062 275.957031 C 223.046875 275.949219 223.292969 275.894531 223.527344 275.792969 C 223.765625 275.691406 223.972656 275.550781 224.15625 275.367188 C 224.339844 275.1875 224.480469 274.976562 224.582031 274.742188 C 224.683594 274.503906 224.738281 274.257812 224.746094 274 C 224.699219 273.046875 223.875 271.910156 222.789062 272.042969 C 219.335938 272.46875 215.871094 272.585938 212.394531 272.394531 C 212.136719 272.398438 211.886719 272.449219 211.648438 272.546875 C 211.410156 272.648438 211.199219 272.789062 211.015625 272.972656 C 210.832031 273.15625 210.691406 273.367188 210.589844 273.605469 C 210.488281 273.84375 210.441406 274.09375 210.4375 274.351562 C 210.445312 274.609375 210.496094 274.859375 210.597656 275.09375 C 210.699219 275.332031 210.839844 275.542969 211.023438 275.726562 C 211.207031 275.90625 211.414062 276.050781 211.652344 276.148438 C 211.890625 276.25 212.136719 276.304688 212.394531 276.308594 Z M 212.394531 276.308594 " fill-opacity="1" fill-rule="nonzero"/><path fill="#5271ff" d="M 163.558594 156.621094 C 163.558594 156.621094 183.433594 175.402344 184.773438 175.691406 C 186.113281 175.980469 214.558594 175.691406 215.621094 173.289062 C 216.6875 170.886719 216.210938 29.160156 214.058594 21.464844 C 211.90625 13.773438 195.417969 3.253906 193.195312 2.832031 C 190.972656 2.410156 163.558594 156.621094 163.558594 156.621094 Z M 163.558594 156.621094 " fill-opacity="1" fill-rule="nonzero"/><g clip-path="url(#fe3917d901)"><path fill="#5271ff" d="M 256.113281 69.492188 C 256.113281 69.492188 274.894531 89.371094 275.1875 90.703125 C 275.476562 92.03125 275.1875 120.488281 272.78125 121.558594 C 270.378906 122.632812 128.652344 122.136719 120.960938 119.992188 C 113.269531 117.851562 102.75 101.304688 102.328125 99.082031 C 101.90625 96.859375 256.113281 69.492188 256.113281 69.492188 Z M 256.113281 69.492188 " fill-opacity="1" fill-rule="nonzero"/></g><path fill="#5271ff" d="M 103.460938 69.492188 C 103.460938 69.492188 99.464844 99.867188 103.460938 100.664062 C 107.460938 101.460938 254.5 104.65625 256.113281 100.664062 C 257.726562 96.671875 259.316406 73.484375 256.113281 69.492188 C 252.914062 65.503906 124.640625 68.328125 118.269531 68.328125 C 113.3125 68.4375 108.375 68.824219 103.460938 69.492188 Z M 103.460938 69.492188 " fill-opacity="1" fill-rule="nonzero"/><path fill="#5271ff" d="M 163.558594 3.96875 C 163.558594 3.96875 193.929688 -0.03125 194.726562 3.96875 C 195.527344 7.964844 198.726562 155.007812 194.726562 156.621094 C 190.730469 158.230469 167.554688 159.820312 163.558594 156.621094 C 159.558594 153.417969 162.390625 25.144531 162.390625 18.773438 C 162.5 13.816406 162.890625 8.882812 163.558594 3.96875 Z M 163.558594 3.96875 " fill-opacity="1" fill-rule="nonzero"/><path fill="#5271ff" d="M 165.789062 12.742188 C 165.90625 13.257812 166 13.78125 166.078125 14.304688 L 166.007812 13.78125 C 166.183594 15.132812 166.203125 16.488281 166.070312 17.84375 C 166.074219 18.375 166.265625 18.828125 166.640625 19.203125 C 167.027344 19.582031 167.488281 19.769531 168.027344 19.777344 C 168.566406 19.773438 169.027344 19.582031 169.410156 19.203125 C 169.757812 18.816406 169.949219 18.363281 169.984375 17.84375 C 170.171875 15.78125 170.03125 13.742188 169.558594 11.722656 C 169.488281 11.472656 169.375 11.25 169.214844 11.046875 C 169.054688 10.839844 168.863281 10.675781 168.636719 10.550781 C 168.414062 10.421875 168.171875 10.339844 167.917969 10.308594 C 167.660156 10.277344 167.40625 10.292969 167.15625 10.363281 C 166.910156 10.433594 166.683594 10.550781 166.484375 10.710938 C 166.28125 10.871094 166.117188 11.0625 165.988281 11.285156 C 165.859375 11.511719 165.78125 11.75 165.746094 12.007812 C 165.710938 12.261719 165.726562 12.515625 165.789062 12.765625 Z M 165.789062 12.742188 " fill-opacity="1" fill-rule="nonzero"/><path fill="#5271ff" d="M 165.027344 29.011719 L 164.621094 61.386719 C 164.621094 63.898438 168.535156 63.90625 168.535156 61.386719 L 168.941406 29.011719 C 168.941406 26.492188 165.027344 26.492188 165.027344 29.011719 Z M 165.027344 29.011719 " fill-opacity="1" fill-rule="nonzero"/><path fill="#5271ff" d="M 112.902344 77.320312 C 116.375 77.507812 119.839844 77.390625 123.292969 76.96875 C 123.550781 76.960938 123.796875 76.90625 124.035156 76.804688 C 124.269531 76.703125 124.480469 76.5625 124.660156 76.378906 C 124.84375 76.195312 124.984375 75.988281 125.085938 75.75 C 125.1875 75.515625 125.242188 75.269531 125.25 75.011719 C 125.203125 74.054688 124.382812 72.921875 123.292969 73.054688 C 119.839844 73.476562 116.375 73.59375 112.902344 73.40625 C 112.640625 73.40625 112.390625 73.457031 112.152344 73.558594 C 111.914062 73.65625 111.703125 73.796875 111.519531 73.980469 C 111.335938 74.164062 111.195312 74.375 111.09375 74.617188 C 110.996094 74.855469 110.945312 75.105469 110.945312 75.363281 C 110.949219 75.621094 111.003906 75.867188 111.101562 76.105469 C 111.203125 76.34375 111.347656 76.554688 111.527344 76.734375 C 111.710938 76.917969 111.921875 77.058594 112.15625 77.160156 C 112.394531 77.261719 112.644531 77.316406 112.902344 77.320312 Z M 112.902344 77.320312 " fill-opacity="1" fill-rule="nonzero"/></svg>