<svg xmlns="http://www.w3.org/2000/svg" xmlns:xlink="http://www.w3.org/1999/xlink" width="500" zoomAndPan="magnify" viewBox="0 0 375 374.999991" height="500" preserveAspectRatio="xMidYMid meet" version="1.0"><path fill="#4e7943" d="M 64.0625 156.621094 C 64.0625 156.621094 83.941406 175.402344 85.277344 175.691406 C 86.617188 175.980469 115.0625 175.691406 116.128906 173.289062 C 117.191406 170.886719 116.714844 29.160156 114.5625 21.464844 C 112.410156 13.773438 95.921875 3.253906 93.699219 2.832031 C 91.476562 2.410156 64.0625 156.621094 64.0625 156.621094 Z M 64.0625 156.621094 " fill-opacity="1" fill-rule="nonzero"/><path fill="#4e7943" d="M 156.621094 69.492188 C 156.621094 69.492188 175.402344 89.371094 175.691406 90.703125 C 175.980469 92.03125 175.691406 120.488281 173.289062 121.558594 C 170.886719 122.632812 29.160156 122.136719 21.464844 119.992188 C 13.773438 117.851562 3.253906 101.304688 2.832031 99.082031 C 2.410156 96.859375 156.621094 69.492188 156.621094 69.492188 Z M 156.621094 69.492188 " fill-opacity="1" fill-rule="nonzero"/><path fill="#4e7943" d="M 3.96875 69.492188 C 3.96875 69.492188 -0.03125 99.867188 3.96875 100.664062 C 7.964844 101.460938 155.007812 104.65625 156.621094 100.664062 C 158.230469 96.671875 159.820312 73.484375 156.621094 69.492188 C 153.417969 65.503906 25.144531 68.328125 18.773438 68.328125 C 13.816406 68.4375 8.882812 68.824219 3.96875 69.492188 Z M 3.96875 69.492188 " fill-opacity="1" fill-rule="nonzero"/><path fill="#4e7943" d="M 64.0625 3.96875 C 64.0625 3.96875 94.433594 -0.03125 95.234375 3.96875 C 96.03125 7.964844 99.230469 155.007812 95.234375 156.621094 C 91.234375 158.230469 68.0625 159.820312 64.0625 156.621094 C 60.0625 153.417969 62.898438 25.144531 62.898438 18.773438 C 63.007812 13.816406 63.394531 8.882812 64.0625 3.96875 Z M 64.0625 3.96875 " fill-opacity="1" fill-rule="nonzero"/><path fill="#4e7943" d="M 66.292969 12.742188 C 66.410156 13.257812 66.503906 13.78125 66.582031 14.304688 L 66.511719 13.78125 C 66.6875 15.132812 66.710938 16.488281 66.574219 17.84375 C 66.582031 18.375 66.769531 18.828125 67.144531 19.203125 C 67.53125 19.582031 67.992188 19.769531 68.53125 19.777344 C 69.070312 19.773438 69.53125 19.582031 69.917969 19.203125 C 70.265625 18.816406 70.457031 18.363281 70.488281 17.84375 C 70.675781 15.78125 70.535156 13.742188 70.066406 11.722656 C 69.996094 11.472656 69.878906 11.25 69.71875 11.046875 C 69.5625 10.839844 69.367188 10.675781 69.144531 10.550781 C 68.917969 10.421875 68.679688 10.339844 68.421875 10.308594 C 68.164062 10.277344 67.910156 10.292969 67.664062 10.363281 C 67.414062 10.433594 67.191406 10.550781 66.988281 10.710938 C 66.785156 10.871094 66.621094 11.0625 66.492188 11.285156 C 66.367188 11.511719 66.285156 11.75 66.25 12.007812 C 66.214844 12.261719 66.230469 12.515625 66.292969 12.765625 Z M 66.292969 12.742188 " fill-opacity="1" fill-rule="nonzero"/><path fill="#4e7943" d="M 65.535156 29.011719 L 65.125 61.386719 C 65.125 63.898438 69.039062 63.90625 69.039062 61.386719 L 69.445312 29.011719 C 69.445312 26.492188 65.535156 26.492188 65.535156 29.011719 Z M 65.535156 29.011719 " fill-opacity="1" fill-rule="nonzero"/><path fill="#4e7943" d="M 13.40625 77.320312 C 16.878906 77.507812 20.34375 77.390625 23.796875 76.96875 C 24.054688 76.960938 24.300781 76.90625 24.539062 76.804688 C 24.777344 76.703125 24.984375 76.5625 25.167969 76.378906 C 25.347656 76.195312 25.492188 75.988281 25.59375 75.75 C 25.695312 75.515625 25.746094 75.269531 25.753906 75.011719 C 25.707031 74.054688 24.886719 72.921875 23.796875 73.054688 C 20.34375 73.476562 16.878906 73.59375 13.40625 73.40625 C 13.148438 73.40625 12.898438 73.457031 12.660156 73.558594 C 12.417969 73.65625 12.207031 73.796875 12.023438 73.980469 C 11.839844 74.164062 11.699219 74.375 11.601562 74.617188 C 11.5 74.855469 11.449219 75.105469 11.449219 75.363281 C 11.453125 75.621094 11.507812 75.867188 11.609375 76.105469 C 11.710938 76.34375 11.851562 76.554688 12.035156 76.734375 C 12.214844 76.917969 12.425781 77.058594 12.664062 77.160156 C 12.898438 77.261719 13.148438 77.316406 13.40625 77.320312 Z M 13.40625 77.320312 " fill-opacity="1" fill-rule="nonzero"/><path fill="#4e7943" d="M 263.050781 156.621094 C 263.050781 156.621094 282.929688 175.402344 284.269531 175.691406 C 285.605469 175.980469 314.054688 175.691406 315.117188 173.289062 C 316.183594 170.886719 315.703125 29.160156 313.550781 21.464844 C 311.402344 13.773438 294.910156 3.253906 292.6875 2.832031 C 290.464844 2.410156 263.050781 156.621094 263.050781 156.621094 Z M 263.050781 156.621094 " fill-opacity="1" fill-rule="nonzero"/><path fill="#4e7943" d="M 355.609375 69.492188 C 355.609375 69.492188 374.390625 89.371094 374.679688 90.703125 C 374.96875 92.03125 374.679688 120.488281 372.277344 121.558594 C 369.875 122.632812 228.148438 122.136719 220.457031 119.992188 C 212.761719 117.851562 202.246094 101.304688 201.824219 99.082031 C 201.398438 96.859375 355.609375 69.492188 355.609375 69.492188 Z M 355.609375 69.492188 " fill-opacity="1" fill-rule="nonzero"/><path fill="#4e7943" d="M 202.957031 69.492188 C 202.957031 69.492188 198.957031 99.867188 202.957031 100.664062 C 206.957031 101.460938 353.996094 104.65625 355.609375 100.664062 C 357.222656 96.671875 358.808594 73.484375 355.609375 69.492188 C 352.40625 65.503906 224.132812 68.328125 217.765625 68.328125 C 212.804688 68.4375 207.871094 68.824219 202.957031 69.492188 Z M 202.957031 69.492188 " fill-opacity="1" fill-rule="nonzero"/><path fill="#4e7943" d="M 263.050781 3.96875 C 263.050781 3.96875 293.425781 -0.03125 294.222656 3.96875 C 295.019531 7.964844 298.222656 155.007812 294.222656 156.621094 C 290.222656 158.230469 267.050781 159.820312 263.050781 156.621094 C 259.054688 153.417969 261.886719 25.144531 261.886719 18.773438 C 261.996094 13.816406 262.382812 8.882812 263.050781 3.96875 Z M 263.050781 3.96875 " fill-opacity="1" fill-rule="nonzero"/><path fill="#4e7943" d="M 265.28125 12.742188 C 265.398438 13.257812 265.492188 13.78125 265.570312 14.304688 L 265.5 13.78125 C 265.679688 15.132812 265.699219 16.488281 265.5625 17.84375 C 265.570312 18.375 265.761719 18.828125 266.136719 19.203125 C 266.519531 19.582031 266.984375 19.769531 267.519531 19.777344 C 268.058594 19.773438 268.523438 19.582031 268.90625 19.203125 C 269.253906 18.816406 269.445312 18.363281 269.476562 17.84375 C 269.667969 15.78125 269.527344 13.742188 269.054688 11.722656 C 268.984375 11.472656 268.871094 11.25 268.710938 11.046875 C 268.550781 10.839844 268.359375 10.675781 268.132812 10.550781 C 267.90625 10.421875 267.667969 10.339844 267.410156 10.308594 C 267.15625 10.277344 266.902344 10.292969 266.652344 10.363281 C 266.40625 10.433594 266.179688 10.550781 265.976562 10.710938 C 265.777344 10.871094 265.609375 11.0625 265.484375 11.285156 C 265.355469 11.511719 265.273438 11.75 265.238281 12.007812 C 265.207031 12.261719 265.21875 12.515625 265.28125 12.765625 Z M 265.28125 12.742188 " fill-opacity="1" fill-rule="nonzero"/><path fill="#4e7943" d="M 264.523438 29.011719 L 264.117188 61.386719 C 264.117188 63.898438 268.03125 63.90625 268.03125 61.386719 L 268.4375 29.011719 C 268.4375 26.492188 264.523438 26.492188 264.523438 29.011719 Z M 264.523438 29.011719 " fill-opacity="1" fill-rule="nonzero"/><path fill="#4e7943" d="M 212.394531 77.320312 C 215.871094 77.507812 219.335938 77.390625 222.789062 76.96875 C 223.046875 76.960938 223.292969 76.90625 223.527344 76.804688 C 223.765625 76.703125 223.972656 76.5625 224.15625 76.378906 C 224.339844 76.195312 224.480469 75.988281 224.582031 75.75 C 224.683594 75.515625 224.738281 75.269531 224.746094 75.011719 C 224.699219 74.054688 223.875 72.921875 222.789062 73.054688 C 219.335938 73.476562 215.871094 73.59375 212.394531 73.40625 C 212.136719 73.40625 211.886719 73.457031 211.648438 73.558594 C 211.410156 73.65625 211.199219 73.796875 211.015625 73.980469 C 210.832031 74.164062 210.691406 74.375 210.589844 74.617188 C 210.488281 74.855469 210.441406 75.105469 210.4375 75.363281 C 210.445312 75.621094 210.496094 75.867188 210.597656 76.105469 C 210.699219 76.34375 210.839844 76.554688 211.023438 76.734375 C 211.207031 76.917969 211.414062 77.058594 211.652344 77.160156 C 211.890625 77.261719 212.136719 77.316406 212.394531 77.320312 Z M 212.394531 77.320312 " fill-opacity="1" fill-rule="nonzero"/><path fill="#4e7943" d="M 263.050781 355.609375 C 263.050781 355.609375 282.929688 374.390625 284.269531 374.679688 C 285.605469 374.96875 314.054688 374.679688 315.117188 372.277344 C 316.183594 369.875 315.703125 228.148438 313.550781 220.457031 C 311.402344 212.761719 294.910156 202.246094 292.6875 201.824219 C 290.464844 201.398438 263.050781 355.609375 263.050781 355.609375 Z M 263.050781 355.609375 " fill-opacity="1" fill-rule="nonzero"/><path fill="#4e7943" d="M 355.609375 268.484375 C 355.609375 268.484375 374.390625 288.359375 374.679688 289.691406 C 374.96875 291.023438 374.679688 319.476562 372.277344 320.550781 C 369.875 321.621094 228.148438 321.128906 220.457031 318.984375 C 212.761719 316.839844 202.246094 300.296875 201.824219 298.074219 C 201.398438 295.851562 355.609375 268.484375 355.609375 268.484375 Z M 355.609375 268.484375 " fill-opacity="1" fill-rule="nonzero"/><path fill="#4e7943" d="M 202.957031 268.484375 C 202.957031 268.484375 198.957031 298.855469 202.957031 299.652344 C 206.957031 300.453125 353.996094 303.644531 355.609375 299.652344 C 357.222656 295.664062 358.808594 272.472656 355.609375 268.484375 C 352.40625 264.492188 224.132812 267.316406 217.765625 267.316406 C 212.804688 267.425781 207.871094 267.816406 202.957031 268.484375 Z M 202.957031 268.484375 " fill-opacity="1" fill-rule="nonzero"/><path fill="#4e7943" d="M 263.050781 202.957031 C 263.050781 202.957031 293.425781 198.957031 294.222656 202.957031 C 295.019531 206.957031 298.222656 353.996094 294.222656 355.609375 C 290.222656 357.222656 267.050781 358.808594 263.050781 355.609375 C 259.054688 352.40625 261.886719 224.132812 261.886719 217.765625 C 261.996094 212.804688 262.382812 207.871094 263.050781 202.957031 Z M 263.050781 202.957031 " fill-opacity="1" fill-rule="nonzero"/><path fill="#4e7943" d="M 265.28125 211.730469 C 265.398438 212.246094 265.492188 212.769531 265.570312 213.296875 L 265.5 212.769531 C 265.679688 214.121094 265.699219 215.476562 265.5625 216.832031 C 265.570312 217.363281 265.761719 217.816406 266.136719 218.195312 C 266.519531 218.570312 266.984375 218.761719 267.519531 218.765625 C 268.058594 218.765625 268.523438 218.574219 268.90625 218.195312 C 269.253906 217.804688 269.445312 217.351562 269.476562 216.832031 C 269.667969 214.769531 269.527344 212.730469 269.054688 210.710938 C 268.984375 210.464844 268.871094 210.238281 268.710938 210.035156 C 268.550781 209.832031 268.359375 209.664062 268.132812 209.539062 C 267.90625 209.410156 267.667969 209.332031 267.410156 209.296875 C 267.15625 209.265625 266.902344 209.285156 266.652344 209.351562 C 266.40625 209.425781 266.179688 209.539062 265.976562 209.699219 C 265.777344 209.859375 265.609375 210.050781 265.484375 210.277344 C 265.355469 210.5 265.273438 210.738281 265.238281 210.996094 C 265.207031 211.25 265.21875 211.503906 265.28125 211.753906 Z M 265.28125 211.730469 " fill-opacity="1" fill-rule="nonzero"/><path fill="#4e7943" d="M 264.523438 228 L 264.117188 260.375 C 264.117188 262.886719 268.03125 262.894531 268.03125 260.375 L 268.4375 228 C 268.4375 225.480469 264.523438 225.480469 264.523438 228 Z M 264.523438 228 " fill-opacity="1" fill-rule="nonzero"/><path fill="#4e7943" d="M 212.394531 276.308594 C 215.871094 276.496094 219.335938 276.378906 222.789062 275.957031 C 223.046875 275.949219 223.292969 275.894531 223.527344 275.792969 C 223.765625 275.691406 223.972656 275.550781 224.15625 275.367188 C 224.339844 275.1875 224.480469 274.976562 224.582031 274.742188 C 224.683594 274.503906 224.738281 274.257812 224.746094 274 C 224.699219 273.046875 223.875 271.910156 222.789062 272.042969 C 219.335938 272.46875 215.871094 272.585938 212.394531 272.394531 C 212.136719 272.398438 211.886719 272.449219 211.648438 272.546875 C 211.410156 272.648438 211.199219 272.789062 211.015625 272.972656 C 210.832031 273.15625 210.691406 273.367188 210.589844 273.605469 C 210.488281 273.84375 210.441406 274.09375 210.4375 274.351562 C 210.445312 274.609375 210.496094 274.859375 210.597656 275.09375 C 210.699219 275.332031 210.839844 275.542969 211.023438 275.726562 C 211.207031 275.90625 211.414062 276.050781 211.652344 276.148438 C 211.890625 276.25 212.136719 276.304688 212.394531 276.308594 Z M 212.394531 276.308594 " fill-opacity="1" fill-rule="nonzero"/><path fill="#4e7943" d="M 64.0625 355.609375 C 64.0625 355.609375 83.941406 374.390625 85.277344 374.679688 C 86.617188 374.96875 115.0625 374.679688 116.128906 372.277344 C 117.191406 369.875 116.714844 228.148438 114.5625 220.457031 C 112.410156 212.761719 95.921875 202.246094 93.699219 201.824219 C 91.476562 201.398438 64.0625 355.609375 64.0625 355.609375 Z M 64.0625 355.609375 " fill-opacity="1" fill-rule="nonzero"/><path fill="#4e7943" d="M 156.621094 268.484375 C 156.621094 268.484375 175.402344 288.359375 175.691406 289.691406 C 175.980469 291.023438 175.691406 319.476562 173.289062 320.550781 C 170.886719 321.621094 29.160156 321.128906 21.464844 318.984375 C 13.773438 316.839844 3.253906 300.296875 2.832031 298.074219 C 2.410156 295.851562 156.621094 268.484375 156.621094 268.484375 Z M 156.621094 268.484375 " fill-opacity="1" fill-rule="nonzero"/><path fill="#4e7943" d="M 3.96875 268.484375 C 3.96875 268.484375 -0.03125 298.855469 3.96875 299.652344 C 7.964844 300.453125 155.007812 303.644531 156.621094 299.652344 C 158.230469 295.664062 159.820312 272.472656 156.621094 268.484375 C 153.417969 264.492188 25.144531 267.316406 18.773438 267.316406 C 13.816406 267.425781 8.882812 267.816406 3.96875 268.484375 Z M 3.96875 268.484375 " fill-opacity="1" fill-rule="nonzero"/><path fill="#4e7943" d="M 64.0625 202.957031 C 64.0625 202.957031 94.433594 198.957031 95.234375 202.957031 C 96.03125 206.957031 99.230469 353.996094 95.234375 355.609375 C 91.234375 357.222656 68.0625 358.808594 64.0625 355.609375 C 60.0625 352.40625 62.898438 224.132812 62.898438 217.765625 C 63.007812 212.804688 63.394531 207.871094 64.0625 202.957031 Z M 64.0625 202.957031 " fill-opacity="1" fill-rule="nonzero"/><path fill="#4e7943" d="M 66.292969 211.730469 C 66.410156 212.246094 66.503906 212.769531 66.582031 213.296875 L 66.511719 212.769531 C 66.6875 214.121094 66.710938 215.476562 66.574219 216.832031 C 66.582031 217.363281 66.769531 217.816406 67.144531 218.195312 C 67.53125 218.570312 67.992188 218.761719 68.53125 218.765625 C 69.070312 218.765625 69.53125 218.574219 69.917969 218.195312 C 70.265625 217.804688 70.457031 217.351562 70.488281 216.832031 C 70.675781 214.769531 70.535156 212.730469 70.066406 210.710938 C 69.996094 210.464844 69.878906 210.238281 69.71875 210.035156 C 69.5625 209.832031 69.367188 209.664062 69.144531 209.539062 C 68.917969 209.410156 68.679688 209.332031 68.421875 209.296875 C 68.164062 209.265625 67.910156 209.285156 67.664062 209.351562 C 67.414062 209.425781 67.191406 209.539062 66.988281 209.699219 C 66.785156 209.859375 66.621094 210.050781 66.492188 210.277344 C 66.367188 210.5 66.285156 210.738281 66.25 210.996094 C 66.214844 211.25 66.230469 211.503906 66.292969 211.753906 Z M 66.292969 211.730469 " fill-opacity="1" fill-rule="nonzero"/><path fill="#4e7943" d="M 65.535156 228 L 65.125 260.375 C 65.125 262.886719 69.039062 262.894531 69.039062 260.375 L 69.445312 228 C 69.445312 225.480469 65.535156 225.480469 65.535156 228 Z M 65.535156 228 " fill-opacity="1" fill-rule="nonzero"/><path fill="#4e7943" d="M 13.40625 276.308594 C 16.878906 276.496094 20.34375 276.378906 23.796875 275.957031 C 24.054688 275.949219 24.300781 275.894531 24.539062 275.792969 C 24.777344 275.691406 24.984375 275.550781 25.167969 275.367188 C 25.347656 275.1875 25.492188 274.976562 25.59375 274.742188 C 25.695312 274.503906 25.746094 274.257812 25.753906 274 C 25.707031 273.046875 24.886719 271.910156 23.796875 272.042969 C 20.34375 272.46875 16.878906 272.585938 13.40625 272.394531 C 13.148438 272.398438 12.898438 272.449219 12.660156 272.546875 C 12.417969 272.648438 12.207031 272.789062 12.023438 272.972656 C 11.839844 273.15625 11.699219 273.367188 11.601562 273.605469 C 11.5 273.84375 11.449219 274.09375 11.449219 274.351562 C 11.453125 274.609375 11.507812 274.859375 11.609375 275.09375 C 11.710938 275.332031 11.851562 275.542969 12.035156 275.726562 C 12.214844 275.90625 12.425781 276.050781 12.664062 276.148438 C 12.898438 276.25 13.148438 276.304688 13.40625 276.308594 Z M 13.40625 276.308594 " fill-opacity="1" fill-rule="nonzero"/></svg>