<svg xmlns="http://www.w3.org/2000/svg" xmlns:xlink="http://www.w3.org/1999/xlink" width="500" zoomAndPan="magnify" viewBox="0 0 375 374.999991" height="500" preserveAspectRatio="xMidYMid meet" version="1.0"><defs><clipPath id="b55d117314"><path d="M 263 102 L 316 102 L 316 275.746094 L 263 275.746094 Z M 263 102 " clip-rule="nonzero"/></clipPath><clipPath id="2be90c061f"><path d="M 64 102 L 117 102 L 117 275.746094 L 64 275.746094 Z M 64 102 " clip-rule="nonzero"/></clipPath></defs><g clip-path="url(#b55d117314)"><path fill="#fbe906" d="M 263.050781 256.113281 C 263.050781 256.113281 282.929688 274.894531 284.269531 275.1875 C 285.605469 275.476562 314.054688 275.1875 315.117188 272.78125 C 316.183594 270.378906 315.703125 128.652344 313.550781 120.960938 C 311.402344 113.269531 294.910156 102.75 292.6875 102.328125 C 290.464844 101.90625 263.050781 256.113281 263.050781 256.113281 Z M 263.050781 256.113281 " fill-opacity="1" fill-rule="nonzero"/></g><path fill="#fbe906" d="M 355.609375 168.988281 C 355.609375 168.988281 374.390625 188.867188 374.679688 190.195312 C 374.96875 191.527344 374.679688 219.980469 372.277344 221.054688 C 369.875 222.125 228.148438 221.632812 220.457031 219.488281 C 212.761719 217.34375 202.246094 200.800781 201.824219 198.578125 C 201.398438 196.355469 355.609375 168.988281 355.609375 168.988281 Z M 355.609375 168.988281 " fill-opacity="1" fill-rule="nonzero"/><path fill="#fbe906" d="M 202.957031 168.988281 C 202.957031 168.988281 198.957031 199.359375 202.957031 200.160156 C 206.957031 200.957031 353.996094 204.148438 355.609375 200.160156 C 357.222656 196.167969 358.808594 172.980469 355.609375 168.988281 C 352.40625 164.996094 224.132812 167.824219 217.765625 167.824219 C 212.804688 167.933594 207.871094 168.320312 202.957031 168.988281 Z M 202.957031 168.988281 " fill-opacity="1" fill-rule="nonzero"/><path fill="#fbe906" d="M 263.050781 103.460938 C 263.050781 103.460938 293.425781 99.464844 294.222656 103.460938 C 295.019531 107.460938 298.222656 254.5 294.222656 256.113281 C 290.222656 257.726562 267.050781 259.316406 263.050781 256.113281 C 259.054688 252.914062 261.886719 124.640625 261.886719 118.269531 C 261.996094 113.3125 262.382812 108.375 263.050781 103.460938 Z M 263.050781 103.460938 " fill-opacity="1" fill-rule="nonzero"/><path fill="#fbe906" d="M 265.28125 112.234375 C 265.398438 112.75 265.492188 113.277344 265.570312 113.800781 L 265.5 113.277344 C 265.679688 114.628906 265.699219 115.980469 265.5625 117.335938 C 265.570312 117.867188 265.761719 118.324219 266.136719 118.699219 C 266.519531 119.074219 266.984375 119.265625 267.519531 119.269531 C 268.058594 119.269531 268.523438 119.078125 268.90625 118.699219 C 269.253906 118.3125 269.445312 117.859375 269.476562 117.335938 C 269.667969 115.273438 269.527344 113.234375 269.054688 111.21875 C 268.984375 110.96875 268.871094 110.742188 268.710938 110.539062 C 268.550781 110.335938 268.359375 110.171875 268.132812 110.042969 C 267.90625 109.917969 267.667969 109.835938 267.410156 109.804688 C 267.15625 109.769531 266.902344 109.789062 266.652344 109.855469 C 266.40625 109.929688 266.179688 110.046875 265.976562 110.207031 C 265.777344 110.367188 265.609375 110.558594 265.484375 110.78125 C 265.355469 111.003906 265.273438 111.246094 265.238281 111.5 C 265.207031 111.757812 265.21875 112.007812 265.28125 112.257812 Z M 265.28125 112.234375 " fill-opacity="1" fill-rule="nonzero"/><path fill="#fbe906" d="M 264.523438 128.503906 L 264.117188 160.882812 C 264.117188 163.394531 268.03125 163.402344 268.03125 160.882812 L 268.4375 128.503906 C 268.4375 125.984375 264.523438 125.984375 264.523438 128.503906 Z M 264.523438 128.503906 " fill-opacity="1" fill-rule="nonzero"/><path fill="#fbe906" d="M 212.394531 176.8125 C 215.871094 177.003906 219.335938 176.886719 222.789062 176.460938 C 223.046875 176.457031 223.292969 176.402344 223.527344 176.300781 C 223.765625 176.199219 223.972656 176.054688 224.15625 175.875 C 224.339844 175.691406 224.480469 175.484375 224.582031 175.246094 C 224.683594 175.011719 224.738281 174.761719 224.746094 174.503906 C 224.699219 173.550781 223.875 172.417969 222.789062 172.550781 C 219.335938 172.972656 215.871094 173.089844 212.394531 172.902344 C 212.136719 172.902344 211.886719 172.953125 211.648438 173.050781 C 211.410156 173.152344 211.199219 173.292969 211.015625 173.476562 C 210.832031 173.660156 210.691406 173.871094 210.589844 174.109375 C 210.488281 174.351562 210.441406 174.597656 210.4375 174.859375 C 210.445312 175.117188 210.496094 175.363281 210.597656 175.601562 C 210.699219 175.839844 210.839844 176.046875 211.023438 176.230469 C 211.207031 176.414062 211.414062 176.554688 211.652344 176.65625 C 211.890625 176.757812 212.136719 176.808594 212.394531 176.8125 Z M 212.394531 176.8125 " fill-opacity="1" fill-rule="nonzero"/><g clip-path="url(#2be90c061f)"><path fill="#fbe906" d="M 64.0625 256.113281 C 64.0625 256.113281 83.941406 274.894531 85.277344 275.1875 C 86.617188 275.476562 115.0625 275.1875 116.128906 272.78125 C 117.191406 270.378906 116.714844 128.652344 114.5625 120.960938 C 112.410156 113.269531 95.921875 102.75 93.699219 102.328125 C 91.476562 101.90625 64.0625 256.113281 64.0625 256.113281 Z M 64.0625 256.113281 " fill-opacity="1" fill-rule="nonzero"/></g><path fill="#fbe906" d="M 156.621094 168.988281 C 156.621094 168.988281 175.402344 188.867188 175.691406 190.195312 C 175.980469 191.527344 175.691406 219.980469 173.289062 221.054688 C 170.886719 222.125 29.160156 221.632812 21.464844 219.488281 C 13.773438 217.34375 3.253906 200.800781 2.832031 198.578125 C 2.410156 196.355469 156.621094 168.988281 156.621094 168.988281 Z M 156.621094 168.988281 " fill-opacity="1" fill-rule="nonzero"/><path fill="#fbe906" d="M 3.96875 168.988281 C 3.96875 168.988281 -0.03125 199.359375 3.96875 200.160156 C 7.964844 200.957031 155.007812 204.148438 156.621094 200.160156 C 158.230469 196.167969 159.820312 172.980469 156.621094 168.988281 C 153.417969 164.996094 25.144531 167.824219 18.773438 167.824219 C 13.816406 167.933594 8.882812 168.320312 3.96875 168.988281 Z M 3.96875 168.988281 " fill-opacity="1" fill-rule="nonzero"/><path fill="#fbe906" d="M 64.0625 103.460938 C 64.0625 103.460938 94.433594 99.464844 95.234375 103.460938 C 96.03125 107.460938 99.230469 254.5 95.234375 256.113281 C 91.234375 257.726562 68.0625 259.316406 64.0625 256.113281 C 60.0625 252.914062 62.898438 124.640625 62.898438 118.269531 C 63.007812 113.3125 63.394531 108.375 64.0625 103.460938 Z M 64.0625 103.460938 " fill-opacity="1" fill-rule="nonzero"/><path fill="#fbe906" d="M 66.292969 112.234375 C 66.410156 112.75 66.503906 113.277344 66.582031 113.800781 L 66.511719 113.277344 C 66.6875 114.628906 66.710938 115.980469 66.574219 117.335938 C 66.582031 117.867188 66.769531 118.324219 67.144531 118.699219 C 67.53125 119.074219 67.992188 119.265625 68.53125 119.269531 C 69.070312 119.269531 69.53125 119.078125 69.917969 118.699219 C 70.265625 118.3125 70.457031 117.859375 70.488281 117.335938 C 70.675781 115.273438 70.535156 113.234375 70.066406 111.21875 C 69.996094 110.96875 69.878906 110.742188 69.71875 110.539062 C 69.5625 110.335938 69.367188 110.171875 69.144531 110.042969 C 68.917969 109.917969 68.679688 109.835938 68.421875 109.804688 C 68.164062 109.769531 67.910156 109.789062 67.664062 109.855469 C 67.414062 109.929688 67.191406 110.046875 66.988281 110.207031 C 66.785156 110.367188 66.621094 110.558594 66.492188 110.78125 C 66.367188 111.003906 66.285156 111.246094 66.25 111.5 C 66.214844 111.757812 66.230469 112.007812 66.292969 112.257812 Z M 66.292969 112.234375 " fill-opacity="1" fill-rule="nonzero"/><path fill="#fbe906" d="M 65.535156 128.503906 L 65.125 160.882812 C 65.125 163.394531 69.039062 163.402344 69.039062 160.882812 L 69.445312 128.503906 C 69.445312 125.984375 65.535156 125.984375 65.535156 128.503906 Z M 65.535156 128.503906 " fill-opacity="1" fill-rule="nonzero"/><path fill="#fbe906" d="M 13.40625 176.8125 C 16.878906 177.003906 20.34375 176.886719 23.796875 176.460938 C 24.054688 176.457031 24.300781 176.402344 24.539062 176.300781 C 24.777344 176.199219 24.984375 176.054688 25.167969 175.875 C 25.347656 175.691406 25.492188 175.484375 25.59375 175.246094 C 25.695312 175.011719 25.746094 174.761719 25.753906 174.503906 C 25.707031 173.550781 24.886719 172.417969 23.796875 172.550781 C 20.34375 172.972656 16.878906 173.089844 13.40625 172.902344 C 13.148438 172.902344 12.898438 172.953125 12.660156 173.050781 C 12.417969 173.152344 12.207031 173.292969 12.023438 173.476562 C 11.839844 173.660156 11.699219 173.871094 11.601562 174.109375 C 11.5 174.351562 11.449219 174.597656 11.449219 174.859375 C 11.453125 175.117188 11.507812 175.363281 11.609375 175.601562 C 11.710938 175.839844 11.851562 176.046875 12.035156 176.230469 C 12.214844 176.414062 12.425781 176.554688 12.664062 176.65625 C 12.898438 176.757812 13.148438 176.808594 13.40625 176.8125 Z M 13.40625 176.8125 " fill-opacity="1" fill-rule="nonzero"/></svg>