<svg xmlns="http://www.w3.org/2000/svg" xmlns:xlink="http://www.w3.org/1999/xlink" width="500" zoomAndPan="magnify" viewBox="0 0 375 374.999991" height="500" preserveAspectRatio="xMidYMid meet" version="1.0"><defs><clipPath id="435b0d8614"><path d="M 163 102 L 217 102 L 217 275.746094 L 163 275.746094 Z M 163 102 " clip-rule="nonzero"/></clipPath><clipPath id="73c792990f"><path d="M 102 168 L 275.746094 168 L 275.746094 222 L 102 222 Z M 102 168 " clip-rule="nonzero"/></clipPath></defs><g clip-path="url(#435b0d8614)"><path fill="#5271ff" d="M 163.558594 256.113281 C 163.558594 256.113281 183.433594 274.894531 184.773438 275.1875 C 186.113281 275.476562 214.558594 275.1875 215.621094 272.78125 C 216.6875 270.378906 216.210938 128.652344 214.058594 120.960938 C 211.90625 113.269531 195.417969 102.75 193.195312 102.328125 C 190.972656 101.90625 163.558594 256.113281 163.558594 256.113281 Z M 163.558594 256.113281 " fill-opacity="1" fill-rule="nonzero"/></g><g clip-path="url(#73c792990f)"><path fill="#5271ff" d="M 256.113281 168.988281 C 256.113281 168.988281 274.894531 188.867188 275.1875 190.195312 C 275.476562 191.527344 275.1875 219.980469 272.78125 221.054688 C 270.378906 222.125 128.652344 221.632812 120.960938 219.488281 C 113.269531 217.34375 102.75 200.800781 102.328125 198.578125 C 101.90625 196.355469 256.113281 168.988281 256.113281 168.988281 Z M 256.113281 168.988281 " fill-opacity="1" fill-rule="nonzero"/></g><path fill="#5271ff" d="M 103.460938 168.988281 C 103.460938 168.988281 99.464844 199.359375 103.460938 200.160156 C 107.460938 200.957031 254.5 204.148438 256.113281 200.160156 C 257.726562 196.167969 259.316406 172.980469 256.113281 168.988281 C 252.914062 164.996094 124.640625 167.824219 118.269531 167.824219 C 113.3125 167.933594 108.375 168.320312 103.460938 168.988281 Z M 103.460938 168.988281 " fill-opacity="1" fill-rule="nonzero"/><path fill="#5271ff" d="M 163.558594 103.460938 C 163.558594 103.460938 193.929688 99.464844 194.726562 103.460938 C 195.527344 107.460938 198.726562 254.5 194.726562 256.113281 C 190.730469 257.726562 167.554688 259.316406 163.558594 256.113281 C 159.558594 252.914062 162.390625 124.640625 162.390625 118.269531 C 162.5 113.3125 162.890625 108.375 163.558594 103.460938 Z M 163.558594 103.460938 " fill-opacity="1" fill-rule="nonzero"/><path fill="#5271ff" d="M 165.789062 112.234375 C 165.90625 112.75 166 113.277344 166.078125 113.800781 L 166.007812 113.277344 C 166.183594 114.628906 166.203125 115.980469 166.070312 117.335938 C 166.074219 117.867188 166.265625 118.324219 166.640625 118.699219 C 167.027344 119.074219 167.488281 119.265625 168.027344 119.269531 C 168.566406 119.269531 169.027344 119.078125 169.410156 118.699219 C 169.757812 118.3125 169.949219 117.859375 169.984375 117.335938 C 170.171875 115.273438 170.03125 113.234375 169.558594 111.21875 C 169.488281 110.96875 169.375 110.742188 169.214844 110.539062 C 169.054688 110.335938 168.863281 110.171875 168.636719 110.042969 C 168.414062 109.917969 168.171875 109.835938 167.917969 109.804688 C 167.660156 109.769531 167.40625 109.789062 167.15625 109.855469 C 166.910156 109.929688 166.683594 110.046875 166.484375 110.207031 C 166.28125 110.367188 166.117188 110.558594 165.988281 110.78125 C 165.859375 111.003906 165.78125 111.246094 165.746094 111.5 C 165.710938 111.757812 165.726562 112.007812 165.789062 112.257812 Z M 165.789062 112.234375 " fill-opacity="1" fill-rule="nonzero"/><path fill="#5271ff" d="M 165.027344 128.503906 L 164.621094 160.882812 C 164.621094 163.394531 168.535156 163.402344 168.535156 160.882812 L 168.941406 128.503906 C 168.941406 125.984375 165.027344 125.984375 165.027344 128.503906 Z M 165.027344 128.503906 " fill-opacity="1" fill-rule="nonzero"/><path fill="#5271ff" d="M 112.902344 176.8125 C 116.375 177.003906 119.839844 176.886719 123.292969 176.460938 C 123.550781 176.457031 123.796875 176.402344 124.035156 176.300781 C 124.269531 176.199219 124.480469 176.054688 124.660156 175.875 C 124.84375 175.691406 124.984375 175.484375 125.085938 175.246094 C 125.1875 175.011719 125.242188 174.761719 125.25 174.503906 C 125.203125 173.550781 124.382812 172.417969 123.292969 172.550781 C 119.839844 172.972656 116.375 173.089844 112.902344 172.902344 C 112.640625 172.902344 112.390625 172.953125 112.152344 173.050781 C 111.914062 173.152344 111.703125 173.292969 111.519531 173.476562 C 111.335938 173.660156 111.195312 173.871094 111.09375 174.109375 C 110.996094 174.351562 110.945312 174.597656 110.945312 174.859375 C 110.949219 175.117188 111.003906 175.363281 111.101562 175.601562 C 111.203125 175.839844 111.347656 176.046875 111.527344 176.230469 C 111.710938 176.414062 111.921875 176.554688 112.15625 176.65625 C 112.394531 176.757812 112.644531 176.808594 112.902344 176.8125 Z M 112.902344 176.8125 " fill-opacity="1" fill-rule="nonzero"/></svg>