<svg xmlns="http://www.w3.org/2000/svg" xmlns:xlink="http://www.w3.org/1999/xlink" width="500" zoomAndPan="magnify" viewBox="0 0 375 374.999991" height="500" preserveAspectRatio="xMidYMid meet" version="1.0"><defs><g/><clipPath id="7c78f7cf0e"><path d="M 0 77.8125 L 375 77.8125 L 375 266 L 0 266 Z M 0 77.8125 " clip-rule="nonzero"/></clipPath></defs><g clip-path="url(#7c78f7cf0e)"><path fill="#e8e7ec" d="M 187.5 77.796875 C 290.84375 77.796875 374.617188 161.714844 374.617188 265.234375 L 0.382812 265.234375 C 0.382812 161.714844 84.15625 77.796875 187.5 77.796875 " fill-opacity="1" fill-rule="nonzero"/></g><path fill="#ee2533" d="M 273.425781 116.152344 C 324.773438 145.914062 359.324219 201.53125 359.324219 265.234375 L 187.5 265.234375 L 273.425781 116.152344 " fill-opacity="1" fill-rule="nonzero"/><path fill="#fcda34" d="M 101.574219 116.152344 C 126.851562 101.5 156.199219 93.113281 187.5 93.113281 C 218.800781 93.113281 248.148438 101.5 273.425781 116.152344 L 187.5 265.234375 L 101.574219 116.152344 " fill-opacity="1" fill-rule="nonzero"/><path fill="#46b753" d="M 101.574219 116.152344 L 187.5 265.234375 L 15.675781 265.234375 C 15.675781 201.53125 50.226562 145.914062 101.574219 116.152344 " fill-opacity="1" fill-rule="nonzero"/><path fill="#ffffff" d="M 187.5 219.613281 C 212.652344 219.613281 233.039062 240.039062 233.039062 265.234375 L 141.960938 265.234375 C 141.960938 240.039062 162.347656 219.613281 187.5 219.613281 " fill-opacity="1" fill-rule="nonzero"/><path fill="#696867" d="M 203.496094 241.910156 L 281.828125 210.835938 C 284.613281 209.734375 286.675781 213.519531 284.242188 215.265625 L 215.734375 264.394531 C 216.03125 274.703125 210.679688 284.800781 201.023438 290.078125 C 187.324219 297.558594 170.164062 292.5 162.695312 278.78125 C 155.226562 265.058594 160.277344 247.867188 173.976562 240.386719 C 183.632812 235.109375 195.007812 236.074219 203.496094 241.910156 " fill-opacity="1" fill-rule="nonzero"/><g fill="#545454" fill-opacity="1"><g transform="translate(43.97461, 353.999977)"><g><path d="M 1.800781 -34.253906 L 8.820312 -34.253906 L 8.820312 0 L 17.335938 0 L 17.335938 -42.835938 L 1.800781 -42.835938 Z M 1.800781 -34.253906 "/></g></g></g><g fill="#545454" fill-opacity="1"><g transform="translate(66.170287, 353.999977)"><g><path d="M 17.816406 0.601562 C 28.496094 0.601562 32.574219 -9.300781 32.574219 -21.476562 C 32.574219 -33.65625 28.496094 -43.496094 17.816406 -43.496094 C 7.257812 -43.496094 3.121094 -33.65625 3.121094 -21.476562 C 3.121094 -9.300781 7.257812 0.601562 17.816406 0.601562 Z M 17.816406 -7.5 C 13.078125 -7.5 11.457031 -13.738281 11.457031 -21.476562 C 11.457031 -29.15625 13.078125 -35.457031 17.816406 -35.457031 C 22.675781 -35.457031 24.296875 -29.15625 24.296875 -21.476562 C 24.296875 -13.738281 22.675781 -7.5 17.816406 -7.5 Z M 17.816406 -7.5 "/></g></g></g><g fill="#545454" fill-opacity="1"><g transform="translate(119.019992, 353.999977)"><g><path d="M 13.378906 0 L 13.378906 -16.378906 L 21.65625 -16.378906 C 38.273438 -16.378906 38.335938 -42.835938 21.65625 -42.835938 L 4.800781 -42.835938 L 4.800781 0 Z M 13.378906 -24.71875 L 13.378906 -34.316406 L 20.9375 -34.316406 C 26.695312 -34.316406 26.695312 -24.71875 20.9375 -24.71875 Z M 13.378906 -24.71875 "/></g></g></g><g fill="#545454" fill-opacity="1"><g transform="translate(155.192945, 353.999977)"><g><path d="M 25.4375 0.601562 C 54.953125 0.601562 54.953125 -43.613281 25.4375 -43.613281 C -4.078125 -43.613281 -4.078125 0.601562 25.4375 0.601562 Z M 25.4375 -8.277344 C 8.277344 -8.277344 8.277344 -34.796875 25.4375 -34.796875 C 42.59375 -34.796875 42.59375 -8.277344 25.4375 -8.277344 Z M 25.4375 -8.277344 "/></g></g></g><g fill="#545454" fill-opacity="1"><g transform="translate(206.003049, 353.999977)"><g><path d="M 13.378906 0 L 13.378906 -42.894531 L 4.800781 -42.894531 L 4.800781 0 Z M 13.378906 0 "/></g></g></g><g fill="#545454" fill-opacity="1"><g transform="translate(224.239495, 353.999977)"><g><path d="M 13.378906 -23.335938 L 35.09375 0.898438 L 37.375 0.898438 L 37.375 -42.835938 L 28.738281 -42.835938 L 28.738281 -18.597656 L 7.078125 -43.792969 L 4.800781 -43.792969 L 4.800781 0 L 13.378906 0 Z M 13.378906 -23.335938 "/></g></g></g><g fill="#545454" fill-opacity="1"><g transform="translate(266.471269, 353.999977)"><g><path d="M 20.457031 0 L 20.457031 -34.316406 L 31.136719 -34.316406 L 31.136719 -42.835938 L 1.199219 -42.835938 L 1.199219 -34.316406 L 11.878906 -34.316406 L 11.878906 0 Z M 20.457031 0 "/></g></g></g><g fill="#545454" fill-opacity="1"><g transform="translate(299.284866, 353.999977)"><g><path d="M 2.820312 -2.757812 C 8.640625 0.238281 13.976562 0.539062 16.378906 0.359375 C 24.417969 -0.0585938 29.335938 -5.519531 29.335938 -12.660156 C 29.335938 -19.496094 23.578125 -23.335938 16.917969 -25.796875 C 14.457031 -26.636719 12.359375 -27.714844 12.117188 -30.117188 C 11.9375 -32.515625 13.316406 -34.734375 16.378906 -34.914062 C 17.699219 -34.976562 20.398438 -35.035156 25.136719 -33.117188 L 26.214844 -41.394531 C 20.699219 -43.316406 17.757812 -43.316406 15.539062 -43.195312 C 8.398438 -42.835938 3.417969 -37.316406 3.417969 -30.117188 C 3.417969 -22.917969 9.417969 -19.496094 16.136719 -17.039062 C 18.539062 -16.199219 20.398438 -15.117188 20.578125 -12.660156 C 20.816406 -10.320312 18.65625 -8.519531 16.136719 -8.339844 C 14.160156 -8.160156 8.820312 -8.277344 3.898438 -11.757812 Z M 2.820312 -2.757812 "/></g></g></g><g fill="#545454" fill-opacity="1"><g transform="translate(67.611328, 52.124997)"><g><path d="M 26.15625 0 L 35.875 0 L 25.917969 -17.699219 C 38.515625 -21.355469 37.015625 -42.894531 21.71875 -42.894531 L 4.800781 -42.894531 L 4.800781 0 L 13.378906 0 L 13.378906 -16.378906 L 17.519531 -16.378906 Z M 13.378906 -24.71875 L 13.378906 -34.316406 L 20.9375 -34.316406 C 26.757812 -34.316406 26.757812 -24.71875 20.9375 -24.71875 Z M 13.378906 -24.71875 "/></g></g></g><g fill="#545454" fill-opacity="1"><g transform="translate(104.384168, 52.124997)"><g><path d="M 26.996094 0 L 26.996094 -8.578125 L 13.378906 -8.578125 L 13.378906 -17.15625 L 24.65625 -17.15625 L 24.65625 -25.738281 L 13.378906 -25.738281 L 13.378906 -34.316406 L 26.277344 -34.316406 L 26.277344 -42.894531 L 4.800781 -42.894531 L 4.800781 0 Z M 26.996094 0 "/></g></g></g><g fill="#545454" fill-opacity="1"><g transform="translate(134.618278, 52.124997)"><g><path d="M 17.9375 0.898438 L 19.4375 0.898438 L 27.238281 -18.296875 L 35.09375 0.71875 L 36.65625 0.71875 L 54.171875 -42.894531 L 44.515625 -42.894531 L 35.875 -20.996094 L 27.476562 -42.476562 L 27.054688 -42.476562 L 18.65625 -20.996094 L 10.019531 -42.894531 L 0.359375 -42.894531 Z M 17.9375 0.898438 "/></g></g></g><g fill="#545454" fill-opacity="1"><g transform="translate(189.207645, 52.124997)"><g><path d="M 0.960938 0 L 10.679688 0 L 12.359375 -4.621094 L 26.578125 -4.621094 L 28.316406 0 L 37.976562 0 L 19.917969 -44.453125 L 19.019531 -44.453125 Z M 15.476562 -12.660156 L 19.496094 -23.816406 L 23.398438 -12.660156 Z M 15.476562 -12.660156 "/></g></g></g><g fill="#545454" fill-opacity="1"><g transform="translate(228.380014, 52.124997)"><g><path d="M 26.15625 0 L 35.875 0 L 25.917969 -17.699219 C 38.515625 -21.355469 37.015625 -42.894531 21.71875 -42.894531 L 4.800781 -42.894531 L 4.800781 0 L 13.378906 0 L 13.378906 -16.378906 L 17.519531 -16.378906 Z M 13.378906 -24.71875 L 13.378906 -34.316406 L 20.9375 -34.316406 C 26.757812 -34.316406 26.757812 -24.71875 20.9375 -24.71875 Z M 13.378906 -24.71875 "/></g></g></g><g fill="#545454" fill-opacity="1"><g transform="translate(265.152865, 52.124997)"><g><path d="M 17.578125 -42.894531 L 4.800781 -42.894531 L 4.800781 0 L 17.578125 0 C 46.132812 0 46.132812 -42.894531 17.578125 -42.894531 Z M 17.578125 -34.316406 C 34.253906 -34.316406 34.253906 -8.578125 17.578125 -8.578125 L 13.378906 -8.578125 L 13.378906 -34.316406 Z M 17.578125 -34.316406 "/></g></g></g></svg>