<svg xmlns="http://www.w3.org/2000/svg" xmlns:xlink="http://www.w3.org/1999/xlink" width="500" zoomAndPan="magnify" viewBox="0 0 375 374.999991" height="500" preserveAspectRatio="xMidYMid meet" version="1.0"><defs><g/><clipPath id="3b5d6f47fe"><path d="M 0 77.8125 L 375 77.8125 L 375 266 L 0 266 Z M 0 77.8125 " clip-rule="nonzero"/></clipPath><clipPath id="39362c1de4"><path d="M 159 154 L 216 154 L 216 293.8125 L 159 293.8125 Z M 159 154 " clip-rule="nonzero"/></clipPath></defs><g fill="#545454" fill-opacity="1"><g transform="translate(57.234377, 353.999977)"><g><path d="M 12.660156 -27.175781 L 12.660156 -34.675781 L 25.855469 -34.675781 L 25.855469 -42.894531 L 4.019531 -42.894531 L 4.019531 -20.335938 C 17.097656 -19.378906 20.277344 -17.816406 20.277344 -12.777344 C 20.335938 -9.179688 16.496094 -5.519531 3.179688 -10.078125 L 2.398438 -1.558594 C 8.039062 0.359375 13.859375 0.480469 16.078125 0.359375 C 24.117188 -0.0585938 28.976562 -5.460938 28.976562 -12.597656 C 28.976562 -22.496094 23.457031 -26.214844 12.660156 -27.175781 Z M 12.660156 -27.175781 "/></g></g></g><g fill="#545454" fill-opacity="1"><g transform="translate(105.764921, 353.999977)"><g><path d="M 13.378906 0 L 13.378906 -16.378906 L 21.65625 -16.378906 C 38.273438 -16.378906 38.335938 -42.835938 21.65625 -42.835938 L 4.800781 -42.835938 L 4.800781 0 Z M 13.378906 -24.71875 L 13.378906 -34.316406 L 20.9375 -34.316406 C 26.695312 -34.316406 26.695312 -24.71875 20.9375 -24.71875 Z M 13.378906 -24.71875 "/></g></g></g><g fill="#545454" fill-opacity="1"><g transform="translate(141.937873, 353.999977)"><g><path d="M 25.4375 0.601562 C 54.953125 0.601562 54.953125 -43.613281 25.4375 -43.613281 C -4.078125 -43.613281 -4.078125 0.601562 25.4375 0.601562 Z M 25.4375 -8.277344 C 8.277344 -8.277344 8.277344 -34.796875 25.4375 -34.796875 C 42.59375 -34.796875 42.59375 -8.277344 25.4375 -8.277344 Z M 25.4375 -8.277344 "/></g></g></g><g fill="#545454" fill-opacity="1"><g transform="translate(192.747978, 353.999977)"><g><path d="M 13.378906 0 L 13.378906 -42.894531 L 4.800781 -42.894531 L 4.800781 0 Z M 13.378906 0 "/></g></g></g><g fill="#545454" fill-opacity="1"><g transform="translate(210.984424, 353.999977)"><g><path d="M 13.378906 -23.335938 L 35.09375 0.898438 L 37.375 0.898438 L 37.375 -42.835938 L 28.738281 -42.835938 L 28.738281 -18.597656 L 7.078125 -43.792969 L 4.800781 -43.792969 L 4.800781 0 L 13.378906 0 Z M 13.378906 -23.335938 "/></g></g></g><g fill="#545454" fill-opacity="1"><g transform="translate(253.216198, 353.999977)"><g><path d="M 20.457031 0 L 20.457031 -34.316406 L 31.136719 -34.316406 L 31.136719 -42.835938 L 1.199219 -42.835938 L 1.199219 -34.316406 L 11.878906 -34.316406 L 11.878906 0 Z M 20.457031 0 "/></g></g></g><g fill="#545454" fill-opacity="1"><g transform="translate(286.029817, 353.999977)"><g><path d="M 2.820312 -2.757812 C 8.640625 0.238281 13.976562 0.539062 16.378906 0.359375 C 24.417969 -0.0585938 29.335938 -5.519531 29.335938 -12.660156 C 29.335938 -19.496094 23.578125 -23.335938 16.917969 -25.796875 C 14.457031 -26.636719 12.359375 -27.714844 12.117188 -30.117188 C 11.9375 -32.515625 13.316406 -34.734375 16.378906 -34.914062 C 17.699219 -34.976562 20.398438 -35.035156 25.136719 -33.117188 L 26.214844 -41.394531 C 20.699219 -43.316406 17.757812 -43.316406 15.539062 -43.195312 C 8.398438 -42.835938 3.417969 -37.316406 3.417969 -30.117188 C 3.417969 -22.917969 9.417969 -19.496094 16.136719 -17.039062 C 18.539062 -16.199219 20.398438 -15.117188 20.578125 -12.660156 C 20.816406 -10.320312 18.65625 -8.519531 16.136719 -8.339844 C 14.160156 -8.160156 8.820312 -8.277344 3.898438 -11.757812 Z M 2.820312 -2.757812 "/></g></g></g><g clip-path="url(#3b5d6f47fe)"><path fill="#e8e7ec" d="M 187.5 77.796875 C 290.964844 77.796875 374.835938 161.816406 374.835938 265.460938 L 0.164062 265.460938 C 0.164062 161.816406 84.035156 77.796875 187.5 77.796875 " fill-opacity="1" fill-rule="nonzero"/></g><path fill="#ee2533" d="M 273.527344 116.195312 C 324.9375 145.996094 359.527344 201.679688 359.527344 265.460938 L 187.5 265.460938 L 273.527344 116.195312 " fill-opacity="1" fill-rule="nonzero"/><path fill="#fcda34" d="M 101.472656 116.195312 C 126.78125 101.53125 156.160156 93.132812 187.5 93.132812 C 218.839844 93.132812 248.21875 101.53125 273.527344 116.195312 L 187.5 265.460938 L 101.472656 116.195312 " fill-opacity="1" fill-rule="nonzero"/><path fill="#46b753" d="M 101.472656 116.195312 L 187.5 265.460938 L 15.472656 265.460938 C 15.472656 201.679688 50.0625 145.996094 101.472656 116.195312 " fill-opacity="1" fill-rule="nonzero"/><path fill="#ffffff" d="M 187.5 219.785156 C 212.683594 219.785156 233.09375 240.234375 233.09375 265.460938 L 141.90625 265.460938 C 141.90625 240.234375 162.316406 219.785156 187.5 219.785156 " fill-opacity="1" fill-rule="nonzero"/><g clip-path="url(#39362c1de4)"><path fill="#696867" d="M 174.699219 240.195312 L 184.976562 156.328125 C 185.34375 153.347656 189.65625 153.347656 190.023438 156.328125 L 200.300781 240.195312 C 209.484375 244.875 215.785156 254.425781 215.785156 265.460938 C 215.785156 281.105469 203.121094 293.792969 187.5 293.792969 C 171.878906 293.792969 159.214844 281.105469 159.214844 265.460938 C 159.214844 254.425781 165.515625 244.875 174.699219 240.195312 " fill-opacity="1" fill-rule="nonzero"/></g><g fill="#545454" fill-opacity="1"><g transform="translate(67.611328, 52.124967)"><g><path d="M 26.15625 0 L 35.875 0 L 25.917969 -17.699219 C 38.515625 -21.355469 37.015625 -42.894531 21.71875 -42.894531 L 4.800781 -42.894531 L 4.800781 0 L 13.378906 0 L 13.378906 -16.378906 L 17.519531 -16.378906 Z M 13.378906 -24.71875 L 13.378906 -34.316406 L 20.9375 -34.316406 C 26.757812 -34.316406 26.757812 -24.71875 20.9375 -24.71875 Z M 13.378906 -24.71875 "/></g></g></g><g fill="#545454" fill-opacity="1"><g transform="translate(104.384168, 52.124967)"><g><path d="M 26.996094 0 L 26.996094 -8.578125 L 13.378906 -8.578125 L 13.378906 -17.15625 L 24.65625 -17.15625 L 24.65625 -25.738281 L 13.378906 -25.738281 L 13.378906 -34.316406 L 26.277344 -34.316406 L 26.277344 -42.894531 L 4.800781 -42.894531 L 4.800781 0 Z M 26.996094 0 "/></g></g></g><g fill="#545454" fill-opacity="1"><g transform="translate(134.618278, 52.124967)"><g><path d="M 17.9375 0.898438 L 19.4375 0.898438 L 27.238281 -18.296875 L 35.09375 0.71875 L 36.65625 0.71875 L 54.171875 -42.894531 L 44.515625 -42.894531 L 35.875 -20.996094 L 27.476562 -42.476562 L 27.054688 -42.476562 L 18.65625 -20.996094 L 10.019531 -42.894531 L 0.359375 -42.894531 Z M 17.9375 0.898438 "/></g></g></g><g fill="#545454" fill-opacity="1"><g transform="translate(189.207645, 52.124967)"><g><path d="M 0.960938 0 L 10.679688 0 L 12.359375 -4.621094 L 26.578125 -4.621094 L 28.316406 0 L 37.976562 0 L 19.917969 -44.453125 L 19.019531 -44.453125 Z M 15.476562 -12.660156 L 19.496094 -23.816406 L 23.398438 -12.660156 Z M 15.476562 -12.660156 "/></g></g></g><g fill="#545454" fill-opacity="1"><g transform="translate(228.380014, 52.124967)"><g><path d="M 26.15625 0 L 35.875 0 L 25.917969 -17.699219 C 38.515625 -21.355469 37.015625 -42.894531 21.71875 -42.894531 L 4.800781 -42.894531 L 4.800781 0 L 13.378906 0 L 13.378906 -16.378906 L 17.519531 -16.378906 Z M 13.378906 -24.71875 L 13.378906 -34.316406 L 20.9375 -34.316406 C 26.757812 -34.316406 26.757812 -24.71875 20.9375 -24.71875 Z M 13.378906 -24.71875 "/></g></g></g><g fill="#545454" fill-opacity="1"><g transform="translate(265.152865, 52.124967)"><g><path d="M 17.578125 -42.894531 L 4.800781 -42.894531 L 4.800781 0 L 17.578125 0 C 46.132812 0 46.132812 -42.894531 17.578125 -42.894531 Z M 17.578125 -34.316406 C 34.253906 -34.316406 34.253906 -8.578125 17.578125 -8.578125 L 13.378906 -8.578125 L 13.378906 -34.316406 Z M 17.578125 -34.316406 "/></g></g></g></svg>