<svg xmlns="http://www.w3.org/2000/svg" xmlns:xlink="http://www.w3.org/1999/xlink" width="500" zoomAndPan="magnify" viewBox="0 0 375 374.999991" height="500" preserveAspectRatio="xMidYMid meet" version="1.0"><defs><g/><clipPath id="1f8851ab41"><path d="M 0 77.8125 L 375 77.8125 L 375 266 L 0 266 Z M 0 77.8125 " clip-rule="nonzero"/></clipPath><clipPath id="1f2fafd4eb"><path d="M 159 154 L 216 154 L 216 293.8125 L 159 293.8125 Z M 159 154 " clip-rule="nonzero"/></clipPath></defs><g fill="#545454" fill-opacity="1"><g transform="translate(128.917966, 353.999977)"><g><path d="M 12.660156 -27.175781 L 12.660156 -34.675781 L 25.855469 -34.675781 L 25.855469 -42.894531 L 4.019531 -42.894531 L 4.019531 -20.335938 C 17.097656 -19.378906 20.277344 -17.816406 20.277344 -12.777344 C 20.335938 -9.179688 16.496094 -5.519531 3.179688 -10.078125 L 2.398438 -1.558594 C 8.039062 0.359375 13.859375 0.480469 16.078125 0.359375 C 24.117188 -0.0585938 28.976562 -5.460938 28.976562 -12.597656 C 28.976562 -22.496094 23.457031 -26.214844 12.660156 -27.175781 Z M 12.660156 -27.175781 "/></g></g></g><g fill="#545454" fill-opacity="1"><g transform="translate(160.41183, 353.999977)"><g><path d="M 17.816406 0.601562 C 28.496094 0.601562 32.574219 -9.300781 32.574219 -21.476562 C 32.574219 -33.65625 28.496094 -43.496094 17.816406 -43.496094 C 7.257812 -43.496094 3.121094 -33.65625 3.121094 -21.476562 C 3.121094 -9.300781 7.257812 0.601562 17.816406 0.601562 Z M 17.816406 -7.5 C 13.078125 -7.5 11.457031 -13.738281 11.457031 -21.476562 C 11.457031 -29.15625 13.078125 -35.457031 17.816406 -35.457031 C 22.675781 -35.457031 24.296875 -29.15625 24.296875 -21.476562 C 24.296875 -13.738281 22.675781 -7.5 17.816406 -7.5 Z M 17.816406 -7.5 "/></g></g></g><g fill="#545454" fill-opacity="1"><g transform="translate(196.224854, 353.999977)"><g><path d="M 11.703125 -43.4375 C 14.617188 -43.4375 16.847656 -42.265625 18.390625 -39.921875 C 19.929688 -37.585938 20.703125 -34.300781 20.703125 -30.0625 C 20.703125 -25.820312 19.96875 -22.507812 18.5 -20.125 C 17.039062 -17.75 14.773438 -16.5625 11.703125 -16.5625 C 8.859375 -16.5625 6.6875 -17.75 5.1875 -20.125 C 3.6875 -22.507812 2.9375 -25.820312 2.9375 -30.0625 C 2.9375 -34.300781 3.632812 -37.585938 5.03125 -39.921875 C 6.4375 -42.265625 8.660156 -43.4375 11.703125 -43.4375 Z M 39.125 -42.84375 L 15.359375 0 L 10.734375 0 L 34.5 -42.84375 Z M 11.703125 -39.71875 C 10.179688 -39.71875 9.066406 -38.90625 8.359375 -37.28125 C 7.660156 -35.664062 7.3125 -33.257812 7.3125 -30.0625 C 7.3125 -26.863281 7.660156 -24.441406 8.359375 -22.796875 C 9.066406 -21.160156 10.179688 -20.34375 11.703125 -20.34375 C 14.773438 -20.34375 16.3125 -23.582031 16.3125 -30.0625 C 16.3125 -36.5 14.773438 -39.71875 11.703125 -39.71875 Z M 37.921875 -26.28125 C 40.835938 -26.28125 43.066406 -25.109375 44.609375 -22.765625 C 46.148438 -20.429688 46.921875 -17.144531 46.921875 -12.90625 C 46.921875 -8.664062 46.191406 -5.351562 44.734375 -2.96875 C 43.273438 -0.59375 41.003906 0.59375 37.921875 0.59375 C 35.078125 0.59375 32.90625 -0.59375 31.40625 -2.96875 C 29.90625 -5.351562 29.15625 -8.664062 29.15625 -12.90625 C 29.15625 -17.144531 29.851562 -20.429688 31.25 -22.765625 C 32.65625 -25.109375 34.878906 -26.28125 37.921875 -26.28125 Z M 37.921875 -22.5 C 36.398438 -22.5 35.289062 -21.695312 34.59375 -20.09375 C 33.894531 -18.5 33.546875 -16.101562 33.546875 -12.90625 C 33.546875 -9.664062 33.894531 -7.234375 34.59375 -5.609375 C 35.289062 -3.992188 36.398438 -3.1875 37.921875 -3.1875 C 41.003906 -3.1875 42.546875 -6.425781 42.546875 -12.90625 C 42.546875 -19.300781 41.003906 -22.5 37.921875 -22.5 Z M 37.921875 -22.5 "/></g></g></g><g clip-path="url(#1f8851ab41)"><path fill="#e8e7ec" d="M 187.5 77.796875 C 290.964844 77.796875 374.835938 161.816406 374.835938 265.460938 L 0.164062 265.460938 C 0.164062 161.816406 84.035156 77.796875 187.5 77.796875 " fill-opacity="1" fill-rule="nonzero"/></g><path fill="#ee2533" d="M 273.527344 116.195312 C 324.9375 145.996094 359.527344 201.679688 359.527344 265.460938 L 187.5 265.460938 L 273.527344 116.195312 " fill-opacity="1" fill-rule="nonzero"/><path fill="#fcda34" d="M 101.472656 116.195312 C 126.78125 101.53125 156.160156 93.132812 187.5 93.132812 C 218.839844 93.132812 248.21875 101.53125 273.527344 116.195312 L 187.5 265.460938 L 101.472656 116.195312 " fill-opacity="1" fill-rule="nonzero"/><path fill="#46b753" d="M 101.472656 116.195312 L 187.5 265.460938 L 15.472656 265.460938 C 15.472656 201.679688 50.0625 145.996094 101.472656 116.195312 " fill-opacity="1" fill-rule="nonzero"/><path fill="#ffffff" d="M 187.5 219.785156 C 212.683594 219.785156 233.09375 240.234375 233.09375 265.460938 L 141.90625 265.460938 C 141.90625 240.234375 162.316406 219.785156 187.5 219.785156 " fill-opacity="1" fill-rule="nonzero"/><g clip-path="url(#1f2fafd4eb)"><path fill="#696867" d="M 174.699219 240.195312 L 184.976562 156.328125 C 185.34375 153.347656 189.65625 153.347656 190.023438 156.328125 L 200.300781 240.195312 C 209.484375 244.875 215.785156 254.425781 215.785156 265.460938 C 215.785156 281.105469 203.121094 293.792969 187.5 293.792969 C 171.878906 293.792969 159.214844 281.105469 159.214844 265.460938 C 159.214844 254.425781 165.515625 244.875 174.699219 240.195312 " fill-opacity="1" fill-rule="nonzero"/></g><g fill="#545454" fill-opacity="1"><g transform="translate(126.011715, 52.124997)"><g><path d="M 26.15625 0 L 35.875 0 L 25.917969 -17.699219 C 38.515625 -21.355469 37.015625 -42.894531 21.71875 -42.894531 L 4.800781 -42.894531 L 4.800781 0 L 13.378906 0 L 13.378906 -16.378906 L 17.519531 -16.378906 Z M 13.378906 -24.71875 L 13.378906 -34.316406 L 20.9375 -34.316406 C 26.757812 -34.316406 26.757812 -24.71875 20.9375 -24.71875 Z M 13.378906 -24.71875 "/></g></g></g><g fill="#545454" fill-opacity="1"><g transform="translate(162.784555, 52.124997)"><g><path d="M 13.378906 0 L 13.378906 -42.894531 L 4.800781 -42.894531 L 4.800781 0 Z M 13.378906 0 "/></g></g></g><g fill="#545454" fill-opacity="1"><g transform="translate(181.021001, 52.124997)"><g><path d="M 2.820312 -2.757812 C 8.640625 0.238281 13.976562 0.539062 16.378906 0.359375 C 24.417969 -0.0585938 29.335938 -5.519531 29.335938 -12.660156 C 29.335938 -19.496094 23.578125 -23.335938 16.917969 -25.796875 C 14.457031 -26.636719 12.359375 -27.714844 12.117188 -30.117188 C 11.9375 -32.515625 13.316406 -34.734375 16.378906 -34.914062 C 17.699219 -34.976562 20.398438 -35.035156 25.136719 -33.117188 L 26.214844 -41.394531 C 20.699219 -43.316406 17.757812 -43.316406 15.539062 -43.195312 C 8.398438 -42.835938 3.417969 -37.316406 3.417969 -30.117188 C 3.417969 -22.917969 9.417969 -19.496094 16.136719 -17.039062 C 18.539062 -16.199219 20.398438 -15.117188 20.578125 -12.660156 C 20.816406 -10.320312 18.65625 -8.519531 16.136719 -8.339844 C 14.160156 -8.160156 8.820312 -8.277344 3.898438 -11.757812 Z M 2.820312 -2.757812 "/></g></g></g><g fill="#545454" fill-opacity="1"><g transform="translate(212.754825, 52.124997)"><g><path d="M 4.800781 0 L 13.378906 0 L 13.378906 -16.796875 L 24.777344 0 L 35.394531 0 L 20.277344 -21.71875 L 34.195312 -42.894531 L 24.175781 -42.894531 L 13.378906 -25.796875 L 13.378906 -42.894531 L 4.800781 -42.894531 Z M 4.800781 0 "/></g></g></g></svg>