<svg xmlns="http://www.w3.org/2000/svg" xmlns:xlink="http://www.w3.org/1999/xlink" width="500" zoomAndPan="magnify" viewBox="0 0 375 374.999991" height="500" preserveAspectRatio="xMidYMid meet" version="1.0"><defs><clipPath id="fea3bf68f3"><path d="M 100.597656 104 L 274 104 L 274 271.875 L 100.597656 271.875 Z M 100.597656 104 " clip-rule="nonzero"/></clipPath></defs><g clip-path="url(#fea3bf68f3)"><path fill="#fbe906" d="M 244.929688 261.429688 C 246.328125 261.976562 246.464844 263.207031 246.433594 264.425781 C 246.402344 265.554688 246.96875 266.976562 245.609375 267.667969 C 244.574219 268.195312 243.617188 267.613281 242.640625 267.035156 C 234.09375 261.972656 225.707031 256.667969 217.507812 251.054688 C 208.332031 244.773438 199.039062 238.664062 189.875 232.363281 C 187.863281 230.980469 186.34375 231.3125 184.527344 232.574219 C 175.730469 238.664062 166.898438 244.707031 158.054688 250.726562 C 148.59375 257.167969 139.054688 263.5 129.664062 270.042969 C 127.878906 271.285156 125.941406 271.816406 124.582031 270.65625 C 123.15625 269.433594 123.070312 267.398438 123.507812 265.136719 C 126.617188 249.066406 132.625 233.875 137.335938 218.296875 C 138.484375 214.5 140.039062 210.824219 141.484375 207.125 C 142.714844 203.964844 143.347656 201.117188 139.816406 198.796875 C 130.765625 192.847656 121.980469 186.503906 112.6875 180.902344 C 109.222656 178.816406 106.335938 175.773438 103.183594 173.175781 C 101.886719 172.109375 100.585938 170.472656 101.085938 169.148438 C 101.71875 167.488281 103.707031 166.609375 105.710938 166.660156 C 112.691406 166.835938 119.605469 165.613281 126.519531 165.425781 C 135.375 165.191406 144.054688 163.515625 152.867188 163.242188 C 156.789062 163.121094 158.566406 161.199219 159.828125 157.542969 C 162.925781 148.570312 166.554688 139.777344 169.929688 130.898438 C 172.929688 123.011719 175.769531 115.0625 178.890625 107.226562 C 180.507812 103.175781 181.664062 103.257812 184.359375 106.398438 C 189.3125 112.160156 190.496094 119.554688 193.132812 126.265625 C 195.941406 133.417969 199.074219 140.414062 202.085938 147.46875 C 202.863281 149.292969 203.914062 151.039062 204.390625 152.933594 C 205.441406 157.074219 207.679688 159.714844 212.109375 160.117188 C 211.882812 160.984375 211.214844 161.664062 210.445312 161.648438 C 206.5 161.574219 205.242188 164.449219 203.496094 167.238281 C 199.976562 172.863281 197 178.789062 193.417969 184.632812 C 198.4375 183.480469 203.347656 182.554688 208.074219 181.003906 C 221.503906 176.585938 235.023438 172.480469 248.582031 168.464844 C 255.820312 166.320312 262.628906 162.800781 269.816406 160.382812 C 271.171875 160.417969 272.945312 159.402344 273.660156 161.253906 C 274.398438 163.164062 273.160156 164.390625 271.617188 165.53125 C 260.363281 173.875 249.144531 182.269531 237.96875 190.714844 C 234.105469 193.632812 230.175781 196.476562 226.753906 199.945312 C 225.640625 201.078125 224.289062 201.976562 223.976562 203.675781 C 221.792969 206.253906 219.1875 204.855469 216.914062 204.132812 C 211.035156 202.265625 205.042969 200.871094 199.066406 199.398438 C 197.308594 198.964844 195.515625 198.457031 193.15625 198.628906 C 196.132812 204.183594 199.535156 208.988281 203.210938 213.484375 C 216.164062 229.308594 229.316406 244.976562 243.03125 260.15625 C 243.578125 260.761719 244 261.441406 244.929688 261.429688 Z M 244.929688 261.429688 " fill-opacity="1" fill-rule="nonzero"/></g><path fill="#fbe906" d="M 244.929688 261.429688 C 244.761719 262.195312 244.839844 263.335938 244.371094 263.644531 C 243.53125 264.199219 243.089844 263.121094 242.585938 262.550781 C 228.851562 247.039062 215.292969 231.371094 202.289062 215.242188 C 198.097656 210.042969 194.550781 204.328125 190.738281 198.828125 C 190.21875 198.082031 189.445312 197.179688 190.128906 196.292969 C 190.824219 195.382812 191.871094 196.09375 192.753906 196.25 C 200.410156 197.613281 207.949219 199.457031 215.386719 201.726562 C 218.203125 202.585938 220.988281 203.574219 223.976562 203.675781 C 228.019531 210.949219 230.691406 218.808594 233.496094 226.585938 C 237.199219 236.867188 240.054688 247.445312 244.394531 257.503906 C 244.933594 258.757812 245.054688 260.078125 244.929688 261.429688 Z M 244.929688 261.429688 " fill-opacity="1" fill-rule="nonzero"/><path fill="#fbe906" d="M 269.820312 160.382812 C 269.292969 162.5625 267.34375 163.058594 265.671875 163.816406 C 254.179688 169.011719 242.082031 172.414062 230.039062 176.007812 C 217.746094 179.675781 205.496094 183.5 193.214844 187.214844 C 192.144531 187.539062 190.785156 188.613281 189.910156 187.386719 C 189.121094 186.285156 190.257812 185.144531 190.867188 184.136719 C 195.160156 177.039062 199.707031 170.082031 203.671875 162.808594 C 205.867188 158.785156 209.261719 160.828125 212.109375 160.117188 C 231.347656 160.207031 250.582031 160.296875 269.816406 160.382812 Z M 269.820312 160.382812 " fill-opacity="1" fill-rule="nonzero"/></svg>