<svg xmlns="http://www.w3.org/2000/svg" xmlns:xlink="http://www.w3.org/1999/xlink" width="500" zoomAndPan="magnify" viewBox="0 0 375 374.999991" height="500" preserveAspectRatio="xMidYMid meet" version="1.0"><defs><clipPath id="f3044561bf"><path d="M 100.597656 0 L 274 0 L 274 168.75 L 100.597656 168.75 Z M 100.597656 0 " clip-rule="nonzero"/></clipPath><clipPath id="51f1719434"><path d="M 201.195312 207 L 375 207 L 375 375 L 201.195312 375 Z M 201.195312 207 " clip-rule="nonzero"/></clipPath></defs><g clip-path="url(#f3044561bf)"><path fill="#4e7943" d="M 244.929688 158.304688 C 246.328125 158.851562 246.464844 160.082031 246.433594 161.300781 C 246.402344 162.429688 246.96875 163.851562 245.609375 164.542969 C 244.574219 165.070312 243.617188 164.488281 242.640625 163.910156 C 234.09375 158.847656 225.707031 153.542969 217.507812 147.929688 C 208.332031 141.648438 199.039062 135.539062 189.875 129.238281 C 187.863281 127.855469 186.34375 128.1875 184.527344 129.449219 C 175.730469 135.539062 166.898438 141.582031 158.054688 147.601562 C 148.59375 154.042969 139.054688 160.375 129.664062 166.917969 C 127.878906 168.160156 125.941406 168.691406 124.582031 167.53125 C 123.15625 166.308594 123.070312 164.273438 123.507812 162.011719 C 126.617188 145.941406 132.625 130.75 137.335938 115.171875 C 138.484375 111.375 140.039062 107.699219 141.484375 104 C 142.714844 100.839844 143.347656 97.992188 139.816406 95.671875 C 130.765625 89.722656 121.980469 83.378906 112.6875 77.777344 C 109.222656 75.691406 106.335938 72.648438 103.183594 70.050781 C 101.886719 68.984375 100.585938 67.347656 101.085938 66.023438 C 101.71875 64.363281 103.707031 63.484375 105.710938 63.535156 C 112.691406 63.710938 119.605469 62.488281 126.519531 62.300781 C 135.375 62.066406 144.054688 60.390625 152.867188 60.117188 C 156.789062 59.996094 158.566406 58.074219 159.828125 54.417969 C 162.925781 45.445312 166.554688 36.652344 169.929688 27.773438 C 172.929688 19.886719 175.769531 11.9375 178.890625 4.101562 C 180.507812 0.0507812 181.664062 0.132812 184.359375 3.273438 C 189.3125 9.035156 190.496094 16.429688 193.132812 23.140625 C 195.941406 30.292969 199.074219 37.289062 202.085938 44.34375 C 202.863281 46.167969 203.914062 47.914062 204.390625 49.808594 C 205.441406 53.949219 207.679688 56.589844 212.109375 56.992188 C 211.882812 57.859375 211.214844 58.539062 210.445312 58.523438 C 206.5 58.449219 205.242188 61.324219 203.496094 64.113281 C 199.976562 69.738281 197 75.664062 193.417969 81.507812 C 198.4375 80.355469 203.347656 79.429688 208.074219 77.878906 C 221.503906 73.460938 235.023438 69.355469 248.582031 65.339844 C 255.820312 63.195312 262.628906 59.675781 269.816406 57.257812 C 271.171875 57.292969 272.945312 56.277344 273.660156 58.128906 C 274.398438 60.039062 273.160156 61.265625 271.617188 62.40625 C 260.363281 70.75 249.144531 79.144531 237.96875 87.589844 C 234.105469 90.507812 230.175781 93.351562 226.753906 96.820312 C 225.640625 97.953125 224.289062 98.851562 223.976562 100.550781 C 221.792969 103.128906 219.1875 101.730469 216.914062 101.007812 C 211.035156 99.140625 205.042969 97.746094 199.066406 96.273438 C 197.308594 95.839844 195.515625 95.332031 193.15625 95.503906 C 196.132812 101.058594 199.535156 105.863281 203.210938 110.359375 C 216.164062 126.183594 229.316406 141.851562 243.03125 157.03125 C 243.578125 157.636719 244 158.316406 244.929688 158.304688 Z M 244.929688 158.304688 " fill-opacity="1" fill-rule="nonzero"/></g><path fill="#4e7943" d="M 244.929688 158.304688 C 244.761719 159.070312 244.839844 160.210938 244.371094 160.519531 C 243.53125 161.074219 243.089844 159.996094 242.585938 159.425781 C 228.851562 143.914062 215.292969 128.246094 202.289062 112.117188 C 198.097656 106.917969 194.550781 101.203125 190.738281 95.703125 C 190.21875 94.957031 189.445312 94.054688 190.128906 93.167969 C 190.824219 92.257812 191.871094 92.96875 192.753906 93.125 C 200.410156 94.488281 207.949219 96.332031 215.386719 98.601562 C 218.203125 99.460938 220.988281 100.449219 223.976562 100.550781 C 228.019531 107.824219 230.691406 115.683594 233.496094 123.460938 C 237.199219 133.742188 240.054688 144.320312 244.394531 154.378906 C 244.933594 155.632812 245.054688 156.953125 244.929688 158.304688 Z M 244.929688 158.304688 " fill-opacity="1" fill-rule="nonzero"/><path fill="#4e7943" d="M 269.820312 57.257812 C 269.292969 59.4375 267.34375 59.933594 265.671875 60.691406 C 254.179688 65.886719 242.082031 69.289062 230.039062 72.882812 C 217.746094 76.550781 205.496094 80.375 193.214844 84.089844 C 192.144531 84.414062 190.785156 85.488281 189.910156 84.261719 C 189.121094 83.160156 190.257812 82.019531 190.867188 81.011719 C 195.160156 73.914062 199.707031 66.957031 203.671875 59.683594 C 205.867188 55.660156 209.261719 57.703125 212.109375 56.992188 C 231.347656 57.082031 250.582031 57.171875 269.816406 57.257812 Z M 269.820312 57.257812 " fill-opacity="1" fill-rule="nonzero"/><path fill="#4e7943" d="M 144.332031 364.554688 C 145.730469 365.101562 145.867188 366.332031 145.835938 367.550781 C 145.804688 368.679688 146.371094 370.101562 145.011719 370.792969 C 143.976562 371.320312 143.019531 370.738281 142.042969 370.160156 C 133.496094 365.097656 125.109375 359.792969 116.910156 354.179688 C 107.734375 347.898438 98.441406 341.789062 89.28125 335.488281 C 87.265625 334.105469 85.746094 334.4375 83.929688 335.699219 C 75.132812 341.789062 66.300781 347.832031 57.457031 353.851562 C 47.996094 360.292969 38.457031 366.625 29.066406 373.167969 C 27.28125 374.410156 25.34375 374.941406 23.984375 373.78125 C 22.558594 372.558594 22.472656 370.523438 22.910156 368.261719 C 26.019531 352.191406 32.03125 337 36.738281 321.421875 C 37.886719 317.625 39.445312 313.949219 40.886719 310.25 C 42.117188 307.089844 42.75 304.242188 39.21875 301.921875 C 30.167969 295.972656 21.382812 289.628906 12.089844 284.027344 C 8.625 281.941406 5.742188 278.898438 2.585938 276.300781 C 1.289062 275.234375 -0.0117188 273.597656 0.492188 272.273438 C 1.121094 270.613281 3.109375 269.734375 5.113281 269.785156 C 12.09375 269.960938 19.007812 268.738281 25.921875 268.550781 C 34.777344 268.316406 43.457031 266.640625 52.269531 266.367188 C 56.191406 266.246094 57.96875 264.324219 59.230469 260.667969 C 62.328125 251.695312 65.957031 242.902344 69.332031 234.023438 C 72.332031 226.136719 75.171875 218.1875 78.292969 210.351562 C 79.910156 206.300781 81.066406 206.382812 83.761719 209.523438 C 88.714844 215.285156 89.898438 222.679688 92.535156 229.390625 C 95.347656 236.542969 98.476562 243.539062 101.488281 250.59375 C 102.265625 252.417969 103.316406 254.164062 103.796875 256.058594 C 104.84375 260.199219 107.082031 262.839844 111.511719 263.242188 C 111.285156 264.109375 110.617188 264.789062 109.851562 264.773438 C 105.902344 264.699219 104.644531 267.574219 102.898438 270.363281 C 99.378906 275.988281 96.40625 281.914062 92.820312 287.757812 C 97.84375 286.605469 102.75 285.679688 107.476562 284.128906 C 120.90625 279.710938 134.425781 275.605469 147.984375 271.589844 C 155.222656 269.445312 162.03125 265.925781 169.222656 263.507812 C 170.574219 263.542969 172.347656 262.527344 173.0625 264.378906 C 173.800781 266.289062 172.5625 267.515625 171.019531 268.65625 C 159.769531 277 148.550781 285.394531 137.371094 293.839844 C 133.507812 296.757812 129.578125 299.601562 126.15625 303.070312 C 125.042969 304.203125 123.691406 305.101562 123.378906 306.800781 C 121.195312 309.378906 118.59375 307.980469 116.316406 307.257812 C 110.4375 305.390625 104.445312 303.996094 98.46875 302.523438 C 96.710938 302.089844 94.917969 301.582031 92.558594 301.753906 C 95.535156 307.308594 98.9375 312.113281 102.617188 316.609375 C 115.566406 332.433594 128.71875 348.101562 142.433594 363.28125 C 142.980469 363.886719 143.402344 364.566406 144.332031 364.554688 Z M 144.332031 364.554688 " fill-opacity="1" fill-rule="nonzero"/><path fill="#4e7943" d="M 144.332031 364.554688 C 144.164062 365.320312 144.242188 366.460938 143.773438 366.769531 C 142.933594 367.324219 142.496094 366.246094 141.988281 365.675781 C 128.253906 350.164062 114.695312 334.496094 101.691406 318.367188 C 97.503906 313.167969 93.957031 307.453125 90.140625 301.953125 C 89.621094 301.207031 88.851562 300.304688 89.53125 299.417969 C 90.230469 298.507812 91.273438 299.21875 92.15625 299.375 C 99.8125 300.738281 107.351562 302.582031 114.789062 304.851562 C 117.605469 305.710938 120.390625 306.699219 123.378906 306.800781 C 127.425781 314.074219 130.09375 321.933594 132.898438 329.710938 C 136.601562 339.992188 139.457031 350.570312 143.796875 360.628906 C 144.335938 361.882812 144.457031 363.203125 144.332031 364.554688 Z M 144.332031 364.554688 " fill-opacity="1" fill-rule="nonzero"/><path fill="#4e7943" d="M 169.222656 263.507812 C 168.695312 265.6875 166.746094 266.183594 165.074219 266.941406 C 153.585938 272.136719 141.484375 275.539062 129.441406 279.132812 C 117.148438 282.800781 104.898438 286.625 92.621094 290.339844 C 91.546875 290.664062 90.191406 291.738281 89.3125 290.511719 C 88.523438 289.410156 89.660156 288.269531 90.273438 287.261719 C 94.566406 280.164062 99.109375 273.207031 103.074219 265.933594 C 105.269531 261.910156 108.664062 263.953125 111.511719 263.242188 C 130.75 263.332031 149.984375 263.421875 169.222656 263.507812 Z M 169.222656 263.507812 " fill-opacity="1" fill-rule="nonzero"/><g clip-path="url(#51f1719434)"><path fill="#4e7943" d="M 345.527344 364.554688 C 346.925781 365.101562 347.0625 366.332031 347.03125 367.550781 C 347 368.679688 347.566406 370.101562 346.203125 370.792969 C 345.171875 371.320312 344.214844 370.738281 343.238281 370.160156 C 334.691406 365.097656 326.300781 359.792969 318.105469 354.179688 C 308.929688 347.898438 299.636719 341.789062 290.472656 335.488281 C 288.460938 334.105469 286.941406 334.4375 285.121094 335.699219 C 276.324219 341.789062 267.496094 347.832031 258.652344 353.851562 C 249.1875 360.292969 239.652344 366.625 230.261719 373.167969 C 228.472656 374.410156 226.539062 374.941406 225.179688 373.78125 C 223.75 372.558594 223.664062 370.523438 224.105469 368.261719 C 227.214844 352.191406 233.222656 337 237.933594 321.421875 C 239.082031 317.625 240.636719 313.949219 242.078125 310.25 C 243.3125 307.089844 243.941406 304.242188 240.410156 301.921875 C 231.359375 295.972656 222.578125 289.628906 213.28125 284.027344 C 209.820312 281.941406 206.933594 278.898438 203.777344 276.300781 C 202.484375 275.234375 201.183594 273.597656 201.683594 272.273438 C 202.316406 270.613281 204.304688 269.734375 206.308594 269.785156 C 213.289062 269.960938 220.203125 268.738281 227.117188 268.550781 C 235.972656 268.316406 244.652344 266.640625 253.460938 266.367188 C 257.386719 266.246094 259.164062 264.324219 260.425781 260.667969 C 263.523438 251.695312 267.152344 242.902344 270.527344 234.023438 C 273.527344 226.136719 276.367188 218.1875 279.488281 210.351562 C 281.101562 206.300781 282.257812 206.382812 284.957031 209.523438 C 289.90625 215.285156 291.09375 222.679688 293.730469 229.390625 C 296.539062 236.542969 299.667969 243.539062 302.683594 250.59375 C 303.460938 252.417969 304.507812 254.164062 304.988281 256.058594 C 306.039062 260.199219 308.277344 262.839844 312.707031 263.242188 C 312.476562 264.109375 311.808594 264.789062 311.042969 264.773438 C 307.097656 264.699219 305.839844 267.574219 304.09375 270.363281 C 300.574219 275.988281 297.597656 281.914062 294.015625 287.757812 C 299.035156 286.605469 303.945312 285.679688 308.667969 284.128906 C 322.101562 279.710938 335.621094 275.605469 349.179688 271.589844 C 356.417969 269.445312 363.226562 265.925781 370.414062 263.507812 C 371.769531 263.542969 373.542969 262.527344 374.257812 264.378906 C 374.996094 266.289062 373.753906 267.515625 372.214844 268.65625 C 360.960938 277 349.742188 285.394531 338.566406 293.839844 C 334.703125 296.757812 330.773438 299.601562 327.351562 303.070312 C 326.234375 304.203125 324.886719 305.101562 324.574219 306.800781 C 322.386719 309.378906 319.785156 307.980469 317.511719 307.257812 C 311.632812 305.390625 305.640625 303.996094 299.664062 302.523438 C 297.902344 302.089844 296.113281 301.582031 293.753906 301.753906 C 296.730469 307.308594 300.132812 312.113281 303.808594 316.609375 C 316.761719 332.433594 329.910156 348.101562 343.625 363.28125 C 344.175781 363.886719 344.597656 364.566406 345.527344 364.554688 Z M 345.527344 364.554688 " fill-opacity="1" fill-rule="nonzero"/></g><path fill="#4e7943" d="M 345.527344 364.554688 C 345.359375 365.320312 345.4375 366.460938 344.96875 366.769531 C 344.128906 367.324219 343.6875 366.246094 343.183594 365.675781 C 329.449219 350.164062 315.890625 334.496094 302.886719 318.367188 C 298.695312 313.167969 295.148438 307.453125 291.332031 301.953125 C 290.816406 301.207031 290.042969 300.304688 290.726562 299.417969 C 291.421875 298.507812 292.46875 299.21875 293.351562 299.375 C 301.007812 300.738281 308.546875 302.582031 315.984375 304.851562 C 318.800781 305.710938 321.585938 306.699219 324.574219 306.800781 C 328.617188 314.074219 331.289062 321.933594 334.09375 329.710938 C 337.796875 339.992188 340.648438 350.570312 344.988281 360.628906 C 345.53125 361.882812 345.652344 363.203125 345.527344 364.554688 Z M 345.527344 364.554688 " fill-opacity="1" fill-rule="nonzero"/><path fill="#4e7943" d="M 370.414062 263.507812 C 369.890625 265.6875 367.941406 266.183594 366.265625 266.941406 C 354.777344 272.136719 342.675781 275.539062 330.636719 279.132812 C 318.339844 282.800781 306.09375 286.625 293.8125 290.339844 C 292.742188 290.664062 291.382812 291.738281 290.507812 290.511719 C 289.71875 289.410156 290.855469 288.269531 291.464844 287.261719 C 295.757812 280.164062 300.304688 273.207031 304.269531 265.933594 C 306.460938 261.910156 309.859375 263.953125 312.707031 263.242188 C 331.941406 263.332031 351.179688 263.421875 370.414062 263.507812 Z M 370.414062 263.507812 " fill-opacity="1" fill-rule="nonzero"/></svg>