<svg xmlns="http://www.w3.org/2000/svg" xmlns:xlink="http://www.w3.org/1999/xlink" width="500" zoomAndPan="magnify" viewBox="0 0 375 374.999991" height="500" preserveAspectRatio="xMidYMid meet" version="1.0"><defs><clipPath id="d1dbc8158f"><path d="M 0 0 L 174 0 L 174 168.75 L 0 168.75 Z M 0 0 " clip-rule="nonzero"/></clipPath><clipPath id="ffd09a6fc3"><path d="M 201.195312 0 L 375 0 L 375 168.75 L 201.195312 168.75 Z M 201.195312 0 " clip-rule="nonzero"/></clipPath><clipPath id="6d45a8ad5b"><path d="M 201.195312 207 L 375 207 L 375 375 L 201.195312 375 Z M 201.195312 207 " clip-rule="nonzero"/></clipPath></defs><g clip-path="url(#d1dbc8158f)"><path fill="#4e7943" d="M 144.332031 158.304688 C 145.730469 158.851562 145.867188 160.082031 145.835938 161.300781 C 145.804688 162.429688 146.371094 163.851562 145.011719 164.542969 C 143.976562 165.070312 143.019531 164.488281 142.042969 163.910156 C 133.496094 158.847656 125.109375 153.542969 116.910156 147.929688 C 107.734375 141.648438 98.441406 135.539062 89.28125 129.238281 C 87.265625 127.855469 85.746094 128.1875 83.929688 129.449219 C 75.132812 135.539062 66.300781 141.582031 57.457031 147.601562 C 47.996094 154.042969 38.457031 160.375 29.066406 166.917969 C 27.28125 168.160156 25.34375 168.691406 23.984375 167.53125 C 22.558594 166.308594 22.472656 164.273438 22.910156 162.011719 C 26.019531 145.941406 32.03125 130.75 36.738281 115.171875 C 37.886719 111.375 39.445312 107.699219 40.886719 104 C 42.117188 100.839844 42.75 97.992188 39.21875 95.671875 C 30.167969 89.722656 21.382812 83.378906 12.089844 77.777344 C 8.625 75.691406 5.742188 72.648438 2.585938 70.050781 C 1.289062 68.984375 -0.0117188 67.347656 0.492188 66.023438 C 1.121094 64.363281 3.109375 63.484375 5.113281 63.535156 C 12.09375 63.710938 19.007812 62.488281 25.921875 62.300781 C 34.777344 62.066406 43.457031 60.390625 52.269531 60.117188 C 56.191406 59.996094 57.96875 58.074219 59.230469 54.417969 C 62.328125 45.445312 65.957031 36.652344 69.332031 27.773438 C 72.332031 19.886719 75.171875 11.9375 78.292969 4.101562 C 79.910156 0.0507812 81.066406 0.132812 83.761719 3.273438 C 88.714844 9.035156 89.898438 16.429688 92.535156 23.140625 C 95.347656 30.292969 98.476562 37.289062 101.488281 44.34375 C 102.265625 46.167969 103.316406 47.914062 103.796875 49.808594 C 104.84375 53.949219 107.082031 56.589844 111.511719 56.992188 C 111.285156 57.859375 110.617188 58.539062 109.851562 58.523438 C 105.902344 58.449219 104.644531 61.324219 102.898438 64.113281 C 99.378906 69.738281 96.40625 75.664062 92.820312 81.507812 C 97.84375 80.355469 102.75 79.429688 107.476562 77.878906 C 120.90625 73.460938 134.425781 69.355469 147.984375 65.339844 C 155.222656 63.195312 162.03125 59.675781 169.222656 57.257812 C 170.574219 57.292969 172.347656 56.277344 173.0625 58.128906 C 173.800781 60.039062 172.5625 61.265625 171.019531 62.40625 C 159.769531 70.75 148.550781 79.144531 137.371094 87.589844 C 133.507812 90.507812 129.578125 93.351562 126.15625 96.820312 C 125.042969 97.953125 123.691406 98.851562 123.378906 100.550781 C 121.195312 103.128906 118.59375 101.730469 116.316406 101.007812 C 110.4375 99.140625 104.445312 97.746094 98.46875 96.273438 C 96.710938 95.839844 94.917969 95.332031 92.558594 95.503906 C 95.535156 101.058594 98.9375 105.863281 102.617188 110.359375 C 115.566406 126.183594 128.71875 141.851562 142.433594 157.03125 C 142.980469 157.636719 143.402344 158.316406 144.332031 158.304688 Z M 144.332031 158.304688 " fill-opacity="1" fill-rule="nonzero"/></g><path fill="#4e7943" d="M 144.332031 158.304688 C 144.164062 159.070312 144.242188 160.210938 143.773438 160.519531 C 142.933594 161.074219 142.496094 159.996094 141.988281 159.425781 C 128.253906 143.914062 114.695312 128.246094 101.691406 112.117188 C 97.503906 106.917969 93.957031 101.203125 90.140625 95.703125 C 89.621094 94.957031 88.851562 94.054688 89.53125 93.167969 C 90.230469 92.257812 91.273438 92.96875 92.15625 93.125 C 99.8125 94.488281 107.351562 96.332031 114.789062 98.601562 C 117.605469 99.460938 120.390625 100.449219 123.378906 100.550781 C 127.425781 107.824219 130.09375 115.683594 132.898438 123.460938 C 136.601562 133.742188 139.457031 144.320312 143.796875 154.378906 C 144.335938 155.632812 144.457031 156.953125 144.332031 158.304688 Z M 144.332031 158.304688 " fill-opacity="1" fill-rule="nonzero"/><path fill="#4e7943" d="M 169.222656 57.257812 C 168.695312 59.4375 166.746094 59.933594 165.074219 60.691406 C 153.585938 65.886719 141.484375 69.289062 129.441406 72.882812 C 117.148438 76.550781 104.898438 80.375 92.621094 84.089844 C 91.546875 84.414062 90.191406 85.488281 89.3125 84.261719 C 88.523438 83.160156 89.660156 82.019531 90.273438 81.011719 C 94.566406 73.914062 99.109375 66.957031 103.074219 59.683594 C 105.269531 55.660156 108.664062 57.703125 111.511719 56.992188 C 130.75 57.082031 149.984375 57.171875 169.222656 57.257812 Z M 169.222656 57.257812 " fill-opacity="1" fill-rule="nonzero"/><path fill="#4e7943" d="M 144.332031 364.554688 C 145.730469 365.101562 145.867188 366.332031 145.835938 367.550781 C 145.804688 368.679688 146.371094 370.101562 145.011719 370.792969 C 143.976562 371.320312 143.019531 370.738281 142.042969 370.160156 C 133.496094 365.097656 125.109375 359.792969 116.910156 354.179688 C 107.734375 347.898438 98.441406 341.789062 89.28125 335.488281 C 87.265625 334.105469 85.746094 334.4375 83.929688 335.699219 C 75.132812 341.789062 66.300781 347.832031 57.457031 353.851562 C 47.996094 360.292969 38.457031 366.625 29.066406 373.167969 C 27.28125 374.410156 25.34375 374.941406 23.984375 373.78125 C 22.558594 372.558594 22.472656 370.523438 22.910156 368.261719 C 26.019531 352.191406 32.03125 337 36.738281 321.421875 C 37.886719 317.625 39.445312 313.949219 40.886719 310.25 C 42.117188 307.089844 42.75 304.242188 39.21875 301.921875 C 30.167969 295.972656 21.382812 289.628906 12.089844 284.027344 C 8.625 281.941406 5.742188 278.898438 2.585938 276.300781 C 1.289062 275.234375 -0.0117188 273.597656 0.492188 272.273438 C 1.121094 270.613281 3.109375 269.734375 5.113281 269.785156 C 12.09375 269.960938 19.007812 268.738281 25.921875 268.550781 C 34.777344 268.316406 43.457031 266.640625 52.269531 266.367188 C 56.191406 266.246094 57.96875 264.324219 59.230469 260.667969 C 62.328125 251.695312 65.957031 242.902344 69.332031 234.023438 C 72.332031 226.136719 75.171875 218.1875 78.292969 210.351562 C 79.910156 206.300781 81.066406 206.382812 83.761719 209.523438 C 88.714844 215.285156 89.898438 222.679688 92.535156 229.390625 C 95.347656 236.542969 98.476562 243.539062 101.488281 250.59375 C 102.265625 252.417969 103.316406 254.164062 103.796875 256.058594 C 104.84375 260.199219 107.082031 262.839844 111.511719 263.242188 C 111.285156 264.109375 110.617188 264.789062 109.851562 264.773438 C 105.902344 264.699219 104.644531 267.574219 102.898438 270.363281 C 99.378906 275.988281 96.40625 281.914062 92.820312 287.757812 C 97.84375 286.605469 102.75 285.679688 107.476562 284.128906 C 120.90625 279.710938 134.425781 275.605469 147.984375 271.589844 C 155.222656 269.445312 162.03125 265.925781 169.222656 263.507812 C 170.574219 263.542969 172.347656 262.527344 173.0625 264.378906 C 173.800781 266.289062 172.5625 267.515625 171.019531 268.65625 C 159.769531 277 148.550781 285.394531 137.371094 293.839844 C 133.507812 296.757812 129.578125 299.601562 126.15625 303.070312 C 125.042969 304.203125 123.691406 305.101562 123.378906 306.800781 C 121.195312 309.378906 118.59375 307.980469 116.316406 307.257812 C 110.4375 305.390625 104.445312 303.996094 98.46875 302.523438 C 96.710938 302.089844 94.917969 301.582031 92.558594 301.753906 C 95.535156 307.308594 98.9375 312.113281 102.617188 316.609375 C 115.566406 332.433594 128.71875 348.101562 142.433594 363.28125 C 142.980469 363.886719 143.402344 364.566406 144.332031 364.554688 Z M 144.332031 364.554688 " fill-opacity="1" fill-rule="nonzero"/><path fill="#4e7943" d="M 144.332031 364.554688 C 144.164062 365.320312 144.242188 366.460938 143.773438 366.769531 C 142.933594 367.324219 142.496094 366.246094 141.988281 365.675781 C 128.253906 350.164062 114.695312 334.496094 101.691406 318.367188 C 97.503906 313.167969 93.957031 307.453125 90.140625 301.953125 C 89.621094 301.207031 88.851562 300.304688 89.53125 299.417969 C 90.230469 298.507812 91.273438 299.21875 92.15625 299.375 C 99.8125 300.738281 107.351562 302.582031 114.789062 304.851562 C 117.605469 305.710938 120.390625 306.699219 123.378906 306.800781 C 127.425781 314.074219 130.09375 321.933594 132.898438 329.710938 C 136.601562 339.992188 139.457031 350.570312 143.796875 360.628906 C 144.335938 361.882812 144.457031 363.203125 144.332031 364.554688 Z M 144.332031 364.554688 " fill-opacity="1" fill-rule="nonzero"/><path fill="#4e7943" d="M 169.222656 263.507812 C 168.695312 265.6875 166.746094 266.183594 165.074219 266.941406 C 153.585938 272.136719 141.484375 275.539062 129.441406 279.132812 C 117.148438 282.800781 104.898438 286.625 92.621094 290.339844 C 91.546875 290.664062 90.191406 291.738281 89.3125 290.511719 C 88.523438 289.410156 89.660156 288.269531 90.273438 287.261719 C 94.566406 280.164062 99.109375 273.207031 103.074219 265.933594 C 105.269531 261.910156 108.664062 263.953125 111.511719 263.242188 C 130.75 263.332031 149.984375 263.421875 169.222656 263.507812 Z M 169.222656 263.507812 " fill-opacity="1" fill-rule="nonzero"/><g clip-path="url(#ffd09a6fc3)"><path fill="#4e7943" d="M 345.527344 158.304688 C 346.925781 158.851562 347.0625 160.082031 347.03125 161.300781 C 347 162.429688 347.566406 163.851562 346.203125 164.542969 C 345.171875 165.070312 344.214844 164.488281 343.238281 163.910156 C 334.691406 158.847656 326.300781 153.542969 318.105469 147.929688 C 308.929688 141.648438 299.636719 135.539062 290.472656 129.238281 C 288.460938 127.855469 286.941406 128.1875 285.121094 129.449219 C 276.324219 135.539062 267.496094 141.582031 258.652344 147.601562 C 249.1875 154.042969 239.652344 160.375 230.261719 166.917969 C 228.472656 168.160156 226.539062 168.691406 225.179688 167.53125 C 223.75 166.308594 223.664062 164.273438 224.105469 162.011719 C 227.214844 145.941406 233.222656 130.75 237.933594 115.171875 C 239.082031 111.375 240.636719 107.699219 242.078125 104 C 243.3125 100.839844 243.941406 97.992188 240.410156 95.671875 C 231.359375 89.722656 222.578125 83.378906 213.28125 77.777344 C 209.820312 75.691406 206.933594 72.648438 203.777344 70.050781 C 202.484375 68.984375 201.183594 67.347656 201.683594 66.023438 C 202.316406 64.363281 204.304688 63.484375 206.308594 63.535156 C 213.289062 63.710938 220.203125 62.488281 227.117188 62.300781 C 235.972656 62.066406 244.652344 60.390625 253.460938 60.117188 C 257.386719 59.996094 259.164062 58.074219 260.425781 54.417969 C 263.523438 45.445312 267.152344 36.652344 270.527344 27.773438 C 273.527344 19.886719 276.367188 11.9375 279.488281 4.101562 C 281.101562 0.0507812 282.257812 0.132812 284.957031 3.273438 C 289.90625 9.035156 291.09375 16.429688 293.730469 23.140625 C 296.539062 30.292969 299.667969 37.289062 302.683594 44.34375 C 303.460938 46.167969 304.507812 47.914062 304.988281 49.808594 C 306.039062 53.949219 308.277344 56.589844 312.707031 56.992188 C 312.476562 57.859375 311.808594 58.539062 311.042969 58.523438 C 307.097656 58.449219 305.839844 61.324219 304.09375 64.113281 C 300.574219 69.738281 297.597656 75.664062 294.015625 81.507812 C 299.035156 80.355469 303.945312 79.429688 308.667969 77.878906 C 322.101562 73.460938 335.621094 69.355469 349.179688 65.339844 C 356.417969 63.195312 363.226562 59.675781 370.414062 57.257812 C 371.769531 57.292969 373.542969 56.277344 374.257812 58.128906 C 374.996094 60.039062 373.753906 61.265625 372.214844 62.40625 C 360.960938 70.75 349.742188 79.144531 338.566406 87.589844 C 334.703125 90.507812 330.773438 93.351562 327.351562 96.820312 C 326.234375 97.953125 324.886719 98.851562 324.574219 100.550781 C 322.386719 103.128906 319.785156 101.730469 317.511719 101.007812 C 311.632812 99.140625 305.640625 97.746094 299.664062 96.273438 C 297.902344 95.839844 296.113281 95.332031 293.753906 95.503906 C 296.730469 101.058594 300.132812 105.863281 303.808594 110.359375 C 316.761719 126.183594 329.910156 141.851562 343.625 157.03125 C 344.175781 157.636719 344.597656 158.316406 345.527344 158.304688 Z M 345.527344 158.304688 " fill-opacity="1" fill-rule="nonzero"/></g><path fill="#4e7943" d="M 345.527344 158.304688 C 345.359375 159.070312 345.4375 160.210938 344.96875 160.519531 C 344.128906 161.074219 343.6875 159.996094 343.183594 159.425781 C 329.449219 143.914062 315.890625 128.246094 302.886719 112.117188 C 298.695312 106.917969 295.148438 101.203125 291.332031 95.703125 C 290.816406 94.957031 290.042969 94.054688 290.726562 93.167969 C 291.421875 92.257812 292.46875 92.96875 293.351562 93.125 C 301.007812 94.488281 308.546875 96.332031 315.984375 98.601562 C 318.800781 99.460938 321.585938 100.449219 324.574219 100.550781 C 328.617188 107.824219 331.289062 115.683594 334.09375 123.460938 C 337.796875 133.742188 340.648438 144.320312 344.988281 154.378906 C 345.53125 155.632812 345.652344 156.953125 345.527344 158.304688 Z M 345.527344 158.304688 " fill-opacity="1" fill-rule="nonzero"/><path fill="#4e7943" d="M 370.414062 57.257812 C 369.890625 59.4375 367.941406 59.933594 366.265625 60.691406 C 354.777344 65.886719 342.675781 69.289062 330.636719 72.882812 C 318.339844 76.550781 306.09375 80.375 293.8125 84.089844 C 292.742188 84.414062 291.382812 85.488281 290.507812 84.261719 C 289.71875 83.160156 290.855469 82.019531 291.464844 81.011719 C 295.757812 73.914062 300.304688 66.957031 304.269531 59.683594 C 306.460938 55.660156 309.859375 57.703125 312.707031 56.992188 C 331.941406 57.082031 351.179688 57.171875 370.414062 57.257812 Z M 370.414062 57.257812 " fill-opacity="1" fill-rule="nonzero"/><g clip-path="url(#6d45a8ad5b)"><path fill="#4e7943" d="M 345.527344 364.554688 C 346.925781 365.101562 347.0625 366.332031 347.03125 367.550781 C 347 368.679688 347.566406 370.101562 346.203125 370.792969 C 345.171875 371.320312 344.214844 370.738281 343.238281 370.160156 C 334.691406 365.097656 326.300781 359.792969 318.105469 354.179688 C 308.929688 347.898438 299.636719 341.789062 290.472656 335.488281 C 288.460938 334.105469 286.941406 334.4375 285.121094 335.699219 C 276.324219 341.789062 267.496094 347.832031 258.652344 353.851562 C 249.1875 360.292969 239.652344 366.625 230.261719 373.167969 C 228.472656 374.410156 226.539062 374.941406 225.179688 373.78125 C 223.75 372.558594 223.664062 370.523438 224.105469 368.261719 C 227.214844 352.191406 233.222656 337 237.933594 321.421875 C 239.082031 317.625 240.636719 313.949219 242.078125 310.25 C 243.3125 307.089844 243.941406 304.242188 240.410156 301.921875 C 231.359375 295.972656 222.578125 289.628906 213.28125 284.027344 C 209.820312 281.941406 206.933594 278.898438 203.777344 276.300781 C 202.484375 275.234375 201.183594 273.597656 201.683594 272.273438 C 202.316406 270.613281 204.304688 269.734375 206.308594 269.785156 C 213.289062 269.960938 220.203125 268.738281 227.117188 268.550781 C 235.972656 268.316406 244.652344 266.640625 253.460938 266.367188 C 257.386719 266.246094 259.164062 264.324219 260.425781 260.667969 C 263.523438 251.695312 267.152344 242.902344 270.527344 234.023438 C 273.527344 226.136719 276.367188 218.1875 279.488281 210.351562 C 281.101562 206.300781 282.257812 206.382812 284.957031 209.523438 C 289.90625 215.285156 291.09375 222.679688 293.730469 229.390625 C 296.539062 236.542969 299.667969 243.539062 302.683594 250.59375 C 303.460938 252.417969 304.507812 254.164062 304.988281 256.058594 C 306.039062 260.199219 308.277344 262.839844 312.707031 263.242188 C 312.476562 264.109375 311.808594 264.789062 311.042969 264.773438 C 307.097656 264.699219 305.839844 267.574219 304.09375 270.363281 C 300.574219 275.988281 297.597656 281.914062 294.015625 287.757812 C 299.035156 286.605469 303.945312 285.679688 308.667969 284.128906 C 322.101562 279.710938 335.621094 275.605469 349.179688 271.589844 C 356.417969 269.445312 363.226562 265.925781 370.414062 263.507812 C 371.769531 263.542969 373.542969 262.527344 374.257812 264.378906 C 374.996094 266.289062 373.753906 267.515625 372.214844 268.65625 C 360.960938 277 349.742188 285.394531 338.566406 293.839844 C 334.703125 296.757812 330.773438 299.601562 327.351562 303.070312 C 326.234375 304.203125 324.886719 305.101562 324.574219 306.800781 C 322.386719 309.378906 319.785156 307.980469 317.511719 307.257812 C 311.632812 305.390625 305.640625 303.996094 299.664062 302.523438 C 297.902344 302.089844 296.113281 301.582031 293.753906 301.753906 C 296.730469 307.308594 300.132812 312.113281 303.808594 316.609375 C 316.761719 332.433594 329.910156 348.101562 343.625 363.28125 C 344.175781 363.886719 344.597656 364.566406 345.527344 364.554688 Z M 345.527344 364.554688 " fill-opacity="1" fill-rule="nonzero"/></g><path fill="#4e7943" d="M 345.527344 364.554688 C 345.359375 365.320312 345.4375 366.460938 344.96875 366.769531 C 344.128906 367.324219 343.6875 366.246094 343.183594 365.675781 C 329.449219 350.164062 315.890625 334.496094 302.886719 318.367188 C 298.695312 313.167969 295.148438 307.453125 291.332031 301.953125 C 290.816406 301.207031 290.042969 300.304688 290.726562 299.417969 C 291.421875 298.507812 292.46875 299.21875 293.351562 299.375 C 301.007812 300.738281 308.546875 302.582031 315.984375 304.851562 C 318.800781 305.710938 321.585938 306.699219 324.574219 306.800781 C 328.617188 314.074219 331.289062 321.933594 334.09375 329.710938 C 337.796875 339.992188 340.648438 350.570312 344.988281 360.628906 C 345.53125 361.882812 345.652344 363.203125 345.527344 364.554688 Z M 345.527344 364.554688 " fill-opacity="1" fill-rule="nonzero"/><path fill="#4e7943" d="M 370.414062 263.507812 C 369.890625 265.6875 367.941406 266.183594 366.265625 266.941406 C 354.777344 272.136719 342.675781 275.539062 330.636719 279.132812 C 318.339844 282.800781 306.09375 286.625 293.8125 290.339844 C 292.742188 290.664062 291.382812 291.738281 290.507812 290.511719 C 289.71875 289.410156 290.855469 288.269531 291.464844 287.261719 C 295.757812 280.164062 300.304688 273.207031 304.269531 265.933594 C 306.460938 261.910156 309.859375 263.953125 312.707031 263.242188 C 331.941406 263.332031 351.179688 263.421875 370.414062 263.507812 Z M 370.414062 263.507812 " fill-opacity="1" fill-rule="nonzero"/></svg>