<svg xmlns="http://www.w3.org/2000/svg" xmlns:xlink="http://www.w3.org/1999/xlink" width="500" zoomAndPan="magnify" viewBox="0 0 375 374.999991" height="500" preserveAspectRatio="xMidYMid meet" version="1.0"><defs><clipPath id="cea0ee2dad"><path d="M 0 104 L 174 104 L 174 271.875 L 0 271.875 Z M 0 104 " clip-rule="nonzero"/></clipPath><clipPath id="b60d7ffe8c"><path d="M 201.195312 104 L 375 104 L 375 271.875 L 201.195312 271.875 Z M 201.195312 104 " clip-rule="nonzero"/></clipPath></defs><g clip-path="url(#cea0ee2dad)"><path fill="#5271ff" d="M 144.332031 261.429688 C 145.730469 261.976562 145.867188 263.207031 145.835938 264.425781 C 145.804688 265.554688 146.371094 266.976562 145.011719 267.667969 C 143.976562 268.195312 143.019531 267.613281 142.042969 267.035156 C 133.496094 261.972656 125.109375 256.667969 116.910156 251.054688 C 107.734375 244.773438 98.441406 238.664062 89.28125 232.363281 C 87.265625 230.980469 85.746094 231.3125 83.929688 232.574219 C 75.132812 238.664062 66.300781 244.707031 57.457031 250.726562 C 47.996094 257.167969 38.457031 263.5 29.066406 270.042969 C 27.28125 271.285156 25.34375 271.816406 23.984375 270.65625 C 22.558594 269.433594 22.472656 267.398438 22.910156 265.136719 C 26.019531 249.066406 32.03125 233.875 36.738281 218.296875 C 37.886719 214.5 39.445312 210.824219 40.886719 207.125 C 42.117188 203.964844 42.75 201.117188 39.21875 198.796875 C 30.167969 192.847656 21.382812 186.503906 12.089844 180.902344 C 8.625 178.816406 5.742188 175.773438 2.585938 173.175781 C 1.289062 172.109375 -0.0117188 170.472656 0.492188 169.148438 C 1.121094 167.488281 3.109375 166.609375 5.113281 166.660156 C 12.09375 166.835938 19.007812 165.613281 25.921875 165.425781 C 34.777344 165.191406 43.457031 163.515625 52.269531 163.242188 C 56.191406 163.121094 57.96875 161.199219 59.230469 157.542969 C 62.328125 148.570312 65.957031 139.777344 69.332031 130.898438 C 72.332031 123.011719 75.171875 115.0625 78.292969 107.226562 C 79.910156 103.175781 81.066406 103.257812 83.761719 106.398438 C 88.714844 112.160156 89.898438 119.554688 92.535156 126.265625 C 95.347656 133.417969 98.476562 140.414062 101.488281 147.46875 C 102.265625 149.292969 103.316406 151.039062 103.796875 152.933594 C 104.84375 157.074219 107.082031 159.714844 111.511719 160.117188 C 111.285156 160.984375 110.617188 161.664062 109.851562 161.648438 C 105.902344 161.574219 104.644531 164.449219 102.898438 167.238281 C 99.378906 172.863281 96.40625 178.789062 92.820312 184.632812 C 97.84375 183.480469 102.75 182.554688 107.476562 181.003906 C 120.90625 176.585938 134.425781 172.480469 147.984375 168.464844 C 155.222656 166.320312 162.03125 162.800781 169.222656 160.382812 C 170.574219 160.417969 172.347656 159.402344 173.0625 161.253906 C 173.800781 163.164062 172.5625 164.390625 171.019531 165.53125 C 159.769531 173.875 148.550781 182.269531 137.371094 190.714844 C 133.507812 193.632812 129.578125 196.476562 126.15625 199.945312 C 125.042969 201.078125 123.691406 201.976562 123.378906 203.675781 C 121.195312 206.253906 118.59375 204.855469 116.316406 204.132812 C 110.4375 202.265625 104.445312 200.871094 98.46875 199.398438 C 96.710938 198.964844 94.917969 198.457031 92.558594 198.628906 C 95.535156 204.183594 98.9375 208.988281 102.617188 213.484375 C 115.566406 229.308594 128.71875 244.976562 142.433594 260.15625 C 142.980469 260.761719 143.402344 261.441406 144.332031 261.429688 Z M 144.332031 261.429688 " fill-opacity="1" fill-rule="nonzero"/></g><path fill="#5271ff" d="M 144.332031 261.429688 C 144.164062 262.195312 144.242188 263.335938 143.773438 263.644531 C 142.933594 264.199219 142.496094 263.121094 141.988281 262.550781 C 128.253906 247.039062 114.695312 231.371094 101.691406 215.242188 C 97.503906 210.042969 93.957031 204.328125 90.140625 198.828125 C 89.621094 198.082031 88.851562 197.179688 89.53125 196.292969 C 90.230469 195.382812 91.273438 196.09375 92.15625 196.25 C 99.8125 197.613281 107.351562 199.457031 114.789062 201.726562 C 117.605469 202.585938 120.390625 203.574219 123.378906 203.675781 C 127.425781 210.949219 130.09375 218.808594 132.898438 226.585938 C 136.601562 236.867188 139.457031 247.445312 143.796875 257.503906 C 144.335938 258.757812 144.457031 260.078125 144.332031 261.429688 Z M 144.332031 261.429688 " fill-opacity="1" fill-rule="nonzero"/><path fill="#5271ff" d="M 169.222656 160.382812 C 168.695312 162.5625 166.746094 163.058594 165.074219 163.816406 C 153.585938 169.011719 141.484375 172.414062 129.441406 176.007812 C 117.148438 179.675781 104.898438 183.5 92.621094 187.214844 C 91.546875 187.539062 90.191406 188.613281 89.3125 187.386719 C 88.523438 186.285156 89.660156 185.144531 90.273438 184.136719 C 94.566406 177.039062 99.109375 170.082031 103.074219 162.808594 C 105.269531 158.785156 108.664062 160.828125 111.511719 160.117188 C 130.75 160.207031 149.984375 160.296875 169.222656 160.382812 Z M 169.222656 160.382812 " fill-opacity="1" fill-rule="nonzero"/><g clip-path="url(#b60d7ffe8c)"><path fill="#5271ff" d="M 345.527344 261.429688 C 346.925781 261.976562 347.0625 263.207031 347.03125 264.425781 C 347 265.554688 347.566406 266.976562 346.203125 267.667969 C 345.171875 268.195312 344.214844 267.613281 343.238281 267.035156 C 334.691406 261.972656 326.300781 256.667969 318.105469 251.054688 C 308.929688 244.773438 299.636719 238.664062 290.472656 232.363281 C 288.460938 230.980469 286.941406 231.3125 285.121094 232.574219 C 276.324219 238.664062 267.496094 244.707031 258.652344 250.726562 C 249.1875 257.167969 239.652344 263.5 230.261719 270.042969 C 228.472656 271.285156 226.539062 271.816406 225.179688 270.65625 C 223.75 269.433594 223.664062 267.398438 224.105469 265.136719 C 227.214844 249.066406 233.222656 233.875 237.933594 218.296875 C 239.082031 214.5 240.636719 210.824219 242.078125 207.125 C 243.3125 203.964844 243.941406 201.117188 240.410156 198.796875 C 231.359375 192.847656 222.578125 186.503906 213.28125 180.902344 C 209.820312 178.816406 206.933594 175.773438 203.777344 173.175781 C 202.484375 172.109375 201.183594 170.472656 201.683594 169.148438 C 202.316406 167.488281 204.304688 166.609375 206.308594 166.660156 C 213.289062 166.835938 220.203125 165.613281 227.117188 165.425781 C 235.972656 165.191406 244.652344 163.515625 253.460938 163.242188 C 257.386719 163.121094 259.164062 161.199219 260.425781 157.542969 C 263.523438 148.570312 267.152344 139.777344 270.527344 130.898438 C 273.527344 123.011719 276.367188 115.0625 279.488281 107.226562 C 281.101562 103.175781 282.257812 103.257812 284.957031 106.398438 C 289.90625 112.160156 291.09375 119.554688 293.730469 126.265625 C 296.539062 133.417969 299.667969 140.414062 302.683594 147.46875 C 303.460938 149.292969 304.507812 151.039062 304.988281 152.933594 C 306.039062 157.074219 308.277344 159.714844 312.707031 160.117188 C 312.476562 160.984375 311.808594 161.664062 311.042969 161.648438 C 307.097656 161.574219 305.839844 164.449219 304.09375 167.238281 C 300.574219 172.863281 297.597656 178.789062 294.015625 184.632812 C 299.035156 183.480469 303.945312 182.554688 308.667969 181.003906 C 322.101562 176.585938 335.621094 172.480469 349.179688 168.464844 C 356.417969 166.320312 363.226562 162.800781 370.414062 160.382812 C 371.769531 160.417969 373.542969 159.402344 374.257812 161.253906 C 374.996094 163.164062 373.753906 164.390625 372.214844 165.53125 C 360.960938 173.875 349.742188 182.269531 338.566406 190.714844 C 334.703125 193.632812 330.773438 196.476562 327.351562 199.945312 C 326.234375 201.078125 324.886719 201.976562 324.574219 203.675781 C 322.386719 206.253906 319.785156 204.855469 317.511719 204.132812 C 311.632812 202.265625 305.640625 200.871094 299.664062 199.398438 C 297.902344 198.964844 296.113281 198.457031 293.753906 198.628906 C 296.730469 204.183594 300.132812 208.988281 303.808594 213.484375 C 316.761719 229.308594 329.910156 244.976562 343.625 260.15625 C 344.175781 260.761719 344.597656 261.441406 345.527344 261.429688 Z M 345.527344 261.429688 " fill-opacity="1" fill-rule="nonzero"/></g><path fill="#5271ff" d="M 345.527344 261.429688 C 345.359375 262.195312 345.4375 263.335938 344.96875 263.644531 C 344.128906 264.199219 343.6875 263.121094 343.183594 262.550781 C 329.449219 247.039062 315.890625 231.371094 302.886719 215.242188 C 298.695312 210.042969 295.148438 204.328125 291.332031 198.828125 C 290.816406 198.082031 290.042969 197.179688 290.726562 196.292969 C 291.421875 195.382812 292.46875 196.09375 293.351562 196.25 C 301.007812 197.613281 308.546875 199.457031 315.984375 201.726562 C 318.800781 202.585938 321.585938 203.574219 324.574219 203.675781 C 328.617188 210.949219 331.289062 218.808594 334.09375 226.585938 C 337.796875 236.867188 340.648438 247.445312 344.988281 257.503906 C 345.53125 258.757812 345.652344 260.078125 345.527344 261.429688 Z M 345.527344 261.429688 " fill-opacity="1" fill-rule="nonzero"/><path fill="#5271ff" d="M 370.414062 160.382812 C 369.890625 162.5625 367.941406 163.058594 366.265625 163.816406 C 354.777344 169.011719 342.675781 172.414062 330.636719 176.007812 C 318.339844 179.675781 306.09375 183.5 293.8125 187.214844 C 292.742188 187.539062 291.382812 188.613281 290.507812 187.386719 C 289.71875 186.285156 290.855469 185.144531 291.464844 184.136719 C 295.757812 177.039062 300.304688 170.082031 304.269531 162.808594 C 306.460938 158.785156 309.859375 160.828125 312.707031 160.117188 C 331.941406 160.207031 351.179688 160.296875 370.414062 160.382812 Z M 370.414062 160.382812 " fill-opacity="1" fill-rule="nonzero"/></svg>