<svg xmlns="http://www.w3.org/2000/svg" xmlns:xlink="http://www.w3.org/1999/xlink" width="500" zoomAndPan="magnify" viewBox="0 0 375 374.999991" height="500" preserveAspectRatio="xMidYMid meet" version="1.0"><defs><clipPath id="e21aa893ad"><path d="M 5.738281 0 L 169.988281 0 L 169.988281 168.75 L 5.738281 168.75 Z M 5.738281 0 " clip-rule="nonzero"/></clipPath><clipPath id="ff40535b6d"><path d="M 87 0 L 169.988281 0 L 169.988281 168.75 L 87 168.75 Z M 87 0 " clip-rule="nonzero"/></clipPath><clipPath id="0d4ad4514e"><path d="M 5.738281 90 L 169.988281 90 L 169.988281 168.75 L 5.738281 168.75 Z M 5.738281 90 " clip-rule="nonzero"/></clipPath><clipPath id="7fa738e980"><path d="M 204.730469 0 L 368.980469 0 L 368.980469 168.75 L 204.730469 168.75 Z M 204.730469 0 " clip-rule="nonzero"/></clipPath><clipPath id="af11fd205d"><path d="M 286 0 L 368.980469 0 L 368.980469 168.75 L 286 168.75 Z M 286 0 " clip-rule="nonzero"/></clipPath><clipPath id="47af5c25b3"><path d="M 204.730469 90 L 368.980469 90 L 368.980469 168.75 L 204.730469 168.75 Z M 204.730469 90 " clip-rule="nonzero"/></clipPath><clipPath id="3491709ef7"><path d="M 5.738281 206.25 L 169.988281 206.25 L 169.988281 375 L 5.738281 375 Z M 5.738281 206.25 " clip-rule="nonzero"/></clipPath><clipPath id="4fa495a792"><path d="M 87 206.25 L 169.988281 206.25 L 169.988281 375 L 87 375 Z M 87 206.25 " clip-rule="nonzero"/></clipPath><clipPath id="88c7b055bb"><path d="M 5.738281 296 L 169.988281 296 L 169.988281 375 L 5.738281 375 Z M 5.738281 296 " clip-rule="nonzero"/></clipPath><clipPath id="16ed1a5a2d"><path d="M 204.730469 206.25 L 368.980469 206.25 L 368.980469 375 L 204.730469 375 Z M 204.730469 206.25 " clip-rule="nonzero"/></clipPath><clipPath id="17d38b2601"><path d="M 286 206.25 L 368.980469 206.25 L 368.980469 375 L 286 375 Z M 286 206.25 " clip-rule="nonzero"/></clipPath><clipPath id="214473d159"><path d="M 204.730469 296 L 368.980469 296 L 368.980469 375 L 204.730469 375 Z M 204.730469 296 " clip-rule="nonzero"/></clipPath></defs><g clip-path="url(#e21aa893ad)"><path fill="#4e7943" d="M 88.460938 0.00390625 L 170.179688 168.757812 L 5.828125 168.757812 L 88.460938 0.00390625 " fill-opacity="1" fill-rule="nonzero"/></g><g clip-path="url(#ff40535b6d)"><path fill="#4e7943" d="M 87.605469 168.757812 L 170.179688 168.757812 L 88.460938 0.00390625 L 87.605469 1.761719 L 87.605469 168.757812 " fill-opacity="1" fill-rule="nonzero"/></g><g clip-path="url(#0d4ad4514e)"><path fill="#4e7943" d="M 88.460938 90.511719 L 170.175781 168.757812 L 5.828125 168.757812 L 88.460938 90.511719 " fill-opacity="1" fill-rule="nonzero"/></g><g clip-path="url(#7fa738e980)"><path fill="#4e7943" d="M 287.453125 0.00390625 L 369.167969 168.757812 L 204.820312 168.757812 L 287.453125 0.00390625 " fill-opacity="1" fill-rule="nonzero"/></g><g clip-path="url(#af11fd205d)"><path fill="#4e7943" d="M 286.59375 168.757812 L 369.167969 168.757812 L 287.453125 0.00390625 L 286.59375 1.761719 L 286.59375 168.757812 " fill-opacity="1" fill-rule="nonzero"/></g><g clip-path="url(#47af5c25b3)"><path fill="#4e7943" d="M 287.453125 90.511719 L 369.167969 168.757812 L 204.816406 168.757812 L 287.453125 90.511719 " fill-opacity="1" fill-rule="nonzero"/></g><g clip-path="url(#3491709ef7)"><path fill="#4e7943" d="M 88.460938 206.253906 L 170.179688 375.007812 L 5.828125 375.007812 L 88.460938 206.253906 " fill-opacity="1" fill-rule="nonzero"/></g><g clip-path="url(#4fa495a792)"><path fill="#4e7943" d="M 87.605469 375.007812 L 170.179688 375.007812 L 88.460938 206.253906 L 87.605469 208.011719 L 87.605469 375.007812 " fill-opacity="1" fill-rule="nonzero"/></g><g clip-path="url(#88c7b055bb)"><path fill="#4e7943" d="M 88.460938 296.761719 L 170.175781 375.007812 L 5.828125 375.007812 L 88.460938 296.761719 " fill-opacity="1" fill-rule="nonzero"/></g><g clip-path="url(#16ed1a5a2d)"><path fill="#4e7943" d="M 287.453125 206.253906 L 369.167969 375.007812 L 204.820312 375.007812 L 287.453125 206.253906 " fill-opacity="1" fill-rule="nonzero"/></g><g clip-path="url(#17d38b2601)"><path fill="#4e7943" d="M 286.59375 375.007812 L 369.167969 375.007812 L 287.453125 206.253906 L 286.59375 208.011719 L 286.59375 375.007812 " fill-opacity="1" fill-rule="nonzero"/></g><g clip-path="url(#214473d159)"><path fill="#4e7943" d="M 287.453125 296.761719 L 369.167969 375.007812 L 204.816406 375.007812 L 287.453125 296.761719 " fill-opacity="1" fill-rule="nonzero"/></g></svg>