<svg xmlns="http://www.w3.org/2000/svg" xmlns:xlink="http://www.w3.org/1999/xlink" width="500" zoomAndPan="magnify" viewBox="0 0 375 374.999991" height="500" preserveAspectRatio="xMidYMid meet" version="1.0"><defs><clipPath id="a13e208c5e"><path d="M 105.234375 0 L 269.484375 0 L 269.484375 168.75 L 105.234375 168.75 Z M 105.234375 0 " clip-rule="nonzero"/></clipPath><clipPath id="c60c6d42a1"><path d="M 187 0 L 269.484375 0 L 269.484375 168.75 L 187 168.75 Z M 187 0 " clip-rule="nonzero"/></clipPath><clipPath id="c5fc1425a1"><path d="M 105.234375 90 L 269.484375 90 L 269.484375 168.75 L 105.234375 168.75 Z M 105.234375 90 " clip-rule="nonzero"/></clipPath><clipPath id="f29d564bda"><path d="M 5.738281 206.25 L 169.988281 206.25 L 169.988281 375 L 5.738281 375 Z M 5.738281 206.25 " clip-rule="nonzero"/></clipPath><clipPath id="b6c7dcdf27"><path d="M 87 206.25 L 169.988281 206.25 L 169.988281 375 L 87 375 Z M 87 206.25 " clip-rule="nonzero"/></clipPath><clipPath id="b649dce924"><path d="M 5.738281 296 L 169.988281 296 L 169.988281 375 L 5.738281 375 Z M 5.738281 296 " clip-rule="nonzero"/></clipPath><clipPath id="2bb2f53a68"><path d="M 204.730469 206.25 L 368.980469 206.25 L 368.980469 375 L 204.730469 375 Z M 204.730469 206.25 " clip-rule="nonzero"/></clipPath><clipPath id="3c18abacf6"><path d="M 286 206.25 L 368.980469 206.25 L 368.980469 375 L 286 375 Z M 286 206.25 " clip-rule="nonzero"/></clipPath><clipPath id="aea8f1e18a"><path d="M 204.730469 296 L 368.980469 296 L 368.980469 375 L 204.730469 375 Z M 204.730469 296 " clip-rule="nonzero"/></clipPath></defs><g clip-path="url(#a13e208c5e)"><path fill="#4e7943" d="M 187.957031 0.00390625 L 269.671875 168.757812 L 105.324219 168.757812 L 187.957031 0.00390625 " fill-opacity="1" fill-rule="nonzero"/></g><g clip-path="url(#c60c6d42a1)"><path fill="#4e7943" d="M 187.097656 168.757812 L 269.671875 168.757812 L 187.957031 0.00390625 L 187.097656 1.761719 L 187.097656 168.757812 " fill-opacity="1" fill-rule="nonzero"/></g><g clip-path="url(#c5fc1425a1)"><path fill="#4e7943" d="M 187.957031 90.511719 L 269.671875 168.757812 L 105.324219 168.757812 L 187.957031 90.511719 " fill-opacity="1" fill-rule="nonzero"/></g><g clip-path="url(#f29d564bda)"><path fill="#4e7943" d="M 88.460938 206.253906 L 170.179688 375.007812 L 5.828125 375.007812 L 88.460938 206.253906 " fill-opacity="1" fill-rule="nonzero"/></g><g clip-path="url(#b6c7dcdf27)"><path fill="#4e7943" d="M 87.605469 375.007812 L 170.179688 375.007812 L 88.460938 206.253906 L 87.605469 208.011719 L 87.605469 375.007812 " fill-opacity="1" fill-rule="nonzero"/></g><g clip-path="url(#b649dce924)"><path fill="#4e7943" d="M 88.460938 296.761719 L 170.175781 375.007812 L 5.828125 375.007812 L 88.460938 296.761719 " fill-opacity="1" fill-rule="nonzero"/></g><g clip-path="url(#2bb2f53a68)"><path fill="#4e7943" d="M 287.453125 206.253906 L 369.167969 375.007812 L 204.820312 375.007812 L 287.453125 206.253906 " fill-opacity="1" fill-rule="nonzero"/></g><g clip-path="url(#3c18abacf6)"><path fill="#4e7943" d="M 286.59375 375.007812 L 369.167969 375.007812 L 287.453125 206.253906 L 286.59375 208.011719 L 286.59375 375.007812 " fill-opacity="1" fill-rule="nonzero"/></g><g clip-path="url(#aea8f1e18a)"><path fill="#4e7943" d="M 287.453125 296.761719 L 369.167969 375.007812 L 204.816406 375.007812 L 287.453125 296.761719 " fill-opacity="1" fill-rule="nonzero"/></g></svg>