<svg xmlns="http://www.w3.org/2000/svg" xmlns:xlink="http://www.w3.org/1999/xlink" width="500" zoomAndPan="magnify" viewBox="0 0 375 374.999991" height="500" preserveAspectRatio="xMidYMid meet" version="1.0"><defs><clipPath id="bb14d813bf"><path d="M 5.738281 103.125 L 169.988281 103.125 L 169.988281 271.875 L 5.738281 271.875 Z M 5.738281 103.125 " clip-rule="nonzero"/></clipPath><clipPath id="302b74c2ec"><path d="M 87 103.125 L 169.988281 103.125 L 169.988281 271.875 L 87 271.875 Z M 87 103.125 " clip-rule="nonzero"/></clipPath><clipPath id="4442f6a670"><path d="M 5.738281 193 L 169.988281 193 L 169.988281 271.875 L 5.738281 271.875 Z M 5.738281 193 " clip-rule="nonzero"/></clipPath><clipPath id="43c85a3260"><path d="M 204.730469 103.125 L 368.980469 103.125 L 368.980469 271.875 L 204.730469 271.875 Z M 204.730469 103.125 " clip-rule="nonzero"/></clipPath><clipPath id="2d1a355ed2"><path d="M 286 103.125 L 368.980469 103.125 L 368.980469 271.875 L 286 271.875 Z M 286 103.125 " clip-rule="nonzero"/></clipPath><clipPath id="c67ec9f1ed"><path d="M 204.730469 193 L 368.980469 193 L 368.980469 271.875 L 204.730469 271.875 Z M 204.730469 193 " clip-rule="nonzero"/></clipPath></defs><g clip-path="url(#bb14d813bf)"><path fill="#5271ff" d="M 88.460938 103.128906 L 170.179688 271.882812 L 5.828125 271.882812 L 88.460938 103.128906 " fill-opacity="1" fill-rule="nonzero"/></g><g clip-path="url(#302b74c2ec)"><path fill="#5271ff" d="M 87.605469 271.882812 L 170.179688 271.882812 L 88.460938 103.128906 L 87.605469 104.886719 L 87.605469 271.882812 " fill-opacity="1" fill-rule="nonzero"/></g><g clip-path="url(#4442f6a670)"><path fill="#5271ff" d="M 88.460938 193.636719 L 170.175781 271.882812 L 5.828125 271.882812 L 88.460938 193.636719 " fill-opacity="1" fill-rule="nonzero"/></g><g clip-path="url(#43c85a3260)"><path fill="#5271ff" d="M 287.453125 103.128906 L 369.167969 271.882812 L 204.820312 271.882812 L 287.453125 103.128906 " fill-opacity="1" fill-rule="nonzero"/></g><g clip-path="url(#2d1a355ed2)"><path fill="#5271ff" d="M 286.59375 271.882812 L 369.167969 271.882812 L 287.453125 103.128906 L 286.59375 104.886719 L 286.59375 271.882812 " fill-opacity="1" fill-rule="nonzero"/></g><g clip-path="url(#c67ec9f1ed)"><path fill="#5271ff" d="M 287.453125 193.636719 L 369.167969 271.882812 L 204.816406 271.882812 L 287.453125 193.636719 " fill-opacity="1" fill-rule="nonzero"/></g></svg>