<svg xmlns="http://www.w3.org/2000/svg" xmlns:xlink="http://www.w3.org/1999/xlink" width="500" zoomAndPan="magnify" viewBox="0 0 375 374.999991" height="500" preserveAspectRatio="xMidYMid meet" version="1.0"><defs><clipPath id="6f7aa1da72"><path d="M 105.234375 0 L 269.484375 0 L 269.484375 168.75 L 105.234375 168.75 Z M 105.234375 0 " clip-rule="nonzero"/></clipPath><clipPath id="bcc5f5fc58"><path d="M 187 0 L 269.484375 0 L 269.484375 168.75 L 187 168.75 Z M 187 0 " clip-rule="nonzero"/></clipPath><clipPath id="e28fd1c743"><path d="M 105.234375 90 L 269.484375 90 L 269.484375 168.75 L 105.234375 168.75 Z M 105.234375 90 " clip-rule="nonzero"/></clipPath><clipPath id="1586f7b7ca"><path d="M 5.738281 206.25 L 169.988281 206.25 L 169.988281 375 L 5.738281 375 Z M 5.738281 206.25 " clip-rule="nonzero"/></clipPath><clipPath id="1392c924cc"><path d="M 87 206.25 L 169.988281 206.25 L 169.988281 375 L 87 375 Z M 87 206.25 " clip-rule="nonzero"/></clipPath><clipPath id="92ad754d12"><path d="M 5.738281 296 L 169.988281 296 L 169.988281 375 L 5.738281 375 Z M 5.738281 296 " clip-rule="nonzero"/></clipPath><clipPath id="3999b4c641"><path d="M 204.730469 206.25 L 368.980469 206.25 L 368.980469 375 L 204.730469 375 Z M 204.730469 206.25 " clip-rule="nonzero"/></clipPath><clipPath id="b3927fb0ef"><path d="M 286 206.25 L 368.980469 206.25 L 368.980469 375 L 286 375 Z M 286 206.25 " clip-rule="nonzero"/></clipPath><clipPath id="e479877dc8"><path d="M 204.730469 296 L 368.980469 296 L 368.980469 375 L 204.730469 375 Z M 204.730469 296 " clip-rule="nonzero"/></clipPath></defs><g clip-path="url(#6f7aa1da72)"><path fill="#de0f3f" d="M 187.957031 0.00390625 L 269.671875 168.757812 L 105.324219 168.757812 L 187.957031 0.00390625 " fill-opacity="1" fill-rule="nonzero"/></g><g clip-path="url(#bcc5f5fc58)"><path fill="#de0f3f" d="M 187.097656 168.757812 L 269.671875 168.757812 L 187.957031 0.00390625 L 187.097656 1.761719 L 187.097656 168.757812 " fill-opacity="1" fill-rule="nonzero"/></g><g clip-path="url(#e28fd1c743)"><path fill="#de0f3f" d="M 187.957031 90.511719 L 269.671875 168.757812 L 105.324219 168.757812 L 187.957031 90.511719 " fill-opacity="1" fill-rule="nonzero"/></g><g clip-path="url(#1586f7b7ca)"><path fill="#de0f3f" d="M 88.460938 206.253906 L 170.179688 375.007812 L 5.828125 375.007812 L 88.460938 206.253906 " fill-opacity="1" fill-rule="nonzero"/></g><g clip-path="url(#1392c924cc)"><path fill="#de0f3f" d="M 87.605469 375.007812 L 170.179688 375.007812 L 88.460938 206.253906 L 87.605469 208.011719 L 87.605469 375.007812 " fill-opacity="1" fill-rule="nonzero"/></g><g clip-path="url(#92ad754d12)"><path fill="#de0f3f" d="M 88.460938 296.761719 L 170.175781 375.007812 L 5.828125 375.007812 L 88.460938 296.761719 " fill-opacity="1" fill-rule="nonzero"/></g><g clip-path="url(#3999b4c641)"><path fill="#de0f3f" d="M 287.453125 206.253906 L 369.167969 375.007812 L 204.820312 375.007812 L 287.453125 206.253906 " fill-opacity="1" fill-rule="nonzero"/></g><g clip-path="url(#b3927fb0ef)"><path fill="#de0f3f" d="M 286.59375 375.007812 L 369.167969 375.007812 L 287.453125 206.253906 L 286.59375 208.011719 L 286.59375 375.007812 " fill-opacity="1" fill-rule="nonzero"/></g><g clip-path="url(#e479877dc8)"><path fill="#de0f3f" d="M 287.453125 296.761719 L 369.167969 375.007812 L 204.816406 375.007812 L 287.453125 296.761719 " fill-opacity="1" fill-rule="nonzero"/></g></svg>