<svg xmlns="http://www.w3.org/2000/svg" xmlns:xlink="http://www.w3.org/1999/xlink" width="500" zoomAndPan="magnify" viewBox="0 0 375 374.999991" height="500" preserveAspectRatio="xMidYMid meet" version="1.0"><defs><clipPath id="2a94c99051"><path d="M 5.738281 0 L 169.988281 0 L 169.988281 168.75 L 5.738281 168.75 Z M 5.738281 0 " clip-rule="nonzero"/></clipPath><clipPath id="b079bb06c2"><path d="M 87 0 L 169.988281 0 L 169.988281 168.75 L 87 168.75 Z M 87 0 " clip-rule="nonzero"/></clipPath><clipPath id="3cd3b6539a"><path d="M 5.738281 90 L 169.988281 90 L 169.988281 168.75 L 5.738281 168.75 Z M 5.738281 90 " clip-rule="nonzero"/></clipPath><clipPath id="54c8942cbb"><path d="M 204.730469 0 L 368.980469 0 L 368.980469 168.75 L 204.730469 168.75 Z M 204.730469 0 " clip-rule="nonzero"/></clipPath><clipPath id="1edd5b0dc1"><path d="M 286 0 L 368.980469 0 L 368.980469 168.75 L 286 168.75 Z M 286 0 " clip-rule="nonzero"/></clipPath><clipPath id="5b4ba065b2"><path d="M 204.730469 90 L 368.980469 90 L 368.980469 168.75 L 204.730469 168.75 Z M 204.730469 90 " clip-rule="nonzero"/></clipPath><clipPath id="1aab6714fe"><path d="M 5.738281 206.25 L 169.988281 206.25 L 169.988281 375 L 5.738281 375 Z M 5.738281 206.25 " clip-rule="nonzero"/></clipPath><clipPath id="ddc5ccdcdd"><path d="M 87 206.25 L 169.988281 206.25 L 169.988281 375 L 87 375 Z M 87 206.25 " clip-rule="nonzero"/></clipPath><clipPath id="23ca9eef3d"><path d="M 5.738281 296 L 169.988281 296 L 169.988281 375 L 5.738281 375 Z M 5.738281 296 " clip-rule="nonzero"/></clipPath><clipPath id="465d54cd02"><path d="M 204.730469 206.25 L 368.980469 206.25 L 368.980469 375 L 204.730469 375 Z M 204.730469 206.25 " clip-rule="nonzero"/></clipPath><clipPath id="d81213a3da"><path d="M 286 206.25 L 368.980469 206.25 L 368.980469 375 L 286 375 Z M 286 206.25 " clip-rule="nonzero"/></clipPath><clipPath id="dd44e66cee"><path d="M 204.730469 296 L 368.980469 296 L 368.980469 375 L 204.730469 375 Z M 204.730469 296 " clip-rule="nonzero"/></clipPath></defs><g clip-path="url(#2a94c99051)"><path fill="#5271ff" d="M 88.460938 0.00390625 L 170.179688 168.757812 L 5.828125 168.757812 L 88.460938 0.00390625 " fill-opacity="1" fill-rule="nonzero"/></g><g clip-path="url(#b079bb06c2)"><path fill="#5271ff" d="M 87.605469 168.757812 L 170.179688 168.757812 L 88.460938 0.00390625 L 87.605469 1.761719 L 87.605469 168.757812 " fill-opacity="1" fill-rule="nonzero"/></g><g clip-path="url(#3cd3b6539a)"><path fill="#5271ff" d="M 88.460938 90.511719 L 170.175781 168.757812 L 5.828125 168.757812 L 88.460938 90.511719 " fill-opacity="1" fill-rule="nonzero"/></g><g clip-path="url(#54c8942cbb)"><path fill="#5271ff" d="M 287.453125 0.00390625 L 369.167969 168.757812 L 204.820312 168.757812 L 287.453125 0.00390625 " fill-opacity="1" fill-rule="nonzero"/></g><g clip-path="url(#1edd5b0dc1)"><path fill="#5271ff" d="M 286.59375 168.757812 L 369.167969 168.757812 L 287.453125 0.00390625 L 286.59375 1.761719 L 286.59375 168.757812 " fill-opacity="1" fill-rule="nonzero"/></g><g clip-path="url(#5b4ba065b2)"><path fill="#5271ff" d="M 287.453125 90.511719 L 369.167969 168.757812 L 204.816406 168.757812 L 287.453125 90.511719 " fill-opacity="1" fill-rule="nonzero"/></g><g clip-path="url(#1aab6714fe)"><path fill="#5271ff" d="M 88.460938 206.253906 L 170.179688 375.007812 L 5.828125 375.007812 L 88.460938 206.253906 " fill-opacity="1" fill-rule="nonzero"/></g><g clip-path="url(#ddc5ccdcdd)"><path fill="#5271ff" d="M 87.605469 375.007812 L 170.179688 375.007812 L 88.460938 206.253906 L 87.605469 208.011719 L 87.605469 375.007812 " fill-opacity="1" fill-rule="nonzero"/></g><g clip-path="url(#23ca9eef3d)"><path fill="#5271ff" d="M 88.460938 296.761719 L 170.175781 375.007812 L 5.828125 375.007812 L 88.460938 296.761719 " fill-opacity="1" fill-rule="nonzero"/></g><g clip-path="url(#465d54cd02)"><path fill="#5271ff" d="M 287.453125 206.253906 L 369.167969 375.007812 L 204.820312 375.007812 L 287.453125 206.253906 " fill-opacity="1" fill-rule="nonzero"/></g><g clip-path="url(#d81213a3da)"><path fill="#5271ff" d="M 286.59375 375.007812 L 369.167969 375.007812 L 287.453125 206.253906 L 286.59375 208.011719 L 286.59375 375.007812 " fill-opacity="1" fill-rule="nonzero"/></g><g clip-path="url(#dd44e66cee)"><path fill="#5271ff" d="M 287.453125 296.761719 L 369.167969 375.007812 L 204.816406 375.007812 L 287.453125 296.761719 " fill-opacity="1" fill-rule="nonzero"/></g></svg>