<svg xmlns="http://www.w3.org/2000/svg" xmlns:xlink="http://www.w3.org/1999/xlink" width="500" zoomAndPan="magnify" viewBox="0 0 375 374.999991" height="500" preserveAspectRatio="xMidYMid meet" version="1.0"><defs><clipPath id="77bf60f423"><path d="M 5.738281 103.125 L 169.988281 103.125 L 169.988281 271.875 L 5.738281 271.875 Z M 5.738281 103.125 " clip-rule="nonzero"/></clipPath><clipPath id="a5f129d70f"><path d="M 87 103.125 L 169.988281 103.125 L 169.988281 271.875 L 87 271.875 Z M 87 103.125 " clip-rule="nonzero"/></clipPath><clipPath id="27f9e53f20"><path d="M 5.738281 193 L 169.988281 193 L 169.988281 271.875 L 5.738281 271.875 Z M 5.738281 193 " clip-rule="nonzero"/></clipPath><clipPath id="ba74dadedf"><path d="M 204.730469 103.125 L 368.980469 103.125 L 368.980469 271.875 L 204.730469 271.875 Z M 204.730469 103.125 " clip-rule="nonzero"/></clipPath><clipPath id="9c5b9e572f"><path d="M 286 103.125 L 368.980469 103.125 L 368.980469 271.875 L 286 271.875 Z M 286 103.125 " clip-rule="nonzero"/></clipPath><clipPath id="f58a8044d2"><path d="M 204.730469 193 L 368.980469 193 L 368.980469 271.875 L 204.730469 271.875 Z M 204.730469 193 " clip-rule="nonzero"/></clipPath></defs><g clip-path="url(#77bf60f423)"><path fill="#fbe906" d="M 88.460938 103.128906 L 170.179688 271.882812 L 5.828125 271.882812 L 88.460938 103.128906 " fill-opacity="1" fill-rule="nonzero"/></g><g clip-path="url(#a5f129d70f)"><path fill="#fbe906" d="M 87.605469 271.882812 L 170.179688 271.882812 L 88.460938 103.128906 L 87.605469 104.886719 L 87.605469 271.882812 " fill-opacity="1" fill-rule="nonzero"/></g><g clip-path="url(#27f9e53f20)"><path fill="#fbe906" d="M 88.460938 193.636719 L 170.175781 271.882812 L 5.828125 271.882812 L 88.460938 193.636719 " fill-opacity="1" fill-rule="nonzero"/></g><g clip-path="url(#ba74dadedf)"><path fill="#fbe906" d="M 287.453125 103.128906 L 369.167969 271.882812 L 204.820312 271.882812 L 287.453125 103.128906 " fill-opacity="1" fill-rule="nonzero"/></g><g clip-path="url(#9c5b9e572f)"><path fill="#fbe906" d="M 286.59375 271.882812 L 369.167969 271.882812 L 287.453125 103.128906 L 286.59375 104.886719 L 286.59375 271.882812 " fill-opacity="1" fill-rule="nonzero"/></g><g clip-path="url(#f58a8044d2)"><path fill="#fbe906" d="M 287.453125 193.636719 L 369.167969 271.882812 L 204.816406 271.882812 L 287.453125 193.636719 " fill-opacity="1" fill-rule="nonzero"/></g></svg>