<svg xmlns="http://www.w3.org/2000/svg" xmlns:xlink="http://www.w3.org/1999/xlink" width="500" zoomAndPan="magnify" viewBox="0 0 375 374.999991" height="500" preserveAspectRatio="xMidYMid meet" version="1.0"><defs><clipPath id="d1a9e59769"><path d="M 5.738281 0 L 169.988281 0 L 169.988281 168.75 L 5.738281 168.75 Z M 5.738281 0 " clip-rule="nonzero"/></clipPath><clipPath id="c79e5ff313"><path d="M 87 0 L 169.988281 0 L 169.988281 168.75 L 87 168.75 Z M 87 0 " clip-rule="nonzero"/></clipPath><clipPath id="59a7800334"><path d="M 5.738281 90 L 169.988281 90 L 169.988281 168.75 L 5.738281 168.75 Z M 5.738281 90 " clip-rule="nonzero"/></clipPath><clipPath id="9f5a7d82b7"><path d="M 204.730469 0 L 368.980469 0 L 368.980469 168.75 L 204.730469 168.75 Z M 204.730469 0 " clip-rule="nonzero"/></clipPath><clipPath id="18c085da98"><path d="M 286 0 L 368.980469 0 L 368.980469 168.75 L 286 168.75 Z M 286 0 " clip-rule="nonzero"/></clipPath><clipPath id="53f2e0377e"><path d="M 204.730469 90 L 368.980469 90 L 368.980469 168.75 L 204.730469 168.75 Z M 204.730469 90 " clip-rule="nonzero"/></clipPath><clipPath id="ed3c8b2bbd"><path d="M 5.738281 206.25 L 169.988281 206.25 L 169.988281 375 L 5.738281 375 Z M 5.738281 206.25 " clip-rule="nonzero"/></clipPath><clipPath id="b8774ef476"><path d="M 87 206.25 L 169.988281 206.25 L 169.988281 375 L 87 375 Z M 87 206.25 " clip-rule="nonzero"/></clipPath><clipPath id="b934bc0a06"><path d="M 5.738281 296 L 169.988281 296 L 169.988281 375 L 5.738281 375 Z M 5.738281 296 " clip-rule="nonzero"/></clipPath><clipPath id="150a419db8"><path d="M 204.730469 206.25 L 368.980469 206.25 L 368.980469 375 L 204.730469 375 Z M 204.730469 206.25 " clip-rule="nonzero"/></clipPath><clipPath id="288a0398cf"><path d="M 286 206.25 L 368.980469 206.25 L 368.980469 375 L 286 375 Z M 286 206.25 " clip-rule="nonzero"/></clipPath><clipPath id="9f4d17b30f"><path d="M 204.730469 296 L 368.980469 296 L 368.980469 375 L 204.730469 375 Z M 204.730469 296 " clip-rule="nonzero"/></clipPath></defs><g clip-path="url(#d1a9e59769)"><path fill="#fbe906" d="M 88.460938 0.00390625 L 170.179688 168.757812 L 5.828125 168.757812 L 88.460938 0.00390625 " fill-opacity="1" fill-rule="nonzero"/></g><g clip-path="url(#c79e5ff313)"><path fill="#fbe906" d="M 87.605469 168.757812 L 170.179688 168.757812 L 88.460938 0.00390625 L 87.605469 1.761719 L 87.605469 168.757812 " fill-opacity="1" fill-rule="nonzero"/></g><g clip-path="url(#59a7800334)"><path fill="#fbe906" d="M 88.460938 90.511719 L 170.175781 168.757812 L 5.828125 168.757812 L 88.460938 90.511719 " fill-opacity="1" fill-rule="nonzero"/></g><g clip-path="url(#9f5a7d82b7)"><path fill="#fbe906" d="M 287.453125 0.00390625 L 369.167969 168.757812 L 204.820312 168.757812 L 287.453125 0.00390625 " fill-opacity="1" fill-rule="nonzero"/></g><g clip-path="url(#18c085da98)"><path fill="#fbe906" d="M 286.59375 168.757812 L 369.167969 168.757812 L 287.453125 0.00390625 L 286.59375 1.761719 L 286.59375 168.757812 " fill-opacity="1" fill-rule="nonzero"/></g><g clip-path="url(#53f2e0377e)"><path fill="#fbe906" d="M 287.453125 90.511719 L 369.167969 168.757812 L 204.816406 168.757812 L 287.453125 90.511719 " fill-opacity="1" fill-rule="nonzero"/></g><g clip-path="url(#ed3c8b2bbd)"><path fill="#fbe906" d="M 88.460938 206.253906 L 170.179688 375.007812 L 5.828125 375.007812 L 88.460938 206.253906 " fill-opacity="1" fill-rule="nonzero"/></g><g clip-path="url(#b8774ef476)"><path fill="#fbe906" d="M 87.605469 375.007812 L 170.179688 375.007812 L 88.460938 206.253906 L 87.605469 208.011719 L 87.605469 375.007812 " fill-opacity="1" fill-rule="nonzero"/></g><g clip-path="url(#b934bc0a06)"><path fill="#fbe906" d="M 88.460938 296.761719 L 170.175781 375.007812 L 5.828125 375.007812 L 88.460938 296.761719 " fill-opacity="1" fill-rule="nonzero"/></g><g clip-path="url(#150a419db8)"><path fill="#fbe906" d="M 287.453125 206.253906 L 369.167969 375.007812 L 204.820312 375.007812 L 287.453125 206.253906 " fill-opacity="1" fill-rule="nonzero"/></g><g clip-path="url(#288a0398cf)"><path fill="#fbe906" d="M 286.59375 375.007812 L 369.167969 375.007812 L 287.453125 206.253906 L 286.59375 208.011719 L 286.59375 375.007812 " fill-opacity="1" fill-rule="nonzero"/></g><g clip-path="url(#9f4d17b30f)"><path fill="#fbe906" d="M 287.453125 296.761719 L 369.167969 375.007812 L 204.816406 375.007812 L 287.453125 296.761719 " fill-opacity="1" fill-rule="nonzero"/></g></svg>